<svg version="1.1" xmlns="http://www.w3.org/2000/svg" xmlns:xlink="http://www.w3.org/1999/xlink" width="800" height="400"><defs><clipPath id="FJZgBCKqBOlP"><path fill="none" stroke="none" d="M 66.5 31.5 L 770.5 31.5 L 770.5 355.5 L 66.5 355.5 L 66.5 31.5"/></clipPath><clipPath id="DrINHUDDcTFt"><path fill="none" stroke="none" d="M 66.5 31.5 L 770.5 31.5 L 770.5 355.5 L 66.5 355.5 L 66.5 31.5"/></clipPath><clipPath id="fWAWkcwxLJIP"><path fill="none" stroke="none" d="M 66.5 31.5 L 770.5 31.5 L 770.5 355.5 L 66.5 355.5 L 66.5 31.5"/></clipPath><clipPath id="SAnhODqupPmr"><path fill="none" stroke="none" d="M 66.5 31.5 L 770.5 31.5 L 770.5 355.5 L 66.5 355.5 L 66.5 31.5"/></clipPath><clipPath id="TJntzKJXnAUe"><path fill="none" stroke="none" d="M 66.5 31.5 L 770.5 31.5 L 770.5 355.5 L 66.5 355.5 L 66.5 31.5"/></clipPath><clipPath id="CVlBvUptWbUB"><path fill="none" stroke="none" d="M 66.5 31.5 L 770.5 31.5 L 770.5 355.5 L 66.5 355.5 L 66.5 31.5"/></clipPath></defs><path fill="rgb(255,255,255)" stroke="none" paint-order="stroke" d="M 0.5 0.5 L 800.5 0.5 L 800.5 400.5 L 0.5 400.5 L 0.5 0.5" fill-opacity="1"/><rect fill="#FFFFFF" stroke="none" x="66" y="31" width="704" height="324" transform="matrix(1, 0, 0, 1, 0.5, 0.5)"/><path fill="rgb(255,255,255)" stroke="none" paint-order="stroke" d="M 66.5 31.5 L 770.5 31.5 L 770.5 355.5 L 66.5 355.5 L 66.5 31.5" fill-opacity="1"/><path fill="none" stroke="rgb(229,229,229)" paint-order="fill" d="M 66.5 31.5 L 770.5 31.5 L 770.5 355.5 L 66.5 355.5 L 66.5 31.5" stroke-opacity="1" stroke-linejoin="bevel" stroke-miterlimit="10" stroke-dasharray=""/><path fill="none" stroke="rgb(229,229,229)" paint-order="fill" d="M 66.5 349.5 L 770.5 349.5 M 66.5 309.5 L 770.5 309.5 M 66.5 269.5 L 770.5 269.5 M 66.5 229.5 L 770.5 229.5 M 66.5 189.5 L 770.5 189.5 M 66.5 149.5 L 770.5 149.5 M 66.5 109.5 L 770.5 109.5 M 66.5 69.5 L 770.5 69.5" stroke-opacity="1" stroke-linejoin="bevel" stroke-miterlimit="10" stroke-dasharray="" clip-path="url(#DrINHUDDcTFt)"/><path fill="none" stroke="none"/><path fill="none" stroke="rgb(255,127,80)" paint-order="fill" d="M 738.5 69.27483367919922 L 715.0770263671875 205.52304077148438 L 699.73095703125 55.77383041381836 L 676.494384765625 72.35051727294922 L 673.947021484375 46.446903228759766 L 659.4707641601562 66.45877838134766 L 641.20458984375 254.71385192871094 L 633.9974975585938 66.89816284179688 L 606.163330078125 65.44013977050781 L 600.260986328125 53.097530364990234 L 522.1015625 46.50678253173828 L 521.1696166992188 60.686920166015625 L 490.35321044921875 68.17631530761719 L 330.5551452636719 65.32038879394531 L 326.6409606933594 77.46324157714844 L 321.981201171875 46.227272033691406 L 313.40728759765625 340.7727355957031 L 298.74462890625 57.39148712158203 L 298.8067626953125 71.8112564086914 L 282.09381103515625 58.49000549316406 L 247.98451232910156 71.93101501464844 L 208.96694946289062 56.253089904785156 L 200.70367431640625 56.71247482299805 L 186.7865753173828 70.03372955322266 L 175.6653289794922 102.38821411132812 L 171.50262451171875 286.7886962890625 L 164.29554748535156 110.21723175048828 L 99.74259948730469 62.48433303833008 L 98.5 194.298828125 L 98.8106460571289 66.95804595947266" stroke-opacity="1" stroke-linejoin="bevel" stroke-miterlimit="10" stroke-width="1.5" stroke-dasharray="" clip-path="url(#fWAWkcwxLJIP)"/><path fill="none" stroke="none"/><path fill="rgb(255,255,255)" stroke="rgb(255,127,80)" paint-order="fill" d="M 740.5 69.27483367919922 A 2 2 0 1 1 740.4999990000001 69.27283367953255" fill-opacity="1" clip-path="url(#SAnhODqupPmr)" stroke-opacity="1" stroke-linejoin="bevel" stroke-miterlimit="10" stroke-width="1.5" stroke-dasharray=""/><path fill="rgb(255,255,255)" stroke="rgb(255,127,80)" paint-order="fill" d="M 717.0770263671875 205.52304077148438 A 2 2 0 1 1 717.0770253671876 205.5210407718177" fill-opacity="1" clip-path="url(#SAnhODqupPmr)" stroke-opacity="1" stroke-linejoin="bevel" stroke-miterlimit="10" stroke-width="1.5" stroke-dasharray=""/><path fill="rgb(255,255,255)" stroke="rgb(255,127,80)" paint-order="fill" d="M 701.73095703125 55.77383041381836 A 2 2 0 1 1 701.7309560312501 55.771830414151694" fill-opacity="1" clip-path="url(#SAnhODqupPmr)" stroke-opacity="1" stroke-linejoin="bevel" stroke-miterlimit="10" stroke-width="1.5" stroke-dasharray=""/><path fill="rgb(255,255,255)" stroke="rgb(255,127,80)" paint-order="fill" d="M 678.494384765625 72.35051727294922 A 2 2 0 1 1 678.4943837656251 72.34851727328255" fill-opacity="1" clip-path="url(#SAnhODqupPmr)" stroke-opacity="1" stroke-linejoin="bevel" stroke-miterlimit="10" stroke-width="1.5" stroke-dasharray=""/><path fill="rgb(255,255,255)" stroke="rgb(255,127,80)" paint-order="fill" d="M 675.947021484375 46.446903228759766 A 2 2 0 1 1 675.9470204843751 46.4449032290931" fill-opacity="1" clip-path="url(#SAnhODqupPmr)" stroke-opacity="1" stroke-linejoin="bevel" stroke-miterlimit="10" stroke-width="1.5" stroke-dasharray=""/><path fill="rgb(255,255,255)" stroke="rgb(255,127,80)" paint-order="fill" d="M 661.4707641601562 66.45877838134766 A 2 2 0 1 1 661.4707631601564 66.45677838168099" fill-opacity="1" clip-path="url(#SAnhODqupPmr)" stroke-opacity="1" stroke-linejoin="bevel" stroke-miterlimit="10" stroke-width="1.5" stroke-dasharray=""/><path fill="rgb(255,255,255)" stroke="rgb(255,127,80)" paint-order="fill" d="M 643.20458984375 254.71385192871094 A 2 2 0 1 1 643.2045888437501 254.71185192904426" fill-opacity="1" clip-path="url(#SAnhODqupPmr)" stroke-opacity="1" stroke-linejoin="bevel" stroke-miterlimit="10" stroke-width="1.5" stroke-dasharray=""/><path fill="rgb(255,255,255)" stroke="rgb(255,127,80)" paint-order="fill" d="M 635.9974975585938 66.89816284179688 A 2 2 0 1 1 635.9974965585939 66.89616284213021" fill-opacity="1" clip-path="url(#SAnhODqupPmr)" stroke-opacity="1" stroke-linejoin="bevel" stroke-miterlimit="10" stroke-width="1.5" stroke-dasharray=""/><path fill="rgb(255,255,255)" stroke="rgb(255,127,80)" paint-order="fill" d="M 608.163330078125 65.44013977050781 A 2 2 0 1 1 608.1633290781251 65.43813977084115" fill-opacity="1" clip-path="url(#SAnhODqupPmr)" stroke-opacity="1" stroke-linejoin="bevel" stroke-miterlimit="10" stroke-width="1.5" stroke-dasharray=""/><path fill="rgb(255,255,255)" stroke="rgb(255,127,80)" paint-order="fill" d="M 602.260986328125 53.097530364990234 A 2 2 0 1 1 602.2609853281251 53.09553036532357" fill-opacity="1" clip-path="url(#SAnhODqupPmr)" stroke-opacity="1" stroke-linejoin="bevel" stroke-miterlimit="10" stroke-width="1.5" stroke-dasharray=""/><path fill="rgb(255,255,255)" stroke="rgb(255,127,80)" paint-order="fill" d="M 524.1015625 46.50678253173828 A 2 2 0 1 1 524.1015615000001 46.504782532071616" fill-opacity="1" clip-path="url(#SAnhODqupPmr)" stroke-opacity="1" stroke-linejoin="bevel" stroke-miterlimit="10" stroke-width="1.5" stroke-dasharray=""/><path fill="rgb(255,255,255)" stroke="rgb(255,127,80)" paint-order="fill" d="M 523.1696166992188 60.686920166015625 A 2 2 0 1 1 523.1696156992189 60.68492016634896" fill-opacity="1" clip-path="url(#SAnhODqupPmr)" stroke-opacity="1" stroke-linejoin="bevel" stroke-miterlimit="10" stroke-width="1.5" stroke-dasharray=""/><path fill="rgb(255,255,255)" stroke="rgb(255,127,80)" paint-order="fill" d="M 492.35321044921875 68.17631530761719 A 2 2 0 1 1 492.3532094492188 68.17431530795052" fill-opacity="1" clip-path="url(#SAnhODqupPmr)" stroke-opacity="1" stroke-linejoin="bevel" stroke-miterlimit="10" stroke-width="1.5" stroke-dasharray=""/><path fill="rgb(255,255,255)" stroke="rgb(255,127,80)" paint-order="fill" d="M 332.5551452636719 65.32038879394531 A 2 2 0 1 1 332.55514426367193 65.31838879427865" fill-opacity="1" clip-path="url(#SAnhODqupPmr)" stroke-opacity="1" stroke-linejoin="bevel" stroke-miterlimit="10" stroke-width="1.5" stroke-dasharray=""/><path fill="rgb(255,255,255)" stroke="rgb(255,127,80)" paint-order="fill" d="M 328.6409606933594 77.46324157714844 A 2 2 0 1 1 328.64095969335943 77.46124157748177" fill-opacity="1" clip-path="url(#SAnhODqupPmr)" stroke-opacity="1" stroke-linejoin="bevel" stroke-miterlimit="10" stroke-width="1.5" stroke-dasharray=""/><path fill="rgb(255,255,255)" stroke="rgb(255,127,80)" paint-order="fill" d="M 323.981201171875 46.227272033691406 A 2 2 0 1 1 323.98120017187506 46.22527203402474" fill-opacity="1" clip-path="url(#SAnhODqupPmr)" stroke-opacity="1" stroke-linejoin="bevel" stroke-miterlimit="10" stroke-width="1.5" stroke-dasharray=""/><path fill="rgb(255,255,255)" stroke="rgb(255,127,80)" paint-order="fill" d="M 315.40728759765625 340.7727355957031 A 2 2 0 1 1 315.4072865976563 340.77073559603645" fill-opacity="1" clip-path="url(#SAnhODqupPmr)" stroke-opacity="1" stroke-linejoin="bevel" stroke-miterlimit="10" stroke-width="1.5" stroke-dasharray=""/><path fill="rgb(255,255,255)" stroke="rgb(255,127,80)" paint-order="fill" d="M 300.74462890625 57.39148712158203 A 2 2 0 1 1 300.74462790625006 57.389487121915366" fill-opacity="1" clip-path="url(#SAnhODqupPmr)" stroke-opacity="1" stroke-linejoin="bevel" stroke-miterlimit="10" stroke-width="1.5" stroke-dasharray=""/><path fill="rgb(255,255,255)" stroke="rgb(255,127,80)" paint-order="fill" d="M 300.8067626953125 71.8112564086914 A 2 2 0 1 1 300.80676169531256 71.80925640902474" fill-opacity="1" clip-path="url(#SAnhODqupPmr)" stroke-opacity="1" stroke-linejoin="bevel" stroke-miterlimit="10" stroke-width="1.5" stroke-dasharray=""/><path fill="rgb(255,255,255)" stroke="rgb(255,127,80)" paint-order="fill" d="M 284.09381103515625 58.49000549316406 A 2 2 0 1 1 284.0938100351563 58.4880054934974" fill-opacity="1" clip-path="url(#SAnhODqupPmr)" stroke-opacity="1" stroke-linejoin="bevel" stroke-miterlimit="10" stroke-width="1.5" stroke-dasharray=""/><path fill="rgb(255,255,255)" stroke="rgb(255,127,80)" paint-order="fill" d="M 249.98451232910156 71.93101501464844 A 2 2 0 1 1 249.98451132910165 71.92901501498177" fill-opacity="1" clip-path="url(#SAnhODqupPmr)" stroke-opacity="1" stroke-linejoin="bevel" stroke-miterlimit="10" stroke-width="1.5" stroke-dasharray=""/><path fill="rgb(255,255,255)" stroke="rgb(255,127,80)" paint-order="fill" d="M 210.96694946289062 56.253089904785156 A 2 2 0 1 1 210.9669484628907 56.25108990511849" fill-opacity="1" clip-path="url(#SAnhODqupPmr)" stroke-opacity="1" stroke-linejoin="bevel" stroke-miterlimit="10" stroke-width="1.5" stroke-dasharray=""/><path fill="rgb(255,255,255)" stroke="rgb(255,127,80)" paint-order="fill" d="M 202.70367431640625 56.71247482299805 A 2 2 0 1 1 202.70367331640634 56.71047482333138" fill-opacity="1" clip-path="url(#SAnhODqupPmr)" stroke-opacity="1" stroke-linejoin="bevel" stroke-miterlimit="10" stroke-width="1.5" stroke-dasharray=""/><path fill="rgb(255,255,255)" stroke="rgb(255,127,80)" paint-order="fill" d="M 188.7865753173828 70.03372955322266 A 2 2 0 1 1 188.7865743173829 70.03172955355599" fill-opacity="1" clip-path="url(#SAnhODqupPmr)" stroke-opacity="1" stroke-linejoin="bevel" stroke-miterlimit="10" stroke-width="1.5" stroke-dasharray=""/><path fill="rgb(255,255,255)" stroke="rgb(255,127,80)" paint-order="fill" d="M 177.6653289794922 102.38821411132812 A 2 2 0 1 1 177.66532797949228 102.38621411166146" fill-opacity="1" clip-path="url(#SAnhODqupPmr)" stroke-opacity="1" stroke-linejoin="bevel" stroke-miterlimit="10" stroke-width="1.5" stroke-dasharray=""/><path fill="rgb(255,255,255)" stroke="rgb(255,127,80)" paint-order="fill" d="M 173.50262451171875 286.7886962890625 A 2 2 0 1 1 173.50262351171884 286.7866962893958" fill-opacity="1" clip-path="url(#SAnhODqupPmr)" stroke-opacity="1" stroke-linejoin="bevel" stroke-miterlimit="10" stroke-width="1.5" stroke-dasharray=""/><path fill="rgb(255,255,255)" stroke="rgb(255,127,80)" paint-order="fill" d="M 166.29554748535156 110.21723175048828 A 2 2 0 1 1 166.29554648535165 110.21523175082162" fill-opacity="1" clip-path="url(#SAnhODqupPmr)" stroke-opacity="1" stroke-linejoin="bevel" stroke-miterlimit="10" stroke-width="1.5" stroke-dasharray=""/><path fill="rgb(255,255,255)" stroke="rgb(255,127,80)" paint-order="fill" d="M 101.74259948730469 62.48433303833008 A 2 2 0 1 1 101.74259848730478 62.48233303866341" fill-opacity="1" clip-path="url(#SAnhODqupPmr)" stroke-opacity="1" stroke-linejoin="bevel" stroke-miterlimit="10" stroke-width="1.5" stroke-dasharray=""/><path fill="rgb(255,255,255)" stroke="rgb(255,127,80)" paint-order="fill" d="M 100.5 194.298828125 A 2 2 0 1 1 100.49999900000009 194.29682812533332" fill-opacity="1" clip-path="url(#SAnhODqupPmr)" stroke-opacity="1" stroke-linejoin="bevel" stroke-miterlimit="10" stroke-width="1.5" stroke-dasharray=""/><path fill="rgb(255,255,255)" stroke="rgb(255,127,80)" paint-order="fill" d="M 100.8106460571289 66.95804595947266 A 2 2 0 1 1 100.810645057129 66.95604595980599" fill-opacity="1" clip-path="url(#SAnhODqupPmr)" stroke-opacity="1" stroke-linejoin="bevel" stroke-miterlimit="10" stroke-width="1.5" stroke-dasharray=""/><path fill="none" stroke="rgb(0,0,0)" paint-order="fill" d="M 66.5 355.5 L 770.5 355.5" stroke-opacity="1" stroke-linejoin="bevel" stroke-miterlimit="10" stroke-dasharray=""/><path fill="none" stroke="rgb(0,0,0)" paint-order="fill" d="M 126.5 361.5 L 126.5 353.5 M 349.5 361.5 L 349.5 353.5 M 573.5 361.5 L 573.5 353.5" stroke-opacity="1" stroke-linejoin="bevel" stroke-miterlimit="10" stroke-dasharray=""/><path fill="none" stroke="rgb(0,0,0)" paint-order="fill" d="" stroke-opacity="1" stroke-linejoin="bevel" stroke-miterlimit="10" stroke-dasharray=""/><text fill="rgb(68,68,68)" stroke="none" font-family="helvetica" font-size="11px" font-style="normal" font-weight="normal" text-decoration="normal" x="0" y="0" text-anchor="middle" dominant-baseline="hanging" transform="matrix(1, 0, 0, 1, 126.5, 366.5)" fill-opacity="1">12h</text><text fill="rgb(68,68,68)" stroke="none" font-family="helvetica" font-size="11px" font-style="normal" font-weight="normal" text-decoration="normal" x="0" y="0" text-anchor="middle" dominant-baseline="hanging" transform="matrix(1, 0, 0, 1, 349.5, 366.5)" fill-opacity="1">13h</text><text fill="rgb(68,68,68)" stroke="none" font-family="helvetica" font-size="11px" font-style="normal" font-weight="normal" text-decoration="normal" x="0" y="0" text-anchor="middle" dominant-baseline="hanging" transform="matrix(1, 0, 0, 1, 573.5, 366.5)" fill-opacity="1">14h</text><text fill="rgb(68,68,68)" stroke="none" font-family="helvetica" font-size="13px" font-style="italic" font-weight="normal" text-decoration="normal" x="0" y="0" text-anchor="middle" dominant-baseline="hanging" transform="matrix(1, 0, 0, 1, 418.5, 384.5)" fill-opacity="1">Training Start Time</text><path fill="none" stroke="rgb(0,0,0)" paint-order="fill" d="M 66.5 355.5 L 66.5 31.5" stroke-opacity="1" stroke-linejoin="bevel" stroke-miterlimit="10" stroke-dasharray=""/><path fill="none" stroke="rgb(0,0,0)" paint-order="fill" d="M 60.5 349.5 L 68.5 349.5 M 60.5 309.5 L 68.5 309.5 M 60.5 269.5 L 68.5 269.5 M 60.5 229.5 L 68.5 229.5 M 60.5 189.5 L 68.5 189.5 M 60.5 149.5 L 68.5 149.5 M 60.5 109.5 L 68.5 109.5 M 60.5 69.5 L 68.5 69.5" stroke-opacity="1" stroke-linejoin="bevel" stroke-miterlimit="10" stroke-dasharray=""/><path fill="none" stroke="rgb(0,0,0)" paint-order="fill" d="M 62.5 349.5 L 66.5 349.5 M 62.5 341.5 L 66.5 341.5 M 62.5 333.5 L 66.5 333.5 M 62.5 325.5 L 66.5 325.5 M 62.5 317.5 L 66.5 317.5 M 62.5 309.5 L 66.5 309.5 M 62.5 301.5 L 66.5 301.5 M 62.5 293.5 L 66.5 293.5 M 62.5 285.5 L 66.5 285.5 M 62.5 277.5 L 66.5 277.5 M 62.5 269.5 L 66.5 269.5 M 62.5 261.5 L 66.5 261.5 M 62.5 253.5 L 66.5 253.5 M 62.5 245.5 L 66.5 245.5 M 62.5 237.5 L 66.5 237.5 M 62.5 229.5 L 66.5 229.5 M 62.5 221.5 L 66.5 221.5 M 62.5 213.5 L 66.5 213.5 M 62.5 205.5 L 66.5 205.5 M 62.5 197.5 L 66.5 197.5 M 62.5 189.5 L 66.5 189.5 M 62.5 181.5 L 66.5 181.5 M 62.5 173.5 L 66.5 173.5 M 62.5 165.5 L 66.5 165.5 M 62.5 157.5 L 66.5 157.5 M 62.5 149.5 L 66.5 149.5 M 62.5 141.5 L 66.5 141.5 M 62.5 133.5 L 66.5 133.5 M 62.5 125.5 L 66.5 125.5 M 62.5 117.5 L 66.5 117.5 M 62.5 109.5 L 66.5 109.5 M 62.5 101.5 L 66.5 101.5 M 62.5 93.5 L 66.5 93.5 M 62.5 85.5 L 66.5 85.5 M 62.5 77.5 L 66.5 77.5 M 62.5 69.5 L 66.5 69.5 M 62.5 61.5 L 66.5 61.5 M 62.5 53.5 L 66.5 53.5 M 62.5 45.5 L 66.5 45.5 M 62.5 37.5 L 66.5 37.5" stroke-opacity="1" stroke-linejoin="bevel" stroke-miterlimit="10" stroke-dasharray=""/><text fill="rgb(68,68,68)" stroke="none" font-family="helvetica" font-size="11px" font-style="normal" font-weight="normal" text-decoration="normal" x="0" y="0" text-anchor="end" dominant-baseline="central" transform="matrix(1, 0, 0, 1, 55.5, 349.5)" fill-opacity="1">82.0%</text><text fill="rgb(68,68,68)" stroke="none" font-family="helvetica" font-size="11px" font-style="normal" font-weight="normal" text-decoration="normal" x="0" y="0" text-anchor="end" dominant-baseline="central" transform="matrix(1, 0, 0, 1, 55.5, 309.5)" fill-opacity="1">84.0%</text><text fill="rgb(68,68,68)" stroke="none" font-family="helvetica" font-size="11px" font-style="normal" font-weight="normal" text-decoration="normal" x="0" y="0" text-anchor="end" dominant-baseline="central" transform="matrix(1, 0, 0, 1, 55.5, 269.5)" fill-opacity="1">86.0%</text><text fill="rgb(68,68,68)" stroke="none" font-family="helvetica" font-size="11px" font-style="normal" font-weight="normal" text-decoration="normal" x="0" y="0" text-anchor="end" dominant-baseline="central" transform="matrix(1, 0, 0, 1, 55.5, 229.5)" fill-opacity="1">88.0%</text><text fill="rgb(68,68,68)" stroke="none" font-family="helvetica" font-size="11px" font-style="normal" font-weight="normal" text-decoration="normal" x="0" y="0" text-anchor="end" dominant-baseline="central" transform="matrix(1, 0, 0, 1, 55.5, 189.5)" fill-opacity="1">90.0%</text><text fill="rgb(68,68,68)" stroke="none" font-family="helvetica" font-size="11px" font-style="normal" font-weight="normal" text-decoration="normal" x="0" y="0" text-anchor="end" dominant-baseline="central" transform="matrix(1, 0, 0, 1, 55.5, 149.5)" fill-opacity="1">92.0%</text><text fill="rgb(68,68,68)" stroke="none" font-family="helvetica" font-size="11px" font-style="normal" font-weight="normal" text-decoration="normal" x="0" y="0" text-anchor="end" dominant-baseline="central" transform="matrix(1, 0, 0, 1, 55.5, 109.5)" fill-opacity="1">94.0%</text><text fill="rgb(68,68,68)" stroke="none" font-family="helvetica" font-size="11px" font-style="normal" font-weight="normal" text-decoration="normal" x="0" y="0" text-anchor="end" dominant-baseline="central" transform="matrix(1, 0, 0, 1, 55.5, 69.5)" fill-opacity="1">96.0%</text><text fill="rgb(68,68,68)" stroke="none" font-family="helvetica" font-size="13px" font-style="italic" font-weight="normal" text-decoration="normal" x="0" y="0" text-anchor="middle" dominant-baseline="alphabetic" transform="matrix(6.123233995736766e-17, -1, 1, 6.123233995736766e-17, 16.5, 193.5)" fill-opacity="1">AUROC</text><path fill="none" stroke="none"/><text fill="rgb(68,68,68)" stroke="none" font-family="helvetica" font-size="11pt" font-style="normal" font-weight="bold" text-decoration="normal" x="0" y="0" text-anchor="middle" dominant-baseline="text-after-edge" transform="matrix(1, 0, 0, 1, 418.5, 26.5)" fill-opacity="1">Convergence Plot</text></svg>