<svg version="1.1" xmlns="http://www.w3.org/2000/svg" xmlns:xlink="http://www.w3.org/1999/xlink" width="800" height="400"><defs><clipPath id="ozzreFZbCWTW"><path fill="none" stroke="none" d="M 66.5 31.5 L 770.5 31.5 L 770.5 355.5 L 66.5 355.5 L 66.5 31.5"/></clipPath><clipPath id="zJgWdAQwlRzb"><path fill="none" stroke="none" d="M 66.5 31.5 L 770.5 31.5 L 770.5 355.5 L 66.5 355.5 L 66.5 31.5"/></clipPath><clipPath id="VBFkSaydTJHB"><path fill="none" stroke="none" d="M 66.5 31.5 L 770.5 31.5 L 770.5 355.5 L 66.5 355.5 L 66.5 31.5"/></clipPath><clipPath id="qEMiLaomGrQy"><path fill="none" stroke="none" d="M 66.5 31.5 L 770.5 31.5 L 770.5 355.5 L 66.5 355.5 L 66.5 31.5"/></clipPath><clipPath id="VOLEIXGaKMlO"><path fill="none" stroke="none" d="M 66.5 31.5 L 770.5 31.5 L 770.5 355.5 L 66.5 355.5 L 66.5 31.5"/></clipPath><clipPath id="FarZNNepGTEc"><path fill="none" stroke="none" d="M 66.5 31.5 L 770.5 31.5 L 770.5 355.5 L 66.5 355.5 L 66.5 31.5"/></clipPath></defs><path fill="rgb(255,255,255)" stroke="none" paint-order="stroke" d="M 0.5 0.5 L 800.5 0.5 L 800.5 400.5 L 0.5 400.5 L 0.5 0.5" fill-opacity="1"/><rect fill="#FFFFFF" stroke="none" x="66" y="31" width="704" height="324" transform="matrix(1, 0, 0, 1, 0.5, 0.5)"/><path fill="rgb(255,255,255)" stroke="none" paint-order="stroke" d="M 66.5 31.5 L 770.5 31.5 L 770.5 355.5 L 66.5 355.5 L 66.5 31.5" fill-opacity="1"/><path fill="none" stroke="rgb(229,229,229)" paint-order="fill" d="M 66.5 31.5 L 770.5 31.5 L 770.5 355.5 L 66.5 355.5 L 66.5 31.5" stroke-opacity="1" stroke-linejoin="bevel" stroke-miterlimit="10" stroke-dasharray=""/><path fill="none" stroke="rgb(229,229,229)" paint-order="fill" d="M 66.5 340.5 L 770.5 340.5 M 66.5 287.5 L 770.5 287.5 M 66.5 233.5 L 770.5 233.5 M 66.5 180.5 L 770.5 180.5 M 66.5 127.5 L 770.5 127.5 M 66.5 74.5 L 770.5 74.5" stroke-opacity="1" stroke-linejoin="bevel" stroke-miterlimit="10" stroke-dasharray="" clip-path="url(#zJgWdAQwlRzb)"/><path fill="none" stroke="none"/><path fill="none" stroke="rgb(255,127,80)" paint-order="fill" d="M 738.5 49.12615966796875 L 709.2479248046875 54.97719192504883 L 707.3484497070312 48.541053771972656 L 693.3555297851562 66.5462646484375 L 670.6883544921875 68.9930419921875 L 621.2384033203125 59.578285217285156 L 613.0706176757812 47.9293212890625 L 547.2218017578125 46.227272033691406 L 506.6361389160156 48.88679122924805 L 482.3860168457031 75.40254974365234 L 476.8775329589844 52.716514587402344 L 444.0797424316406 152.55615234375 L 431.73309326171875 53.620880126953125 L 397.60565185546875 166.86447143554688 L 383.3595275878906 84.84394073486328 L 363.0350341796875 65.9611587524414 L 306.3670349121094 53.99309158325195 L 282.5601501464844 155.88067626953125 L 261.7924499511719 161.67843627929688 L 228.67807006835938 254.70957946777344 L 224.49920654296875 51.54631042480469 L 208.16363525390625 200.8269500732422 L 194.10743713378906 77.90259552001953 L 172.89651489257812 73.40787506103516 L 167.5779571533203 135.69451904296875 L 168.52769470214844 340.7727355957031 L 128.51187133789062 82.60989379882812 L 100.08290100097656 84.01947021484375 L 98.9432144165039 57.05160903930664 L 98.5 136.7849884033203" stroke-opacity="1" stroke-linejoin="bevel" stroke-miterlimit="10" stroke-width="1.5" stroke-dasharray="" clip-path="url(#VBFkSaydTJHB)"/><path fill="none" stroke="none"/><path fill="rgb(255,255,255)" stroke="rgb(255,127,80)" paint-order="fill" d="M 740.5 49.12615966796875 A 2 2 0 1 1 740.4999990000001 49.124159668302084" fill-opacity="1" clip-path="url(#qEMiLaomGrQy)" stroke-opacity="1" stroke-linejoin="bevel" stroke-miterlimit="10" stroke-width="1.5" stroke-dasharray=""/><path fill="rgb(255,255,255)" stroke="rgb(255,127,80)" paint-order="fill" d="M 711.2479248046875 54.97719192504883 A 2 2 0 1 1 711.2479238046876 54.97519192538216" fill-opacity="1" clip-path="url(#qEMiLaomGrQy)" stroke-opacity="1" stroke-linejoin="bevel" stroke-miterlimit="10" stroke-width="1.5" stroke-dasharray=""/><path fill="rgb(255,255,255)" stroke="rgb(255,127,80)" paint-order="fill" d="M 709.3484497070312 48.541053771972656 A 2 2 0 1 1 709.3484487070314 48.53905377230599" fill-opacity="1" clip-path="url(#qEMiLaomGrQy)" stroke-opacity="1" stroke-linejoin="bevel" stroke-miterlimit="10" stroke-width="1.5" stroke-dasharray=""/><path fill="rgb(255,255,255)" stroke="rgb(255,127,80)" paint-order="fill" d="M 695.3555297851562 66.5462646484375 A 2 2 0 1 1 695.3555287851564 66.54426464877083" fill-opacity="1" clip-path="url(#qEMiLaomGrQy)" stroke-opacity="1" stroke-linejoin="bevel" stroke-miterlimit="10" stroke-width="1.5" stroke-dasharray=""/><path fill="rgb(255,255,255)" stroke="rgb(255,127,80)" paint-order="fill" d="M 672.6883544921875 68.9930419921875 A 2 2 0 1 1 672.6883534921876 68.99104199252083" fill-opacity="1" clip-path="url(#qEMiLaomGrQy)" stroke-opacity="1" stroke-linejoin="bevel" stroke-miterlimit="10" stroke-width="1.5" stroke-dasharray=""/><path fill="rgb(255,255,255)" stroke="rgb(255,127,80)" paint-order="fill" d="M 623.2384033203125 59.578285217285156 A 2 2 0 1 1 623.2384023203126 59.57628521761849" fill-opacity="1" clip-path="url(#qEMiLaomGrQy)" stroke-opacity="1" stroke-linejoin="bevel" stroke-miterlimit="10" stroke-width="1.5" stroke-dasharray=""/><path fill="rgb(255,255,255)" stroke="rgb(255,127,80)" paint-order="fill" d="M 615.0706176757812 47.9293212890625 A 2 2 0 1 1 615.0706166757814 47.927321289395834" fill-opacity="1" clip-path="url(#qEMiLaomGrQy)" stroke-opacity="1" stroke-linejoin="bevel" stroke-miterlimit="10" stroke-width="1.5" stroke-dasharray=""/><path fill="rgb(255,255,255)" stroke="rgb(255,127,80)" paint-order="fill" d="M 549.2218017578125 46.227272033691406 A 2 2 0 1 1 549.2218007578126 46.22527203402474" fill-opacity="1" clip-path="url(#qEMiLaomGrQy)" stroke-opacity="1" stroke-linejoin="bevel" stroke-miterlimit="10" stroke-width="1.5" stroke-dasharray=""/><path fill="rgb(255,255,255)" stroke="rgb(255,127,80)" paint-order="fill" d="M 508.6361389160156 48.88679122924805 A 2 2 0 1 1 508.6361379160157 48.88479122958138" fill-opacity="1" clip-path="url(#qEMiLaomGrQy)" stroke-opacity="1" stroke-linejoin="bevel" stroke-miterlimit="10" stroke-width="1.5" stroke-dasharray=""/><path fill="rgb(255,255,255)" stroke="rgb(255,127,80)" paint-order="fill" d="M 484.3860168457031 75.40254974365234 A 2 2 0 1 1 484.3860158457032 75.40054974398568" fill-opacity="1" clip-path="url(#qEMiLaomGrQy)" stroke-opacity="1" stroke-linejoin="bevel" stroke-miterlimit="10" stroke-width="1.5" stroke-dasharray=""/><path fill="rgb(255,255,255)" stroke="rgb(255,127,80)" paint-order="fill" d="M 478.8775329589844 52.716514587402344 A 2 2 0 1 1 478.87753195898443 52.71451458773568" fill-opacity="1" clip-path="url(#qEMiLaomGrQy)" stroke-opacity="1" stroke-linejoin="bevel" stroke-miterlimit="10" stroke-width="1.5" stroke-dasharray=""/><path fill="rgb(255,255,255)" stroke="rgb(255,127,80)" paint-order="fill" d="M 446.0797424316406 152.55615234375 A 2 2 0 1 1 446.0797414316407 152.55415234408332" fill-opacity="1" clip-path="url(#qEMiLaomGrQy)" stroke-opacity="1" stroke-linejoin="bevel" stroke-miterlimit="10" stroke-width="1.5" stroke-dasharray=""/><path fill="rgb(255,255,255)" stroke="rgb(255,127,80)" paint-order="fill" d="M 433.73309326171875 53.620880126953125 A 2 2 0 1 1 433.7330922617188 53.61888012728646" fill-opacity="1" clip-path="url(#qEMiLaomGrQy)" stroke-opacity="1" stroke-linejoin="bevel" stroke-miterlimit="10" stroke-width="1.5" stroke-dasharray=""/><path fill="rgb(255,255,255)" stroke="rgb(255,127,80)" paint-order="fill" d="M 399.60565185546875 166.86447143554688 A 2 2 0 1 1 399.6056508554688 166.8624714358802" fill-opacity="1" clip-path="url(#qEMiLaomGrQy)" stroke-opacity="1" stroke-linejoin="bevel" stroke-miterlimit="10" stroke-width="1.5" stroke-dasharray=""/><path fill="rgb(255,255,255)" stroke="rgb(255,127,80)" paint-order="fill" d="M 385.3595275878906 84.84394073486328 A 2 2 0 1 1 385.3595265878907 84.84194073519662" fill-opacity="1" clip-path="url(#qEMiLaomGrQy)" stroke-opacity="1" stroke-linejoin="bevel" stroke-miterlimit="10" stroke-width="1.5" stroke-dasharray=""/><path fill="rgb(255,255,255)" stroke="rgb(255,127,80)" paint-order="fill" d="M 365.0350341796875 65.9611587524414 A 2 2 0 1 1 365.03503317968756 65.95915875277474" fill-opacity="1" clip-path="url(#qEMiLaomGrQy)" stroke-opacity="1" stroke-linejoin="bevel" stroke-miterlimit="10" stroke-width="1.5" stroke-dasharray=""/><path fill="rgb(255,255,255)" stroke="rgb(255,127,80)" paint-order="fill" d="M 308.3670349121094 53.99309158325195 A 2 2 0 1 1 308.36703391210943 53.99109158358529" fill-opacity="1" clip-path="url(#qEMiLaomGrQy)" stroke-opacity="1" stroke-linejoin="bevel" stroke-miterlimit="10" stroke-width="1.5" stroke-dasharray=""/><path fill="rgb(255,255,255)" stroke="rgb(255,127,80)" paint-order="fill" d="M 284.5601501464844 155.88067626953125 A 2 2 0 1 1 284.56014914648443 155.87867626986457" fill-opacity="1" clip-path="url(#qEMiLaomGrQy)" stroke-opacity="1" stroke-linejoin="bevel" stroke-miterlimit="10" stroke-width="1.5" stroke-dasharray=""/><path fill="rgb(255,255,255)" stroke="rgb(255,127,80)" paint-order="fill" d="M 263.7924499511719 161.67843627929688 A 2 2 0 1 1 263.79244895117193 161.6764362796302" fill-opacity="1" clip-path="url(#qEMiLaomGrQy)" stroke-opacity="1" stroke-linejoin="bevel" stroke-miterlimit="10" stroke-width="1.5" stroke-dasharray=""/><path fill="rgb(255,255,255)" stroke="rgb(255,127,80)" paint-order="fill" d="M 230.67807006835938 254.70957946777344 A 2 2 0 1 1 230.67806906835946 254.70757946810676" fill-opacity="1" clip-path="url(#qEMiLaomGrQy)" stroke-opacity="1" stroke-linejoin="bevel" stroke-miterlimit="10" stroke-width="1.5" stroke-dasharray=""/><path fill="rgb(255,255,255)" stroke="rgb(255,127,80)" paint-order="fill" d="M 226.49920654296875 51.54631042480469 A 2 2 0 1 1 226.49920554296884 51.54431042513802" fill-opacity="1" clip-path="url(#qEMiLaomGrQy)" stroke-opacity="1" stroke-linejoin="bevel" stroke-miterlimit="10" stroke-width="1.5" stroke-dasharray=""/><path fill="rgb(255,255,255)" stroke="rgb(255,127,80)" paint-order="fill" d="M 210.16363525390625 200.8269500732422 A 2 2 0 1 1 210.16363425390634 200.8249500735755" fill-opacity="1" clip-path="url(#qEMiLaomGrQy)" stroke-opacity="1" stroke-linejoin="bevel" stroke-miterlimit="10" stroke-width="1.5" stroke-dasharray=""/><path fill="rgb(255,255,255)" stroke="rgb(255,127,80)" paint-order="fill" d="M 196.10743713378906 77.90259552001953 A 2 2 0 1 1 196.10743613378915 77.90059552035287" fill-opacity="1" clip-path="url(#qEMiLaomGrQy)" stroke-opacity="1" stroke-linejoin="bevel" stroke-miterlimit="10" stroke-width="1.5" stroke-dasharray=""/><path fill="rgb(255,255,255)" stroke="rgb(255,127,80)" paint-order="fill" d="M 174.89651489257812 73.40787506103516 A 2 2 0 1 1 174.8965138925782 73.40587506136849" fill-opacity="1" clip-path="url(#qEMiLaomGrQy)" stroke-opacity="1" stroke-linejoin="bevel" stroke-miterlimit="10" stroke-width="1.5" stroke-dasharray=""/><path fill="rgb(255,255,255)" stroke="rgb(255,127,80)" paint-order="fill" d="M 169.5779571533203 135.69451904296875 A 2 2 0 1 1 169.5779561533204 135.69251904330207" fill-opacity="1" clip-path="url(#qEMiLaomGrQy)" stroke-opacity="1" stroke-linejoin="bevel" stroke-miterlimit="10" stroke-width="1.5" stroke-dasharray=""/><path fill="rgb(255,255,255)" stroke="rgb(255,127,80)" paint-order="fill" d="M 170.52769470214844 340.7727355957031 A 2 2 0 1 1 170.52769370214853 340.77073559603645" fill-opacity="1" clip-path="url(#qEMiLaomGrQy)" stroke-opacity="1" stroke-linejoin="bevel" stroke-miterlimit="10" stroke-width="1.5" stroke-dasharray=""/><path fill="rgb(255,255,255)" stroke="rgb(255,127,80)" paint-order="fill" d="M 130.51187133789062 82.60989379882812 A 2 2 0 1 1 130.5118703378907 82.60789379916146" fill-opacity="1" clip-path="url(#qEMiLaomGrQy)" stroke-opacity="1" stroke-linejoin="bevel" stroke-miterlimit="10" stroke-width="1.5" stroke-dasharray=""/><path fill="rgb(255,255,255)" stroke="rgb(255,127,80)" paint-order="fill" d="M 102.08290100097656 84.01947021484375 A 2 2 0 1 1 102.08290000097665 84.01747021517708" fill-opacity="1" clip-path="url(#qEMiLaomGrQy)" stroke-opacity="1" stroke-linejoin="bevel" stroke-miterlimit="10" stroke-width="1.5" stroke-dasharray=""/><path fill="rgb(255,255,255)" stroke="rgb(255,127,80)" paint-order="fill" d="M 100.9432144165039 57.05160903930664 A 2 2 0 1 1 100.943213416504 57.049609039639975" fill-opacity="1" clip-path="url(#qEMiLaomGrQy)" stroke-opacity="1" stroke-linejoin="bevel" stroke-miterlimit="10" stroke-width="1.5" stroke-dasharray=""/><path fill="rgb(255,255,255)" stroke="rgb(255,127,80)" paint-order="fill" d="M 100.5 136.7849884033203 A 2 2 0 1 1 100.49999900000009 136.78298840365363" fill-opacity="1" clip-path="url(#qEMiLaomGrQy)" stroke-opacity="1" stroke-linejoin="bevel" stroke-miterlimit="10" stroke-width="1.5" stroke-dasharray=""/><path fill="none" stroke="rgb(0,0,0)" paint-order="fill" d="M 66.5 355.5 L 770.5 355.5" stroke-opacity="1" stroke-linejoin="bevel" stroke-miterlimit="10" stroke-dasharray=""/><path fill="none" stroke="rgb(0,0,0)" paint-order="fill" d="M 182.5 361.5 L 182.5 353.5 M 410.5 361.5 L 410.5 353.5 M 638.5 361.5 L 638.5 353.5" stroke-opacity="1" stroke-linejoin="bevel" stroke-miterlimit="10" stroke-dasharray=""/><path fill="none" stroke="rgb(0,0,0)" paint-order="fill" d="" stroke-opacity="1" stroke-linejoin="bevel" stroke-miterlimit="10" stroke-dasharray=""/><text fill="rgb(68,68,68)" stroke="none" font-family="helvetica" font-size="11px" font-style="normal" font-weight="normal" text-decoration="normal" x="0" y="0" text-anchor="middle" dominant-baseline="hanging" transform="matrix(1, 0, 0, 1, 182.5, 366.5)" fill-opacity="1">2h</text><text fill="rgb(68,68,68)" stroke="none" font-family="helvetica" font-size="11px" font-style="normal" font-weight="normal" text-decoration="normal" x="0" y="0" text-anchor="middle" dominant-baseline="hanging" transform="matrix(1, 0, 0, 1, 410.5, 366.5)" fill-opacity="1">3h</text><text fill="rgb(68,68,68)" stroke="none" font-family="helvetica" font-size="11px" font-style="normal" font-weight="normal" text-decoration="normal" x="0" y="0" text-anchor="middle" dominant-baseline="hanging" transform="matrix(1, 0, 0, 1, 638.5, 366.5)" fill-opacity="1">4h</text><text fill="rgb(68,68,68)" stroke="none" font-family="helvetica" font-size="13px" font-style="italic" font-weight="normal" text-decoration="normal" x="0" y="0" text-anchor="middle" dominant-baseline="hanging" transform="matrix(1, 0, 0, 1, 418.5, 384.5)" fill-opacity="1">Training Start Time</text><path fill="none" stroke="rgb(0,0,0)" paint-order="fill" d="M 66.5 355.5 L 66.5 31.5" stroke-opacity="1" stroke-linejoin="bevel" stroke-miterlimit="10" stroke-dasharray=""/><path fill="none" stroke="rgb(0,0,0)" paint-order="fill" d="M 60.5 340.5 L 68.5 340.5 M 60.5 287.5 L 68.5 287.5 M 60.5 233.5 L 68.5 233.5 M 60.5 180.5 L 68.5 180.5 M 60.5 127.5 L 68.5 127.5 M 60.5 74.5 L 68.5 74.5" stroke-opacity="1" stroke-linejoin="bevel" stroke-miterlimit="10" stroke-dasharray=""/><path fill="none" stroke="rgb(0,0,0)" paint-order="fill" d="M 62.5 350.5 L 66.5 350.5 M 62.5 340.5 L 66.5 340.5 M 62.5 329.5 L 66.5 329.5 M 62.5 319.5 L 66.5 319.5 M 62.5 308.5 L 66.5 308.5 M 62.5 297.5 L 66.5 297.5 M 62.5 287.5 L 66.5 287.5 M 62.5 276.5 L 66.5 276.5 M 62.5 265.5 L 66.5 265.5 M 62.5 255.5 L 66.5 255.5 M 62.5 244.5 L 66.5 244.5 M 62.5 233.5 L 66.5 233.5 M 62.5 223.5 L 66.5 223.5 M 62.5 212.5 L 66.5 212.5 M 62.5 202.5 L 66.5 202.5 M 62.5 191.5 L 66.5 191.5 M 62.5 180.5 L 66.5 180.5 M 62.5 170.5 L 66.5 170.5 M 62.5 159.5 L 66.5 159.5 M 62.5 148.5 L 66.5 148.5 M 62.5 138.5 L 66.5 138.5 M 62.5 127.5 L 66.5 127.5 M 62.5 116.5 L 66.5 116.5 M 62.5 106.5 L 66.5 106.5 M 62.5 95.5 L 66.5 95.5 M 62.5 85.5 L 66.5 85.5 M 62.5 74.5 L 66.5 74.5 M 62.5 63.5 L 66.5 63.5 M 62.5 53.5 L 66.5 53.5 M 62.5 42.5 L 66.5 42.5 M 62.5 31.5 L 66.5 31.5" stroke-opacity="1" stroke-linejoin="bevel" stroke-miterlimit="10" stroke-dasharray=""/><text fill="rgb(68,68,68)" stroke="none" font-family="helvetica" font-size="11px" font-style="normal" font-weight="normal" text-decoration="normal" x="0" y="0" text-anchor="end" dominant-baseline="central" transform="matrix(1, 0, 0, 1, 55.5, 340.5)" fill-opacity="1">86.0%</text><text fill="rgb(68,68,68)" stroke="none" font-family="helvetica" font-size="11px" font-style="normal" font-weight="normal" text-decoration="normal" x="0" y="0" text-anchor="end" dominant-baseline="central" transform="matrix(1, 0, 0, 1, 55.5, 287.5)" fill-opacity="1">88.0%</text><text fill="rgb(68,68,68)" stroke="none" font-family="helvetica" font-size="11px" font-style="normal" font-weight="normal" text-decoration="normal" x="0" y="0" text-anchor="end" dominant-baseline="central" transform="matrix(1, 0, 0, 1, 55.5, 233.5)" fill-opacity="1">90.0%</text><text fill="rgb(68,68,68)" stroke="none" font-family="helvetica" font-size="11px" font-style="normal" font-weight="normal" text-decoration="normal" x="0" y="0" text-anchor="end" dominant-baseline="central" transform="matrix(1, 0, 0, 1, 55.5, 180.5)" fill-opacity="1">92.0%</text><text fill="rgb(68,68,68)" stroke="none" font-family="helvetica" font-size="11px" font-style="normal" font-weight="normal" text-decoration="normal" x="0" y="0" text-anchor="end" dominant-baseline="central" transform="matrix(1, 0, 0, 1, 55.5, 127.5)" fill-opacity="1">94.0%</text><text fill="rgb(68,68,68)" stroke="none" font-family="helvetica" font-size="11px" font-style="normal" font-weight="normal" text-decoration="normal" x="0" y="0" text-anchor="end" dominant-baseline="central" transform="matrix(1, 0, 0, 1, 55.5, 74.5)" fill-opacity="1">96.0%</text><text fill="rgb(68,68,68)" stroke="none" font-family="helvetica" font-size="13px" font-style="italic" font-weight="normal" text-decoration="normal" x="0" y="0" text-anchor="middle" dominant-baseline="alphabetic" transform="matrix(6.123233995736766e-17, -1, 1, 6.123233995736766e-17, 16.5, 193.5)" fill-opacity="1">AUROC</text><path fill="none" stroke="none"/><text fill="rgb(68,68,68)" stroke="none" font-family="helvetica" font-size="11pt" font-style="normal" font-weight="bold" text-decoration="normal" x="0" y="0" text-anchor="middle" dominant-baseline="text-after-edge" transform="matrix(1, 0, 0, 1, 418.5, 26.5)" fill-opacity="1">Convergence Plot</text></svg>