<svg version="1.1" xmlns="http://www.w3.org/2000/svg" xmlns:xlink="http://www.w3.org/1999/xlink" width="800" height="400"><defs><clipPath id="zFWHnvvAsKyl"><path fill="none" stroke="none" d="M 66.5 31.5 L 770.5 31.5 L 770.5 355.5 L 66.5 355.5 L 66.5 31.5"/></clipPath><clipPath id="OfMsLtEzLhTU"><path fill="none" stroke="none" d="M 66.5 31.5 L 770.5 31.5 L 770.5 355.5 L 66.5 355.5 L 66.5 31.5"/></clipPath><clipPath id="QENGmTuKiWGe"><path fill="none" stroke="none" d="M 66.5 31.5 L 770.5 31.5 L 770.5 355.5 L 66.5 355.5 L 66.5 31.5"/></clipPath><clipPath id="TuWhshCTzhiD"><path fill="none" stroke="none" d="M 66.5 31.5 L 770.5 31.5 L 770.5 355.5 L 66.5 355.5 L 66.5 31.5"/></clipPath><clipPath id="SMUqFNoxsHzK"><path fill="none" stroke="none" d="M 66.5 31.5 L 770.5 31.5 L 770.5 355.5 L 66.5 355.5 L 66.5 31.5"/></clipPath><clipPath id="BfxJTgiZIlOD"><path fill="none" stroke="none" d="M 66.5 31.5 L 770.5 31.5 L 770.5 355.5 L 66.5 355.5 L 66.5 31.5"/></clipPath></defs><path fill="rgb(255,255,255)" stroke="none" paint-order="stroke" d="M 0.5 0.5 L 800.5 0.5 L 800.5 400.5 L 0.5 400.5 L 0.5 0.5" fill-opacity="1"/><rect fill="#FFFFFF" stroke="none" x="66" y="31" width="704" height="324" transform="matrix(1, 0, 0, 1, 0.5, 0.5)"/><path fill="rgb(255,255,255)" stroke="none" paint-order="stroke" d="M 66.5 31.5 L 770.5 31.5 L 770.5 355.5 L 66.5 355.5 L 66.5 31.5" fill-opacity="1"/><path fill="none" stroke="rgb(229,229,229)" paint-order="fill" d="M 66.5 31.5 L 770.5 31.5 L 770.5 355.5 L 66.5 355.5 L 66.5 31.5" stroke-opacity="1" stroke-linejoin="bevel" stroke-miterlimit="10" stroke-dasharray=""/><path fill="none" stroke="rgb(229,229,229)" paint-order="fill" d="M 66.5 354.5 L 770.5 354.5 M 66.5 295.5 L 770.5 295.5 M 66.5 235.5 L 770.5 235.5 M 66.5 176.5 L 770.5 176.5 M 66.5 116.5 L 770.5 116.5 M 66.5 57.5 L 770.5 57.5" stroke-opacity="1" stroke-linejoin="bevel" stroke-miterlimit="10" stroke-dasharray="" clip-path="url(#OfMsLtEzLhTU)"/><path fill="none" stroke="none"/><path fill="none" stroke="rgb(255,127,80)" paint-order="fill" d="M 737.8856201171875 78.75621032714844 L 738.5 60.08302307128906 L 628.83837890625 51.34138870239258 L 619.7255249023438 46.227272033691406 L 600.2710571289062 47.11908721923828 L 534.5867309570312 67.33841705322266 L 531.4637451171875 82.2646255493164 L 532.3853149414062 59.36949920654297 L 467.52008056640625 162.36851501464844 L 439.5671081542969 47.11908721923828 L 419.13995361328125 60.26166915893555 L 412.7916564941406 70.72809600830078 L 413.0988464355469 124.07078552246094 L 379.0023498535156 121.51372528076172 L 374.5483093261719 94.15845489501953 L 320.2294616699219 163.6172637939453 L 306.25299072265625 93.44493103027344 L 286.3377685546875 169.326171875 L 285.057861328125 281.5425109863281 L 238.2648162841797 139.2351837158203 L 200.27745056152344 183.2418212890625 L 197.05210876464844 168.85047912597656 L 164.54270935058594 129.60137939453125 L 156.45376586914062 84.22726440429688 L 146.6241455078125 92.85015106201172 L 145.90740966796875 304.3780822753906 L 131.0605926513672 340.7727355957031 L 98.9095687866211 149.4042205810547 L 98.5 91.89878845214844 L 99.83109283447266 191.80516052246094" stroke-opacity="1" stroke-linejoin="bevel" stroke-miterlimit="10" stroke-width="1.5" stroke-dasharray="" clip-path="url(#QENGmTuKiWGe)"/><path fill="none" stroke="none"/><path fill="rgb(255,255,255)" stroke="rgb(255,127,80)" paint-order="fill" d="M 739.8856201171875 78.75621032714844 A 2 2 0 1 1 739.8856191171876 78.75421032748177" fill-opacity="1" clip-path="url(#TuWhshCTzhiD)" stroke-opacity="1" stroke-linejoin="bevel" stroke-miterlimit="10" stroke-width="1.5" stroke-dasharray=""/><path fill="rgb(255,255,255)" stroke="rgb(255,127,80)" paint-order="fill" d="M 740.5 60.08302307128906 A 2 2 0 1 1 740.4999990000001 60.0810230716224" fill-opacity="1" clip-path="url(#TuWhshCTzhiD)" stroke-opacity="1" stroke-linejoin="bevel" stroke-miterlimit="10" stroke-width="1.5" stroke-dasharray=""/><path fill="rgb(255,255,255)" stroke="rgb(255,127,80)" paint-order="fill" d="M 630.83837890625 51.34138870239258 A 2 2 0 1 1 630.8383779062501 51.33938870272591" fill-opacity="1" clip-path="url(#TuWhshCTzhiD)" stroke-opacity="1" stroke-linejoin="bevel" stroke-miterlimit="10" stroke-width="1.5" stroke-dasharray=""/><path fill="rgb(255,255,255)" stroke="rgb(255,127,80)" paint-order="fill" d="M 621.7255249023438 46.227272033691406 A 2 2 0 1 1 621.7255239023439 46.22527203402474" fill-opacity="1" clip-path="url(#TuWhshCTzhiD)" stroke-opacity="1" stroke-linejoin="bevel" stroke-miterlimit="10" stroke-width="1.5" stroke-dasharray=""/><path fill="rgb(255,255,255)" stroke="rgb(255,127,80)" paint-order="fill" d="M 602.2710571289062 47.11908721923828 A 2 2 0 1 1 602.2710561289064 47.117087219571616" fill-opacity="1" clip-path="url(#TuWhshCTzhiD)" stroke-opacity="1" stroke-linejoin="bevel" stroke-miterlimit="10" stroke-width="1.5" stroke-dasharray=""/><path fill="rgb(255,255,255)" stroke="rgb(255,127,80)" paint-order="fill" d="M 536.5867309570312 67.33841705322266 A 2 2 0 1 1 536.5867299570314 67.33641705355599" fill-opacity="1" clip-path="url(#TuWhshCTzhiD)" stroke-opacity="1" stroke-linejoin="bevel" stroke-miterlimit="10" stroke-width="1.5" stroke-dasharray=""/><path fill="rgb(255,255,255)" stroke="rgb(255,127,80)" paint-order="fill" d="M 533.4637451171875 82.2646255493164 A 2 2 0 1 1 533.4637441171876 82.26262554964974" fill-opacity="1" clip-path="url(#TuWhshCTzhiD)" stroke-opacity="1" stroke-linejoin="bevel" stroke-miterlimit="10" stroke-width="1.5" stroke-dasharray=""/><path fill="rgb(255,255,255)" stroke="rgb(255,127,80)" paint-order="fill" d="M 534.3853149414062 59.36949920654297 A 2 2 0 1 1 534.3853139414064 59.3674992068763" fill-opacity="1" clip-path="url(#TuWhshCTzhiD)" stroke-opacity="1" stroke-linejoin="bevel" stroke-miterlimit="10" stroke-width="1.5" stroke-dasharray=""/><path fill="rgb(255,255,255)" stroke="rgb(255,127,80)" paint-order="fill" d="M 469.52008056640625 162.36851501464844 A 2 2 0 1 1 469.5200795664063 162.36651501498176" fill-opacity="1" clip-path="url(#TuWhshCTzhiD)" stroke-opacity="1" stroke-linejoin="bevel" stroke-miterlimit="10" stroke-width="1.5" stroke-dasharray=""/><path fill="rgb(255,255,255)" stroke="rgb(255,127,80)" paint-order="fill" d="M 441.5671081542969 47.11908721923828 A 2 2 0 1 1 441.56710715429693 47.117087219571616" fill-opacity="1" clip-path="url(#TuWhshCTzhiD)" stroke-opacity="1" stroke-linejoin="bevel" stroke-miterlimit="10" stroke-width="1.5" stroke-dasharray=""/><path fill="rgb(255,255,255)" stroke="rgb(255,127,80)" paint-order="fill" d="M 421.13995361328125 60.26166915893555 A 2 2 0 1 1 421.1399526132813 60.25966915926888" fill-opacity="1" clip-path="url(#TuWhshCTzhiD)" stroke-opacity="1" stroke-linejoin="bevel" stroke-miterlimit="10" stroke-width="1.5" stroke-dasharray=""/><path fill="rgb(255,255,255)" stroke="rgb(255,127,80)" paint-order="fill" d="M 414.7916564941406 70.72809600830078 A 2 2 0 1 1 414.7916554941407 70.72609600863412" fill-opacity="1" clip-path="url(#TuWhshCTzhiD)" stroke-opacity="1" stroke-linejoin="bevel" stroke-miterlimit="10" stroke-width="1.5" stroke-dasharray=""/><path fill="rgb(255,255,255)" stroke="rgb(255,127,80)" paint-order="fill" d="M 415.0988464355469 124.07078552246094 A 2 2 0 1 1 415.09884543554693 124.06878552279427" fill-opacity="1" clip-path="url(#TuWhshCTzhiD)" stroke-opacity="1" stroke-linejoin="bevel" stroke-miterlimit="10" stroke-width="1.5" stroke-dasharray=""/><path fill="rgb(255,255,255)" stroke="rgb(255,127,80)" paint-order="fill" d="M 381.0023498535156 121.51372528076172 A 2 2 0 1 1 381.0023488535157 121.51172528109505" fill-opacity="1" clip-path="url(#TuWhshCTzhiD)" stroke-opacity="1" stroke-linejoin="bevel" stroke-miterlimit="10" stroke-width="1.5" stroke-dasharray=""/><path fill="rgb(255,255,255)" stroke="rgb(255,127,80)" paint-order="fill" d="M 376.5483093261719 94.15845489501953 A 2 2 0 1 1 376.54830832617193 94.15645489535287" fill-opacity="1" clip-path="url(#TuWhshCTzhiD)" stroke-opacity="1" stroke-linejoin="bevel" stroke-miterlimit="10" stroke-width="1.5" stroke-dasharray=""/><path fill="rgb(255,255,255)" stroke="rgb(255,127,80)" paint-order="fill" d="M 322.2294616699219 163.6172637939453 A 2 2 0 1 1 322.22946066992193 163.61526379427863" fill-opacity="1" clip-path="url(#TuWhshCTzhiD)" stroke-opacity="1" stroke-linejoin="bevel" stroke-miterlimit="10" stroke-width="1.5" stroke-dasharray=""/><path fill="rgb(255,255,255)" stroke="rgb(255,127,80)" paint-order="fill" d="M 308.25299072265625 93.44493103027344 A 2 2 0 1 1 308.2529897226563 93.44293103060677" fill-opacity="1" clip-path="url(#TuWhshCTzhiD)" stroke-opacity="1" stroke-linejoin="bevel" stroke-miterlimit="10" stroke-width="1.5" stroke-dasharray=""/><path fill="rgb(255,255,255)" stroke="rgb(255,127,80)" paint-order="fill" d="M 288.3377685546875 169.326171875 A 2 2 0 1 1 288.33776755468756 169.32417187533332" fill-opacity="1" clip-path="url(#TuWhshCTzhiD)" stroke-opacity="1" stroke-linejoin="bevel" stroke-miterlimit="10" stroke-width="1.5" stroke-dasharray=""/><path fill="rgb(255,255,255)" stroke="rgb(255,127,80)" paint-order="fill" d="M 287.057861328125 281.5425109863281 A 2 2 0 1 1 287.05786032812506 281.54051098666145" fill-opacity="1" clip-path="url(#TuWhshCTzhiD)" stroke-opacity="1" stroke-linejoin="bevel" stroke-miterlimit="10" stroke-width="1.5" stroke-dasharray=""/><path fill="rgb(255,255,255)" stroke="rgb(255,127,80)" paint-order="fill" d="M 240.2648162841797 139.2351837158203 A 2 2 0 1 1 240.26481528417978 139.23318371615363" fill-opacity="1" clip-path="url(#TuWhshCTzhiD)" stroke-opacity="1" stroke-linejoin="bevel" stroke-miterlimit="10" stroke-width="1.5" stroke-dasharray=""/><path fill="rgb(255,255,255)" stroke="rgb(255,127,80)" paint-order="fill" d="M 202.27745056152344 183.2418212890625 A 2 2 0 1 1 202.27744956152353 183.23982128939582" fill-opacity="1" clip-path="url(#TuWhshCTzhiD)" stroke-opacity="1" stroke-linejoin="bevel" stroke-miterlimit="10" stroke-width="1.5" stroke-dasharray=""/><path fill="rgb(255,255,255)" stroke="rgb(255,127,80)" paint-order="fill" d="M 199.05210876464844 168.85047912597656 A 2 2 0 1 1 199.05210776464853 168.84847912630988" fill-opacity="1" clip-path="url(#TuWhshCTzhiD)" stroke-opacity="1" stroke-linejoin="bevel" stroke-miterlimit="10" stroke-width="1.5" stroke-dasharray=""/><path fill="rgb(255,255,255)" stroke="rgb(255,127,80)" paint-order="fill" d="M 166.54270935058594 129.60137939453125 A 2 2 0 1 1 166.54270835058603 129.59937939486457" fill-opacity="1" clip-path="url(#TuWhshCTzhiD)" stroke-opacity="1" stroke-linejoin="bevel" stroke-miterlimit="10" stroke-width="1.5" stroke-dasharray=""/><path fill="rgb(255,255,255)" stroke="rgb(255,127,80)" paint-order="fill" d="M 158.45376586914062 84.22726440429688 A 2 2 0 1 1 158.4537648691407 84.22526440463021" fill-opacity="1" clip-path="url(#TuWhshCTzhiD)" stroke-opacity="1" stroke-linejoin="bevel" stroke-miterlimit="10" stroke-width="1.5" stroke-dasharray=""/><path fill="rgb(255,255,255)" stroke="rgb(255,127,80)" paint-order="fill" d="M 148.6241455078125 92.85015106201172 A 2 2 0 1 1 148.6241445078126 92.84815106234505" fill-opacity="1" clip-path="url(#TuWhshCTzhiD)" stroke-opacity="1" stroke-linejoin="bevel" stroke-miterlimit="10" stroke-width="1.5" stroke-dasharray=""/><path fill="rgb(255,255,255)" stroke="rgb(255,127,80)" paint-order="fill" d="M 147.90740966796875 304.3780822753906 A 2 2 0 1 1 147.90740866796884 304.37608227572395" fill-opacity="1" clip-path="url(#TuWhshCTzhiD)" stroke-opacity="1" stroke-linejoin="bevel" stroke-miterlimit="10" stroke-width="1.5" stroke-dasharray=""/><path fill="rgb(255,255,255)" stroke="rgb(255,127,80)" paint-order="fill" d="M 133.0605926513672 340.7727355957031 A 2 2 0 1 1 133.06059165136728 340.77073559603645" fill-opacity="1" clip-path="url(#TuWhshCTzhiD)" stroke-opacity="1" stroke-linejoin="bevel" stroke-miterlimit="10" stroke-width="1.5" stroke-dasharray=""/><path fill="rgb(255,255,255)" stroke="rgb(255,127,80)" paint-order="fill" d="M 100.9095687866211 149.4042205810547 A 2 2 0 1 1 100.90956778662118 149.402220581388" fill-opacity="1" clip-path="url(#TuWhshCTzhiD)" stroke-opacity="1" stroke-linejoin="bevel" stroke-miterlimit="10" stroke-width="1.5" stroke-dasharray=""/><path fill="rgb(255,255,255)" stroke="rgb(255,127,80)" paint-order="fill" d="M 100.5 91.89878845214844 A 2 2 0 1 1 100.49999900000009 91.89678845248177" fill-opacity="1" clip-path="url(#TuWhshCTzhiD)" stroke-opacity="1" stroke-linejoin="bevel" stroke-miterlimit="10" stroke-width="1.5" stroke-dasharray=""/><path fill="rgb(255,255,255)" stroke="rgb(255,127,80)" paint-order="fill" d="M 101.83109283447266 191.80516052246094 A 2 2 0 1 1 101.83109183447274 191.80316052279426" fill-opacity="1" clip-path="url(#TuWhshCTzhiD)" stroke-opacity="1" stroke-linejoin="bevel" stroke-miterlimit="10" stroke-width="1.5" stroke-dasharray=""/><path fill="none" stroke="rgb(0,0,0)" paint-order="fill" d="M 66.5 355.5 L 770.5 355.5" stroke-opacity="1" stroke-linejoin="bevel" stroke-miterlimit="10" stroke-dasharray=""/><path fill="none" stroke="rgb(0,0,0)" paint-order="fill" d="M 166.5 361.5 L 166.5 353.5 M 350.5 361.5 L 350.5 353.5 M 534.5 361.5 L 534.5 353.5 M 719.5 361.5 L 719.5 353.5" stroke-opacity="1" stroke-linejoin="bevel" stroke-miterlimit="10" stroke-dasharray=""/><path fill="none" stroke="rgb(0,0,0)" paint-order="fill" d="" stroke-opacity="1" stroke-linejoin="bevel" stroke-miterlimit="10" stroke-dasharray=""/><text fill="rgb(68,68,68)" stroke="none" font-family="helvetica" font-size="11px" font-style="normal" font-weight="normal" text-decoration="normal" x="0" y="0" text-anchor="middle" dominant-baseline="hanging" transform="matrix(1, 0, 0, 1, 166.5, 366.5)" fill-opacity="1">4h</text><text fill="rgb(68,68,68)" stroke="none" font-family="helvetica" font-size="11px" font-style="normal" font-weight="normal" text-decoration="normal" x="0" y="0" text-anchor="middle" dominant-baseline="hanging" transform="matrix(1, 0, 0, 1, 350.5, 366.5)" fill-opacity="1">5h</text><text fill="rgb(68,68,68)" stroke="none" font-family="helvetica" font-size="11px" font-style="normal" font-weight="normal" text-decoration="normal" x="0" y="0" text-anchor="middle" dominant-baseline="hanging" transform="matrix(1, 0, 0, 1, 534.5, 366.5)" fill-opacity="1">6h</text><text fill="rgb(68,68,68)" stroke="none" font-family="helvetica" font-size="11px" font-style="normal" font-weight="normal" text-decoration="normal" x="0" y="0" text-anchor="middle" dominant-baseline="hanging" transform="matrix(1, 0, 0, 1, 719.5, 366.5)" fill-opacity="1">7h</text><text fill="rgb(68,68,68)" stroke="none" font-family="helvetica" font-size="13px" font-style="italic" font-weight="normal" text-decoration="normal" x="0" y="0" text-anchor="middle" dominant-baseline="hanging" transform="matrix(1, 0, 0, 1, 418.5, 384.5)" fill-opacity="1">Training Start Time</text><path fill="none" stroke="rgb(0,0,0)" paint-order="fill" d="M 66.5 355.5 L 66.5 31.5" stroke-opacity="1" stroke-linejoin="bevel" stroke-miterlimit="10" stroke-dasharray=""/><path fill="none" stroke="rgb(0,0,0)" paint-order="fill" d="M 60.5 354.5 L 68.5 354.5 M 60.5 295.5 L 68.5 295.5 M 60.5 235.5 L 68.5 235.5 M 60.5 176.5 L 68.5 176.5 M 60.5 116.5 L 68.5 116.5 M 60.5 57.5 L 68.5 57.5" stroke-opacity="1" stroke-linejoin="bevel" stroke-miterlimit="10" stroke-dasharray=""/><path fill="none" stroke="rgb(0,0,0)" paint-order="fill" d="M 62.5 354.5 L 66.5 354.5 M 62.5 342.5 L 66.5 342.5 M 62.5 331.5 L 66.5 331.5 M 62.5 319.5 L 66.5 319.5 M 62.5 307.5 L 66.5 307.5 M 62.5 295.5 L 66.5 295.5 M 62.5 283.5 L 66.5 283.5 M 62.5 271.5 L 66.5 271.5 M 62.5 259.5 L 66.5 259.5 M 62.5 247.5 L 66.5 247.5 M 62.5 235.5 L 66.5 235.5 M 62.5 223.5 L 66.5 223.5 M 62.5 212.5 L 66.5 212.5 M 62.5 200.5 L 66.5 200.5 M 62.5 188.5 L 66.5 188.5 M 62.5 176.5 L 66.5 176.5 M 62.5 164.5 L 66.5 164.5 M 62.5 152.5 L 66.5 152.5 M 62.5 140.5 L 66.5 140.5 M 62.5 128.5 L 66.5 128.5 M 62.5 116.5 L 66.5 116.5 M 62.5 105.5 L 66.5 105.5 M 62.5 93.5 L 66.5 93.5 M 62.5 81.5 L 66.5 81.5 M 62.5 69.5 L 66.5 69.5 M 62.5 57.5 L 66.5 57.5 M 62.5 45.5 L 66.5 45.5 M 62.5 33.5 L 66.5 33.5" stroke-opacity="1" stroke-linejoin="bevel" stroke-miterlimit="10" stroke-dasharray=""/><text fill="rgb(68,68,68)" stroke="none" font-family="helvetica" font-size="11px" font-style="normal" font-weight="normal" text-decoration="normal" x="0" y="0" text-anchor="end" dominant-baseline="central" transform="matrix(1, 0, 0, 1, 55.5, 354.5)" fill-opacity="1">92.0%</text><text fill="rgb(68,68,68)" stroke="none" font-family="helvetica" font-size="11px" font-style="normal" font-weight="normal" text-decoration="normal" x="0" y="0" text-anchor="end" dominant-baseline="central" transform="matrix(1, 0, 0, 1, 55.5, 295.5)" fill-opacity="1">93.0%</text><text fill="rgb(68,68,68)" stroke="none" font-family="helvetica" font-size="11px" font-style="normal" font-weight="normal" text-decoration="normal" x="0" y="0" text-anchor="end" dominant-baseline="central" transform="matrix(1, 0, 0, 1, 55.5, 235.5)" fill-opacity="1">94.0%</text><text fill="rgb(68,68,68)" stroke="none" font-family="helvetica" font-size="11px" font-style="normal" font-weight="normal" text-decoration="normal" x="0" y="0" text-anchor="end" dominant-baseline="central" transform="matrix(1, 0, 0, 1, 55.5, 176.5)" fill-opacity="1">95.0%</text><text fill="rgb(68,68,68)" stroke="none" font-family="helvetica" font-size="11px" font-style="normal" font-weight="normal" text-decoration="normal" x="0" y="0" text-anchor="end" dominant-baseline="central" transform="matrix(1, 0, 0, 1, 55.5, 116.5)" fill-opacity="1">96.0%</text><text fill="rgb(68,68,68)" stroke="none" font-family="helvetica" font-size="11px" font-style="normal" font-weight="normal" text-decoration="normal" x="0" y="0" text-anchor="end" dominant-baseline="central" transform="matrix(1, 0, 0, 1, 55.5, 57.5)" fill-opacity="1">97.0%</text><text fill="rgb(68,68,68)" stroke="none" font-family="helvetica" font-size="13px" font-style="italic" font-weight="normal" text-decoration="normal" x="0" y="0" text-anchor="middle" dominant-baseline="alphabetic" transform="matrix(6.123233995736766e-17, -1, 1, 6.123233995736766e-17, 16.5, 193.5)" fill-opacity="1">AUROC</text><path fill="none" stroke="none"/><text fill="rgb(68,68,68)" stroke="none" font-family="helvetica" font-size="11pt" font-style="normal" font-weight="bold" text-decoration="normal" x="0" y="0" text-anchor="middle" dominant-baseline="text-after-edge" transform="matrix(1, 0, 0, 1, 418.5, 26.5)" fill-opacity="1">Convergence Plot</text></svg>