<svg version="1.1" xmlns="http://www.w3.org/2000/svg" xmlns:xlink="http://www.w3.org/1999/xlink" width="800" height="400"><defs><clipPath id="EWAzAAxUfCST"><path fill="none" stroke="none" d="M 69.5 31.5 L 770.5 31.5 L 770.5 350.5 L 69.5 350.5 L 69.5 31.5"/></clipPath><clipPath id="NWixqnDVPAPC"><path fill="none" stroke="none" d="M 69.5 31.5 L 770.5 31.5 L 770.5 350.5 L 69.5 350.5 L 69.5 31.5"/></clipPath><clipPath id="EQEdTfmIasIA"><path fill="none" stroke="none" d="M 69.5 31.5 L 770.5 31.5 L 770.5 350.5 L 69.5 350.5 L 69.5 31.5"/></clipPath><clipPath id="hIQVLNZGxNhZ"><path fill="none" stroke="none" d="M 69.5 31.5 L 770.5 31.5 L 770.5 350.5 L 69.5 350.5 L 69.5 31.5"/></clipPath><clipPath id="MMIvOThWcWzR"><path fill="none" stroke="none" d="M 69.5 31.5 L 770.5 31.5 L 770.5 350.5 L 69.5 350.5 L 69.5 31.5"/></clipPath><clipPath id="KsOPGtKuCZAZ"><path fill="none" stroke="none" d="M 69.5 31.5 L 770.5 31.5 L 770.5 350.5 L 69.5 350.5 L 69.5 31.5"/></clipPath></defs><path fill="rgb(255,255,255)" stroke="none" paint-order="stroke" d="M 0.5 0.5 L 800.5 0.5 L 800.5 400.5 L 0.5 400.5 L 0.5 0.5" fill-opacity="1"/><rect fill="#FFFFFF" stroke="none" x="69" y="31" width="701" height="319" transform="matrix(1, 0, 0, 1, 0.5, 0.5)"/><path fill="rgb(255,255,255)" stroke="none" paint-order="stroke" d="M 69.5 31.5 L 770.5 31.5 L 770.5 350.5 L 69.5 350.5 L 69.5 31.5" fill-opacity="1"/><path fill="none" stroke="rgb(229,229,229)" paint-order="fill" d="M 69.5 31.5 L 770.5 31.5 L 770.5 350.5 L 69.5 350.5 L 69.5 31.5" stroke-opacity="1" stroke-linejoin="bevel" stroke-miterlimit="10" stroke-dasharray=""/><path fill="none" stroke="rgb(229,229,229)" paint-order="fill" d="M 69.5 324.5 L 770.5 324.5 M 69.5 263.5 L 770.5 263.5 M 69.5 202.5 L 770.5 202.5 M 69.5 141.5 L 770.5 141.5 M 69.5 80.5 L 770.5 80.5" stroke-opacity="1" stroke-linejoin="bevel" stroke-miterlimit="10" stroke-dasharray="" clip-path="url(#NWixqnDVPAPC)"/><path fill="none" stroke="none"/><path fill="none" stroke="rgb(255,127,80)" paint-order="fill" d="M 101.36363983154297 182.144287109375 L 101.3895034790039 120.56536865234375 L 101.90682983398438 89.95887756347656 L 113.5467529296875 216.34793090820312 L 119.41844940185547 95.11068725585938 L 120.29790496826172 66.79056549072266 L 124.35894775390625 313.8986511230469 L 133.15354919433594 50.78603744506836 L 134.2399444580078 49.78013610839844 L 143.60362243652344 197.9656524658203 L 149.7598419189453 54.230934143066406 L 215.8745880126953 51.06040954589844 L 270.7115478515625 52.279815673828125 L 303.5361328125 50.45079803466797 L 322.6773376464844 68.04048919677734 L 345.2846374511719 112.97474670410156 L 383.9033203125 46 L 424.048095703125 91.33055114746094 L 449.88873291015625 57.24882888793945 L 469.857666015625 336 L 477.1261291503906 49.749610900878906 L 531.39404296875 50.11537551879883 L 587.39501953125 51.7921257019043 L 600.3282470703125 95.20226287841797 L 655.6307983398438 105.71937561035156 L 675.806640625 153.06192016601562 L 675.9100952148438 49.59716033935547 L 682.7130126953125 100.93333435058594 L 683.1527709960938 50.176429748535156 L 738.6363525390625 52.4322624206543" stroke-opacity="1" stroke-linejoin="bevel" stroke-miterlimit="10" stroke-width="1.5" stroke-dasharray="" clip-path="url(#EQEdTfmIasIA)"/><path fill="none" stroke="none"/><path fill="rgb(255,255,255)" stroke="rgb(255,127,80)" paint-order="fill" d="M 103.36363983154297 182.144287109375 A 2 2 0 1 1 103.36363883154306 182.14228710970832" fill-opacity="1" clip-path="url(#hIQVLNZGxNhZ)" stroke-opacity="1" stroke-linejoin="bevel" stroke-miterlimit="10" stroke-width="1.5" stroke-dasharray=""/><path fill="rgb(255,255,255)" stroke="rgb(255,127,80)" paint-order="fill" d="M 103.3895034790039 120.56536865234375 A 2 2 0 1 1 103.389502479004 120.56336865267708" fill-opacity="1" clip-path="url(#hIQVLNZGxNhZ)" stroke-opacity="1" stroke-linejoin="bevel" stroke-miterlimit="10" stroke-width="1.5" stroke-dasharray=""/><path fill="rgb(255,255,255)" stroke="rgb(255,127,80)" paint-order="fill" d="M 103.90682983398438 89.95887756347656 A 2 2 0 1 1 103.90682883398446 89.9568775638099" fill-opacity="1" clip-path="url(#hIQVLNZGxNhZ)" stroke-opacity="1" stroke-linejoin="bevel" stroke-miterlimit="10" stroke-width="1.5" stroke-dasharray=""/><path fill="rgb(255,255,255)" stroke="rgb(255,127,80)" paint-order="fill" d="M 115.5467529296875 216.34793090820312 A 2 2 0 1 1 115.54675192968759 216.34593090853645" fill-opacity="1" clip-path="url(#hIQVLNZGxNhZ)" stroke-opacity="1" stroke-linejoin="bevel" stroke-miterlimit="10" stroke-width="1.5" stroke-dasharray=""/><path fill="rgb(255,255,255)" stroke="rgb(255,127,80)" paint-order="fill" d="M 121.41844940185547 95.11068725585938 A 2 2 0 1 1 121.41844840185556 95.10868725619271" fill-opacity="1" clip-path="url(#hIQVLNZGxNhZ)" stroke-opacity="1" stroke-linejoin="bevel" stroke-miterlimit="10" stroke-width="1.5" stroke-dasharray=""/><path fill="rgb(255,255,255)" stroke="rgb(255,127,80)" paint-order="fill" d="M 122.29790496826172 66.79056549072266 A 2 2 0 1 1 122.2979039682618 66.78856549105599" fill-opacity="1" clip-path="url(#hIQVLNZGxNhZ)" stroke-opacity="1" stroke-linejoin="bevel" stroke-miterlimit="10" stroke-width="1.5" stroke-dasharray=""/><path fill="rgb(255,255,255)" stroke="rgb(255,127,80)" paint-order="fill" d="M 126.35894775390625 313.8986511230469 A 2 2 0 1 1 126.35894675390634 313.8966511233802" fill-opacity="1" clip-path="url(#hIQVLNZGxNhZ)" stroke-opacity="1" stroke-linejoin="bevel" stroke-miterlimit="10" stroke-width="1.5" stroke-dasharray=""/><path fill="rgb(255,255,255)" stroke="rgb(255,127,80)" paint-order="fill" d="M 135.15354919433594 50.78603744506836 A 2 2 0 1 1 135.15354819433603 50.784037445401694" fill-opacity="1" clip-path="url(#hIQVLNZGxNhZ)" stroke-opacity="1" stroke-linejoin="bevel" stroke-miterlimit="10" stroke-width="1.5" stroke-dasharray=""/><path fill="rgb(255,255,255)" stroke="rgb(255,127,80)" paint-order="fill" d="M 136.2399444580078 49.78013610839844 A 2 2 0 1 1 136.2399434580079 49.77813610873177" fill-opacity="1" clip-path="url(#hIQVLNZGxNhZ)" stroke-opacity="1" stroke-linejoin="bevel" stroke-miterlimit="10" stroke-width="1.5" stroke-dasharray=""/><path fill="rgb(255,255,255)" stroke="rgb(255,127,80)" paint-order="fill" d="M 145.60362243652344 197.9656524658203 A 2 2 0 1 1 145.60362143652353 197.96365246615363" fill-opacity="1" clip-path="url(#hIQVLNZGxNhZ)" stroke-opacity="1" stroke-linejoin="bevel" stroke-miterlimit="10" stroke-width="1.5" stroke-dasharray=""/><path fill="rgb(255,255,255)" stroke="rgb(255,127,80)" paint-order="fill" d="M 151.7598419189453 54.230934143066406 A 2 2 0 1 1 151.7598409189454 54.22893414339974" fill-opacity="1" clip-path="url(#hIQVLNZGxNhZ)" stroke-opacity="1" stroke-linejoin="bevel" stroke-miterlimit="10" stroke-width="1.5" stroke-dasharray=""/><path fill="rgb(255,255,255)" stroke="rgb(255,127,80)" paint-order="fill" d="M 217.8745880126953 51.06040954589844 A 2 2 0 1 1 217.8745870126954 51.05840954623177" fill-opacity="1" clip-path="url(#hIQVLNZGxNhZ)" stroke-opacity="1" stroke-linejoin="bevel" stroke-miterlimit="10" stroke-width="1.5" stroke-dasharray=""/><path fill="rgb(255,255,255)" stroke="rgb(255,127,80)" paint-order="fill" d="M 272.7115478515625 52.279815673828125 A 2 2 0 1 1 272.71154685156256 52.27781567416146" fill-opacity="1" clip-path="url(#hIQVLNZGxNhZ)" stroke-opacity="1" stroke-linejoin="bevel" stroke-miterlimit="10" stroke-width="1.5" stroke-dasharray=""/><path fill="rgb(255,255,255)" stroke="rgb(255,127,80)" paint-order="fill" d="M 305.5361328125 50.45079803466797 A 2 2 0 1 1 305.53613181250006 50.4487980350013" fill-opacity="1" clip-path="url(#hIQVLNZGxNhZ)" stroke-opacity="1" stroke-linejoin="bevel" stroke-miterlimit="10" stroke-width="1.5" stroke-dasharray=""/><path fill="rgb(255,255,255)" stroke="rgb(255,127,80)" paint-order="fill" d="M 324.6773376464844 68.04048919677734 A 2 2 0 1 1 324.67733664648443 68.03848919711068" fill-opacity="1" clip-path="url(#hIQVLNZGxNhZ)" stroke-opacity="1" stroke-linejoin="bevel" stroke-miterlimit="10" stroke-width="1.5" stroke-dasharray=""/><path fill="rgb(255,255,255)" stroke="rgb(255,127,80)" paint-order="fill" d="M 347.2846374511719 112.97474670410156 A 2 2 0 1 1 347.28463645117193 112.9727467044349" fill-opacity="1" clip-path="url(#hIQVLNZGxNhZ)" stroke-opacity="1" stroke-linejoin="bevel" stroke-miterlimit="10" stroke-width="1.5" stroke-dasharray=""/><path fill="rgb(255,255,255)" stroke="rgb(255,127,80)" paint-order="fill" d="M 385.9033203125 46 A 2 2 0 1 1 385.90331931250006 45.998000000333334" fill-opacity="1" clip-path="url(#hIQVLNZGxNhZ)" stroke-opacity="1" stroke-linejoin="bevel" stroke-miterlimit="10" stroke-width="1.5" stroke-dasharray=""/><path fill="rgb(255,255,255)" stroke="rgb(255,127,80)" paint-order="fill" d="M 426.048095703125 91.33055114746094 A 2 2 0 1 1 426.04809470312506 91.32855114779427" fill-opacity="1" clip-path="url(#hIQVLNZGxNhZ)" stroke-opacity="1" stroke-linejoin="bevel" stroke-miterlimit="10" stroke-width="1.5" stroke-dasharray=""/><path fill="rgb(255,255,255)" stroke="rgb(255,127,80)" paint-order="fill" d="M 451.88873291015625 57.24882888793945 A 2 2 0 1 1 451.8887319101563 57.24682888827279" fill-opacity="1" clip-path="url(#hIQVLNZGxNhZ)" stroke-opacity="1" stroke-linejoin="bevel" stroke-miterlimit="10" stroke-width="1.5" stroke-dasharray=""/><path fill="rgb(255,255,255)" stroke="rgb(255,127,80)" paint-order="fill" d="M 471.857666015625 336 A 2 2 0 1 1 471.85766501562506 335.9980000003333" fill-opacity="1" clip-path="url(#hIQVLNZGxNhZ)" stroke-opacity="1" stroke-linejoin="bevel" stroke-miterlimit="10" stroke-width="1.5" stroke-dasharray=""/><path fill="rgb(255,255,255)" stroke="rgb(255,127,80)" paint-order="fill" d="M 479.1261291503906 49.749610900878906 A 2 2 0 1 1 479.1261281503907 49.74761090121224" fill-opacity="1" clip-path="url(#hIQVLNZGxNhZ)" stroke-opacity="1" stroke-linejoin="bevel" stroke-miterlimit="10" stroke-width="1.5" stroke-dasharray=""/><path fill="rgb(255,255,255)" stroke="rgb(255,127,80)" paint-order="fill" d="M 533.39404296875 50.11537551879883 A 2 2 0 1 1 533.3940419687501 50.11337551913216" fill-opacity="1" clip-path="url(#hIQVLNZGxNhZ)" stroke-opacity="1" stroke-linejoin="bevel" stroke-miterlimit="10" stroke-width="1.5" stroke-dasharray=""/><path fill="rgb(255,255,255)" stroke="rgb(255,127,80)" paint-order="fill" d="M 589.39501953125 51.7921257019043 A 2 2 0 1 1 589.3950185312501 51.79012570223763" fill-opacity="1" clip-path="url(#hIQVLNZGxNhZ)" stroke-opacity="1" stroke-linejoin="bevel" stroke-miterlimit="10" stroke-width="1.5" stroke-dasharray=""/><path fill="rgb(255,255,255)" stroke="rgb(255,127,80)" paint-order="fill" d="M 602.3282470703125 95.20226287841797 A 2 2 0 1 1 602.3282460703126 95.2002628787513" fill-opacity="1" clip-path="url(#hIQVLNZGxNhZ)" stroke-opacity="1" stroke-linejoin="bevel" stroke-miterlimit="10" stroke-width="1.5" stroke-dasharray=""/><path fill="rgb(255,255,255)" stroke="rgb(255,127,80)" paint-order="fill" d="M 657.6307983398438 105.71937561035156 A 2 2 0 1 1 657.6307973398439 105.7173756106849" fill-opacity="1" clip-path="url(#hIQVLNZGxNhZ)" stroke-opacity="1" stroke-linejoin="bevel" stroke-miterlimit="10" stroke-width="1.5" stroke-dasharray=""/><path fill="rgb(255,255,255)" stroke="rgb(255,127,80)" paint-order="fill" d="M 677.806640625 153.06192016601562 A 2 2 0 1 1 677.8066396250001 153.05992016634895" fill-opacity="1" clip-path="url(#hIQVLNZGxNhZ)" stroke-opacity="1" stroke-linejoin="bevel" stroke-miterlimit="10" stroke-width="1.5" stroke-dasharray=""/><path fill="rgb(255,255,255)" stroke="rgb(255,127,80)" paint-order="fill" d="M 677.9100952148438 49.59716033935547 A 2 2 0 1 1 677.9100942148439 49.5951603396888" fill-opacity="1" clip-path="url(#hIQVLNZGxNhZ)" stroke-opacity="1" stroke-linejoin="bevel" stroke-miterlimit="10" stroke-width="1.5" stroke-dasharray=""/><path fill="rgb(255,255,255)" stroke="rgb(255,127,80)" paint-order="fill" d="M 684.7130126953125 100.93333435058594 A 2 2 0 1 1 684.7130116953126 100.93133435091927" fill-opacity="1" clip-path="url(#hIQVLNZGxNhZ)" stroke-opacity="1" stroke-linejoin="bevel" stroke-miterlimit="10" stroke-width="1.5" stroke-dasharray=""/><path fill="rgb(255,255,255)" stroke="rgb(255,127,80)" paint-order="fill" d="M 685.1527709960938 50.176429748535156 A 2 2 0 1 1 685.1527699960939 50.17442974886849" fill-opacity="1" clip-path="url(#hIQVLNZGxNhZ)" stroke-opacity="1" stroke-linejoin="bevel" stroke-miterlimit="10" stroke-width="1.5" stroke-dasharray=""/><path fill="rgb(255,255,255)" stroke="rgb(255,127,80)" paint-order="fill" d="M 740.6363525390625 52.4322624206543 A 2 2 0 1 1 740.6363515390626 52.43026242098763" fill-opacity="1" clip-path="url(#hIQVLNZGxNhZ)" stroke-opacity="1" stroke-linejoin="bevel" stroke-miterlimit="10" stroke-width="1.5" stroke-dasharray=""/><path fill="none" stroke="rgb(0,0,0)" paint-order="fill" d="M 69.5 350.5 L 770.5 350.5" stroke-opacity="1" stroke-linejoin="bevel" stroke-miterlimit="10" stroke-dasharray=""/><path fill="none" stroke="rgb(0,0,0)" paint-order="fill" d="M 73.5 356.5 L 73.5 348.5 M 166.5 356.5 L 166.5 348.5 M 259.5 356.5 L 259.5 348.5 M 352.5 356.5 L 352.5 348.5 M 445.5 356.5 L 445.5 348.5 M 538.5 356.5 L 538.5 348.5 M 631.5 356.5 L 631.5 348.5 M 725.5 356.5 L 725.5 348.5" stroke-opacity="1" stroke-linejoin="bevel" stroke-miterlimit="10" stroke-dasharray=""/><path fill="none" stroke="rgb(0,0,0)" paint-order="fill" d="" stroke-opacity="1" stroke-linejoin="bevel" stroke-miterlimit="10" stroke-dasharray=""/><text fill="rgb(68,68,68)" stroke="none" font-family="helvetica" font-size="11px" font-style="normal" font-weight="normal" text-decoration="normal" x="66.65596199035645" y="371.4521484375" text-anchor="start" dominant-baseline="alphabetic" transform="matrix(1, 0, 0, 1, 0.5, 0.5)" fill-opacity="1">2h</text><text fill="rgb(68,68,68)" stroke="none" font-family="helvetica" font-size="11px" font-style="normal" font-weight="normal" text-decoration="normal" x="159.77533149719238" y="371.4521484375" text-anchor="start" dominant-baseline="alphabetic" transform="matrix(1, 0, 0, 1, 0.5, 0.5)" fill-opacity="1">3h</text><text fill="rgb(68,68,68)" stroke="none" font-family="helvetica" font-size="11px" font-style="normal" font-weight="normal" text-decoration="normal" x="252.89468574523926" y="371.4521484375" text-anchor="start" dominant-baseline="alphabetic" transform="matrix(1, 0, 0, 1, 0.5, 0.5)" fill-opacity="1">4h</text><text fill="rgb(68,68,68)" stroke="none" font-family="helvetica" font-size="11px" font-style="normal" font-weight="normal" text-decoration="normal" x="346.01407051086426" y="371.4521484375" text-anchor="start" dominant-baseline="alphabetic" transform="matrix(1, 0, 0, 1, 0.5, 0.5)" fill-opacity="1">5h</text><text fill="rgb(68,68,68)" stroke="none" font-family="helvetica" font-size="11px" font-style="normal" font-weight="normal" text-decoration="normal" x="439.13342475891113" y="371.4521484375" text-anchor="start" dominant-baseline="alphabetic" transform="matrix(1, 0, 0, 1, 0.5, 0.5)" fill-opacity="1">6h</text><text fill="rgb(68,68,68)" stroke="none" font-family="helvetica" font-size="11px" font-style="normal" font-weight="normal" text-decoration="normal" x="532.252779006958" y="371.4521484375" text-anchor="start" dominant-baseline="alphabetic" transform="matrix(1, 0, 0, 1, 0.5, 0.5)" fill-opacity="1">7h</text><text fill="rgb(68,68,68)" stroke="none" font-family="helvetica" font-size="11px" font-style="normal" font-weight="normal" text-decoration="normal" x="625.372163772583" y="371.4521484375" text-anchor="start" dominant-baseline="alphabetic" transform="matrix(1, 0, 0, 1, 0.5, 0.5)" fill-opacity="1">8h</text><text fill="rgb(68,68,68)" stroke="none" font-family="helvetica" font-size="11px" font-style="normal" font-weight="normal" text-decoration="normal" x="718.491548538208" y="371.4521484375" text-anchor="start" dominant-baseline="alphabetic" transform="matrix(1, 0, 0, 1, 0.5, 0.5)" fill-opacity="1">9h</text><text fill="rgb(68,68,68)" stroke="none" font-family="helvetica" font-size="13px" font-style="italic" font-weight="normal" text-decoration="normal" x="364.70000076293945" y="394.35205078125" text-anchor="start" dominant-baseline="alphabetic" transform="matrix(1, 0, 0, 1, 0.5, 0.5)" fill-opacity="1">Training Start Time</text><path fill="none" stroke="rgb(0,0,0)" paint-order="fill" d="M 69.5 350.5 L 69.5 31.5" stroke-opacity="1" stroke-linejoin="bevel" stroke-miterlimit="10" stroke-dasharray=""/><path fill="none" stroke="rgb(0,0,0)" paint-order="fill" d="M 63.5 324.5 L 71.5 324.5 M 63.5 263.5 L 71.5 263.5 M 63.5 202.5 L 71.5 202.5 M 63.5 141.5 L 71.5 141.5 M 63.5 80.5 L 71.5 80.5" stroke-opacity="1" stroke-linejoin="bevel" stroke-miterlimit="10" stroke-dasharray=""/><path fill="none" stroke="rgb(0,0,0)" paint-order="fill" d="M 65.5 336.5 L 69.5 336.5 M 65.5 348.5 L 69.5 348.5 M 65.5 324.5 L 69.5 324.5 M 65.5 312.5 L 69.5 312.5 M 65.5 300.5 L 69.5 300.5 M 65.5 287.5 L 69.5 287.5 M 65.5 275.5 L 69.5 275.5 M 65.5 263.5 L 69.5 263.5 M 65.5 251.5 L 69.5 251.5 M 65.5 239.5 L 69.5 239.5 M 65.5 226.5 L 69.5 226.5 M 65.5 214.5 L 69.5 214.5 M 65.5 202.5 L 69.5 202.5 M 65.5 190.5 L 69.5 190.5 M 65.5 178.5 L 69.5 178.5 M 65.5 165.5 L 69.5 165.5 M 65.5 153.5 L 69.5 153.5 M 65.5 141.5 L 69.5 141.5 M 65.5 129.5 L 69.5 129.5 M 65.5 117.5 L 69.5 117.5 M 65.5 104.5 L 69.5 104.5 M 65.5 92.5 L 69.5 92.5 M 65.5 80.5 L 69.5 80.5 M 65.5 68.5 L 69.5 68.5 M 65.5 56.5 L 69.5 56.5 M 65.5 44.5 L 69.5 44.5 M 65.5 31.5 L 69.5 31.5" stroke-opacity="1" stroke-linejoin="bevel" stroke-miterlimit="10" stroke-dasharray=""/><text fill="rgb(68,68,68)" stroke="none" font-family="helvetica" font-size="11px" font-style="normal" font-weight="normal" text-decoration="normal" x="26.816667556762695" y="327.9862976074219" text-anchor="start" dominant-baseline="alphabetic" transform="matrix(1, 0, 0, 1, 0.5, 0.5)" fill-opacity="1">88.0%</text><text fill="rgb(68,68,68)" stroke="none" font-family="helvetica" font-size="11px" font-style="normal" font-weight="normal" text-decoration="normal" x="26.816667556762695" y="267.0171203613281" text-anchor="start" dominant-baseline="alphabetic" transform="matrix(1, 0, 0, 1, 0.5, 0.5)" fill-opacity="1">90.0%</text><text fill="rgb(68,68,68)" stroke="none" font-family="helvetica" font-size="11px" font-style="normal" font-weight="normal" text-decoration="normal" x="26.816667556762695" y="206.04794311523438" text-anchor="start" dominant-baseline="alphabetic" transform="matrix(1, 0, 0, 1, 0.5, 0.5)" fill-opacity="1">92.0%</text><text fill="rgb(68,68,68)" stroke="none" font-family="helvetica" font-size="11px" font-style="normal" font-weight="normal" text-decoration="normal" x="26.816667556762695" y="145.07876586914062" text-anchor="start" dominant-baseline="alphabetic" transform="matrix(1, 0, 0, 1, 0.5, 0.5)" fill-opacity="1">94.0%</text><text fill="rgb(68,68,68)" stroke="none" font-family="helvetica" font-size="11px" font-style="normal" font-weight="normal" text-decoration="normal" x="26.816667556762695" y="84.10957336425781" text-anchor="start" dominant-baseline="alphabetic" transform="matrix(1, 0, 0, 1, 0.5, 0.5)" fill-opacity="1">96.0%</text><text fill="rgb(68,68,68)" stroke="none" font-family="helvetica" font-size="13px" font-style="italic" font-weight="normal" text-decoration="normal" x="-4.649999618530273" y="187.62451171875" text-anchor="start" dominant-baseline="alphabetic" transform="matrix(6.123233995736766e-17, -1, 1, 6.123233995736766e-17, -171.1833324432373, 209.8166675567627)" fill-opacity="1">AUROC</text><path fill="none" stroke="none"/><text fill="rgb(68,68,68)" stroke="none" font-family="helvetica" font-size="12pt" font-style="normal" font-weight="bold" text-decoration="normal" x="0" y="0" text-anchor="middle" dominant-baseline="text-after-edge" transform="matrix(1, 0, 0, 1, 420, 26.5)" fill-opacity="1">Convergence Plot</text></svg>