<svg version="1.1" xmlns="http://www.w3.org/2000/svg" xmlns:xlink="http://www.w3.org/1999/xlink" width="800" height="400"><defs><clipPath id="oFXJqvNktvtx"><path fill="none" stroke="none" d="M 69.5 31.5 L 770.5 31.5 L 770.5 350.5 L 69.5 350.5 L 69.5 31.5"/></clipPath><clipPath id="yhvMZzScWOFe"><path fill="none" stroke="none" d="M 69.5 31.5 L 770.5 31.5 L 770.5 350.5 L 69.5 350.5 L 69.5 31.5"/></clipPath><clipPath id="mJxmeQzTlgaF"><path fill="none" stroke="none" d="M 69.5 31.5 L 770.5 31.5 L 770.5 350.5 L 69.5 350.5 L 69.5 31.5"/></clipPath><clipPath id="hLLyZifHdySW"><path fill="none" stroke="none" d="M 69.5 31.5 L 770.5 31.5 L 770.5 350.5 L 69.5 350.5 L 69.5 31.5"/></clipPath><clipPath id="sDeqpvawgoWG"><path fill="none" stroke="none" d="M 69.5 31.5 L 770.5 31.5 L 770.5 350.5 L 69.5 350.5 L 69.5 31.5"/></clipPath><clipPath id="rfIpUXmhnmIp"><path fill="none" stroke="none" d="M 69.5 31.5 L 770.5 31.5 L 770.5 350.5 L 69.5 350.5 L 69.5 31.5"/></clipPath></defs><path fill="rgb(255,255,255)" stroke="none" paint-order="stroke" d="M 0.5 0.5 L 800.5 0.5 L 800.5 400.5 L 0.5 400.5 L 0.5 0.5" fill-opacity="1"/><rect fill="#FFFFFF" stroke="none" x="69" y="31" width="701" height="319" transform="matrix(1, 0, 0, 1, 0.5, 0.5)"/><path fill="rgb(255,255,255)" stroke="none" paint-order="stroke" d="M 69.5 31.5 L 770.5 31.5 L 770.5 350.5 L 69.5 350.5 L 69.5 31.5" fill-opacity="1"/><path fill="none" stroke="rgb(229,229,229)" paint-order="fill" d="M 69.5 31.5 L 770.5 31.5 L 770.5 350.5 L 69.5 350.5 L 69.5 31.5" stroke-opacity="1" stroke-linejoin="bevel" stroke-miterlimit="10" stroke-dasharray=""/><path fill="none" stroke="rgb(229,229,229)" paint-order="fill" d="M 69.5 333.5 L 770.5 333.5 M 69.5 277.5 L 770.5 277.5 M 69.5 221.5 L 770.5 221.5 M 69.5 165.5 L 770.5 165.5 M 69.5 109.5 L 770.5 109.5 M 69.5 53.5 L 770.5 53.5" stroke-opacity="1" stroke-linejoin="bevel" stroke-miterlimit="10" stroke-dasharray="" clip-path="url(#yhvMZzScWOFe)"/><path fill="none" stroke="none"/><path fill="none" stroke="rgb(255,127,80)" paint-order="fill" d="M 738.6363525390625 46.056026458740234 L 724.3878173828125 50.364192962646484 L 709.0217895507812 49.46907424926758 L 678.4013671875 72.24151611328125 L 648.7868041992188 62.7857666015625 L 628.1124267578125 52.434566497802734 L 608.94677734375 50.140411376953125 L 580.6173095703125 185.20892333984375 L 578.3822631835938 181.4043426513672 L 528.9314575195312 65.69522857666016 L 499.7079772949219 189.18157958984375 L 429.80633544921875 67.6535415649414 L 425.8949890136719 47.230953216552734 L 400.5270080566406 261.3598327636719 L 396.2803649902344 213.29702758789062 L 334.2573547363281 61.666534423828125 L 332.6369323730469 48.68568420410156 L 322.74676513671875 63.736907958984375 L 280.61578369140625 156.11398315429688 L 260.8354797363281 62.841793060302734 L 239.1553497314453 49.8606071472168 L 224.180419921875 189.629150390625 L 217.3634796142578 94.45467376708984 L 187.3577423095703 105.25343322753906 L 167.52154541015625 119.57695770263672 L 117.56785583496094 97.69996643066406 L 117.28846740722656 182.29946899414062 L 101.36363983154297 46 L 101.86652374267578 324.1940612792969 L 101.8106460571289 336" stroke-opacity="1" stroke-linejoin="bevel" stroke-miterlimit="10" stroke-width="1.5" stroke-dasharray="" clip-path="url(#mJxmeQzTlgaF)"/><path fill="none" stroke="none"/><path fill="rgb(255,255,255)" stroke="rgb(255,127,80)" paint-order="fill" d="M 740.6363525390625 46.056026458740234 A 2 2 0 1 1 740.6363515390626 46.05402645907357" fill-opacity="1" clip-path="url(#hLLyZifHdySW)" stroke-opacity="1" stroke-linejoin="bevel" stroke-miterlimit="10" stroke-width="1.5" stroke-dasharray=""/><path fill="rgb(255,255,255)" stroke="rgb(255,127,80)" paint-order="fill" d="M 726.3878173828125 50.364192962646484 A 2 2 0 1 1 726.3878163828126 50.36219296297982" fill-opacity="1" clip-path="url(#hLLyZifHdySW)" stroke-opacity="1" stroke-linejoin="bevel" stroke-miterlimit="10" stroke-width="1.5" stroke-dasharray=""/><path fill="rgb(255,255,255)" stroke="rgb(255,127,80)" paint-order="fill" d="M 711.0217895507812 49.46907424926758 A 2 2 0 1 1 711.0217885507814 49.46707424960091" fill-opacity="1" clip-path="url(#hLLyZifHdySW)" stroke-opacity="1" stroke-linejoin="bevel" stroke-miterlimit="10" stroke-width="1.5" stroke-dasharray=""/><path fill="rgb(255,255,255)" stroke="rgb(255,127,80)" paint-order="fill" d="M 680.4013671875 72.24151611328125 A 2 2 0 1 1 680.4013661875001 72.23951611361458" fill-opacity="1" clip-path="url(#hLLyZifHdySW)" stroke-opacity="1" stroke-linejoin="bevel" stroke-miterlimit="10" stroke-width="1.5" stroke-dasharray=""/><path fill="rgb(255,255,255)" stroke="rgb(255,127,80)" paint-order="fill" d="M 650.7868041992188 62.7857666015625 A 2 2 0 1 1 650.7868031992189 62.783766601895834" fill-opacity="1" clip-path="url(#hLLyZifHdySW)" stroke-opacity="1" stroke-linejoin="bevel" stroke-miterlimit="10" stroke-width="1.5" stroke-dasharray=""/><path fill="rgb(255,255,255)" stroke="rgb(255,127,80)" paint-order="fill" d="M 630.1124267578125 52.434566497802734 A 2 2 0 1 1 630.1124257578126 52.43256649813607" fill-opacity="1" clip-path="url(#hLLyZifHdySW)" stroke-opacity="1" stroke-linejoin="bevel" stroke-miterlimit="10" stroke-width="1.5" stroke-dasharray=""/><path fill="rgb(255,255,255)" stroke="rgb(255,127,80)" paint-order="fill" d="M 610.94677734375 50.140411376953125 A 2 2 0 1 1 610.9467763437501 50.13841137728646" fill-opacity="1" clip-path="url(#hLLyZifHdySW)" stroke-opacity="1" stroke-linejoin="bevel" stroke-miterlimit="10" stroke-width="1.5" stroke-dasharray=""/><path fill="rgb(255,255,255)" stroke="rgb(255,127,80)" paint-order="fill" d="M 582.6173095703125 185.20892333984375 A 2 2 0 1 1 582.6173085703126 185.20692334017707" fill-opacity="1" clip-path="url(#hLLyZifHdySW)" stroke-opacity="1" stroke-linejoin="bevel" stroke-miterlimit="10" stroke-width="1.5" stroke-dasharray=""/><path fill="rgb(255,255,255)" stroke="rgb(255,127,80)" paint-order="fill" d="M 580.3822631835938 181.4043426513672 A 2 2 0 1 1 580.3822621835939 181.4023426517005" fill-opacity="1" clip-path="url(#hLLyZifHdySW)" stroke-opacity="1" stroke-linejoin="bevel" stroke-miterlimit="10" stroke-width="1.5" stroke-dasharray=""/><path fill="rgb(255,255,255)" stroke="rgb(255,127,80)" paint-order="fill" d="M 530.9314575195312 65.69522857666016 A 2 2 0 1 1 530.9314565195314 65.69322857699349" fill-opacity="1" clip-path="url(#hLLyZifHdySW)" stroke-opacity="1" stroke-linejoin="bevel" stroke-miterlimit="10" stroke-width="1.5" stroke-dasharray=""/><path fill="rgb(255,255,255)" stroke="rgb(255,127,80)" paint-order="fill" d="M 501.7079772949219 189.18157958984375 A 2 2 0 1 1 501.70797629492193 189.17957959017707" fill-opacity="1" clip-path="url(#hLLyZifHdySW)" stroke-opacity="1" stroke-linejoin="bevel" stroke-miterlimit="10" stroke-width="1.5" stroke-dasharray=""/><path fill="rgb(255,255,255)" stroke="rgb(255,127,80)" paint-order="fill" d="M 431.80633544921875 67.6535415649414 A 2 2 0 1 1 431.8063344492188 67.65154156527474" fill-opacity="1" clip-path="url(#hLLyZifHdySW)" stroke-opacity="1" stroke-linejoin="bevel" stroke-miterlimit="10" stroke-width="1.5" stroke-dasharray=""/><path fill="rgb(255,255,255)" stroke="rgb(255,127,80)" paint-order="fill" d="M 427.8949890136719 47.230953216552734 A 2 2 0 1 1 427.89498801367193 47.22895321688607" fill-opacity="1" clip-path="url(#hLLyZifHdySW)" stroke-opacity="1" stroke-linejoin="bevel" stroke-miterlimit="10" stroke-width="1.5" stroke-dasharray=""/><path fill="rgb(255,255,255)" stroke="rgb(255,127,80)" paint-order="fill" d="M 402.5270080566406 261.3598327636719 A 2 2 0 1 1 402.5270070566407 261.3578327640052" fill-opacity="1" clip-path="url(#hLLyZifHdySW)" stroke-opacity="1" stroke-linejoin="bevel" stroke-miterlimit="10" stroke-width="1.5" stroke-dasharray=""/><path fill="rgb(255,255,255)" stroke="rgb(255,127,80)" paint-order="fill" d="M 398.2803649902344 213.29702758789062 A 2 2 0 1 1 398.28036399023443 213.29502758822395" fill-opacity="1" clip-path="url(#hLLyZifHdySW)" stroke-opacity="1" stroke-linejoin="bevel" stroke-miterlimit="10" stroke-width="1.5" stroke-dasharray=""/><path fill="rgb(255,255,255)" stroke="rgb(255,127,80)" paint-order="fill" d="M 336.2573547363281 61.666534423828125 A 2 2 0 1 1 336.2573537363282 61.66453442416146" fill-opacity="1" clip-path="url(#hLLyZifHdySW)" stroke-opacity="1" stroke-linejoin="bevel" stroke-miterlimit="10" stroke-width="1.5" stroke-dasharray=""/><path fill="rgb(255,255,255)" stroke="rgb(255,127,80)" paint-order="fill" d="M 334.6369323730469 48.68568420410156 A 2 2 0 1 1 334.63693137304693 48.6836842044349" fill-opacity="1" clip-path="url(#hLLyZifHdySW)" stroke-opacity="1" stroke-linejoin="bevel" stroke-miterlimit="10" stroke-width="1.5" stroke-dasharray=""/><path fill="rgb(255,255,255)" stroke="rgb(255,127,80)" paint-order="fill" d="M 324.74676513671875 63.736907958984375 A 2 2 0 1 1 324.7467641367188 63.73490795931771" fill-opacity="1" clip-path="url(#hLLyZifHdySW)" stroke-opacity="1" stroke-linejoin="bevel" stroke-miterlimit="10" stroke-width="1.5" stroke-dasharray=""/><path fill="rgb(255,255,255)" stroke="rgb(255,127,80)" paint-order="fill" d="M 282.61578369140625 156.11398315429688 A 2 2 0 1 1 282.6157826914063 156.1119831546302" fill-opacity="1" clip-path="url(#hLLyZifHdySW)" stroke-opacity="1" stroke-linejoin="bevel" stroke-miterlimit="10" stroke-width="1.5" stroke-dasharray=""/><path fill="rgb(255,255,255)" stroke="rgb(255,127,80)" paint-order="fill" d="M 262.8354797363281 62.841793060302734 A 2 2 0 1 1 262.8354787363282 62.83979306063607" fill-opacity="1" clip-path="url(#hLLyZifHdySW)" stroke-opacity="1" stroke-linejoin="bevel" stroke-miterlimit="10" stroke-width="1.5" stroke-dasharray=""/><path fill="rgb(255,255,255)" stroke="rgb(255,127,80)" paint-order="fill" d="M 241.1553497314453 49.8606071472168 A 2 2 0 1 1 241.1553487314454 49.85860714755013" fill-opacity="1" clip-path="url(#hLLyZifHdySW)" stroke-opacity="1" stroke-linejoin="bevel" stroke-miterlimit="10" stroke-width="1.5" stroke-dasharray=""/><path fill="rgb(255,255,255)" stroke="rgb(255,127,80)" paint-order="fill" d="M 226.180419921875 189.629150390625 A 2 2 0 1 1 226.1804189218751 189.62715039095832" fill-opacity="1" clip-path="url(#hLLyZifHdySW)" stroke-opacity="1" stroke-linejoin="bevel" stroke-miterlimit="10" stroke-width="1.5" stroke-dasharray=""/><path fill="rgb(255,255,255)" stroke="rgb(255,127,80)" paint-order="fill" d="M 219.3634796142578 94.45467376708984 A 2 2 0 1 1 219.3634786142579 94.45267376742318" fill-opacity="1" clip-path="url(#hLLyZifHdySW)" stroke-opacity="1" stroke-linejoin="bevel" stroke-miterlimit="10" stroke-width="1.5" stroke-dasharray=""/><path fill="rgb(255,255,255)" stroke="rgb(255,127,80)" paint-order="fill" d="M 189.3577423095703 105.25343322753906 A 2 2 0 1 1 189.3577413095704 105.2514332278724" fill-opacity="1" clip-path="url(#hLLyZifHdySW)" stroke-opacity="1" stroke-linejoin="bevel" stroke-miterlimit="10" stroke-width="1.5" stroke-dasharray=""/><path fill="rgb(255,255,255)" stroke="rgb(255,127,80)" paint-order="fill" d="M 169.52154541015625 119.57695770263672 A 2 2 0 1 1 169.52154441015634 119.57495770297005" fill-opacity="1" clip-path="url(#hLLyZifHdySW)" stroke-opacity="1" stroke-linejoin="bevel" stroke-miterlimit="10" stroke-width="1.5" stroke-dasharray=""/><path fill="rgb(255,255,255)" stroke="rgb(255,127,80)" paint-order="fill" d="M 119.56785583496094 97.69996643066406 A 2 2 0 1 1 119.56785483496103 97.6979664309974" fill-opacity="1" clip-path="url(#hLLyZifHdySW)" stroke-opacity="1" stroke-linejoin="bevel" stroke-miterlimit="10" stroke-width="1.5" stroke-dasharray=""/><path fill="rgb(255,255,255)" stroke="rgb(255,127,80)" paint-order="fill" d="M 119.28846740722656 182.29946899414062 A 2 2 0 1 1 119.28846640722665 182.29746899447395" fill-opacity="1" clip-path="url(#hLLyZifHdySW)" stroke-opacity="1" stroke-linejoin="bevel" stroke-miterlimit="10" stroke-width="1.5" stroke-dasharray=""/><path fill="rgb(255,255,255)" stroke="rgb(255,127,80)" paint-order="fill" d="M 103.36363983154297 46 A 2 2 0 1 1 103.36363883154306 45.998000000333334" fill-opacity="1" clip-path="url(#hLLyZifHdySW)" stroke-opacity="1" stroke-linejoin="bevel" stroke-miterlimit="10" stroke-width="1.5" stroke-dasharray=""/><path fill="rgb(255,255,255)" stroke="rgb(255,127,80)" paint-order="fill" d="M 103.86652374267578 324.1940612792969 A 2 2 0 1 1 103.86652274267587 324.1920612796302" fill-opacity="1" clip-path="url(#hLLyZifHdySW)" stroke-opacity="1" stroke-linejoin="bevel" stroke-miterlimit="10" stroke-width="1.5" stroke-dasharray=""/><path fill="rgb(255,255,255)" stroke="rgb(255,127,80)" paint-order="fill" d="M 103.8106460571289 336 A 2 2 0 1 1 103.810645057129 335.9980000003333" fill-opacity="1" clip-path="url(#hLLyZifHdySW)" stroke-opacity="1" stroke-linejoin="bevel" stroke-miterlimit="10" stroke-width="1.5" stroke-dasharray=""/><path fill="none" stroke="rgb(0,0,0)" paint-order="fill" d="M 69.5 350.5 L 770.5 350.5" stroke-opacity="1" stroke-linejoin="bevel" stroke-miterlimit="10" stroke-dasharray=""/><path fill="none" stroke="rgb(0,0,0)" paint-order="fill" d="M 220.5 356.5 L 220.5 348.5 M 421.5 356.5 L 421.5 348.5 M 623.5 356.5 L 623.5 348.5" stroke-opacity="1" stroke-linejoin="bevel" stroke-miterlimit="10" stroke-dasharray=""/><path fill="none" stroke="rgb(0,0,0)" paint-order="fill" d="" stroke-opacity="1" stroke-linejoin="bevel" stroke-miterlimit="10" stroke-dasharray=""/><text fill="rgb(68,68,68)" stroke="none" font-family="helvetica" font-size="11px" font-style="normal" font-weight="normal" text-decoration="normal" x="214.1552906036377" y="371.4521484375" text-anchor="start" dominant-baseline="alphabetic" transform="matrix(1, 0, 0, 1, 0.5, 0.5)" fill-opacity="1">2h</text><text fill="rgb(68,68,68)" stroke="none" font-family="helvetica" font-size="11px" font-style="normal" font-weight="normal" text-decoration="normal" x="415.31106758117676" y="371.4521484375" text-anchor="start" dominant-baseline="alphabetic" transform="matrix(1, 0, 0, 1, 0.5, 0.5)" fill-opacity="1">3h</text><text fill="rgb(68,68,68)" stroke="none" font-family="helvetica" font-size="11px" font-style="normal" font-weight="normal" text-decoration="normal" x="616.466890335083" y="371.4521484375" text-anchor="start" dominant-baseline="alphabetic" transform="matrix(1, 0, 0, 1, 0.5, 0.5)" fill-opacity="1">4h</text><text fill="rgb(68,68,68)" stroke="none" font-family="helvetica" font-size="13px" font-style="italic" font-weight="normal" text-decoration="normal" x="364.70000076293945" y="394.35205078125" text-anchor="start" dominant-baseline="alphabetic" transform="matrix(1, 0, 0, 1, 0.5, 0.5)" fill-opacity="1">Training Start Time</text><path fill="none" stroke="rgb(0,0,0)" paint-order="fill" d="M 69.5 350.5 L 69.5 31.5" stroke-opacity="1" stroke-linejoin="bevel" stroke-miterlimit="10" stroke-dasharray=""/><path fill="none" stroke="rgb(0,0,0)" paint-order="fill" d="M 63.5 333.5 L 71.5 333.5 M 63.5 277.5 L 71.5 277.5 M 63.5 221.5 L 71.5 221.5 M 63.5 165.5 L 71.5 165.5 M 63.5 109.5 L 71.5 109.5 M 63.5 53.5 L 71.5 53.5" stroke-opacity="1" stroke-linejoin="bevel" stroke-miterlimit="10" stroke-dasharray=""/><path fill="none" stroke="rgb(0,0,0)" paint-order="fill" d="M 65.5 344.5 L 69.5 344.5 M 65.5 333.5 L 69.5 333.5 M 65.5 321.5 L 69.5 321.5 M 65.5 310.5 L 69.5 310.5 M 65.5 299.5 L 69.5 299.5 M 65.5 288.5 L 69.5 288.5 M 65.5 277.5 L 69.5 277.5 M 65.5 265.5 L 69.5 265.5 M 65.5 254.5 L 69.5 254.5 M 65.5 243.5 L 69.5 243.5 M 65.5 232.5 L 69.5 232.5 M 65.5 221.5 L 69.5 221.5 M 65.5 209.5 L 69.5 209.5 M 65.5 198.5 L 69.5 198.5 M 65.5 187.5 L 69.5 187.5 M 65.5 176.5 L 69.5 176.5 M 65.5 165.5 L 69.5 165.5 M 65.5 153.5 L 69.5 153.5 M 65.5 142.5 L 69.5 142.5 M 65.5 131.5 L 69.5 131.5 M 65.5 120.5 L 69.5 120.5 M 65.5 109.5 L 69.5 109.5 M 65.5 98.5 L 69.5 98.5 M 65.5 86.5 L 69.5 86.5 M 65.5 75.5 L 69.5 75.5 M 65.5 64.5 L 69.5 64.5 M 65.5 53.5 L 69.5 53.5 M 65.5 42.5 L 69.5 42.5" stroke-opacity="1" stroke-linejoin="bevel" stroke-miterlimit="10" stroke-dasharray=""/><text fill="rgb(68,68,68)" stroke="none" font-family="helvetica" font-size="11px" font-style="normal" font-weight="normal" text-decoration="normal" x="26.816667556762695" y="336.54412841796875" text-anchor="start" dominant-baseline="alphabetic" transform="matrix(1, 0, 0, 1, 0.5, 0.5)" fill-opacity="1">92.0%</text><text fill="rgb(68,68,68)" stroke="none" font-family="helvetica" font-size="11px" font-style="normal" font-weight="normal" text-decoration="normal" x="26.816667556762695" y="280.59197998046875" text-anchor="start" dominant-baseline="alphabetic" transform="matrix(1, 0, 0, 1, 0.5, 0.5)" fill-opacity="1">93.0%</text><text fill="rgb(68,68,68)" stroke="none" font-family="helvetica" font-size="11px" font-style="normal" font-weight="normal" text-decoration="normal" x="26.816667556762695" y="224.6398162841797" text-anchor="start" dominant-baseline="alphabetic" transform="matrix(1, 0, 0, 1, 0.5, 0.5)" fill-opacity="1">94.0%</text><text fill="rgb(68,68,68)" stroke="none" font-family="helvetica" font-size="11px" font-style="normal" font-weight="normal" text-decoration="normal" x="26.816667556762695" y="168.68765258789062" text-anchor="start" dominant-baseline="alphabetic" transform="matrix(1, 0, 0, 1, 0.5, 0.5)" fill-opacity="1">95.0%</text><text fill="rgb(68,68,68)" stroke="none" font-family="helvetica" font-size="11px" font-style="normal" font-weight="normal" text-decoration="normal" x="26.816667556762695" y="112.7354965209961" text-anchor="start" dominant-baseline="alphabetic" transform="matrix(1, 0, 0, 1, 0.5, 0.5)" fill-opacity="1">96.0%</text><text fill="rgb(68,68,68)" stroke="none" font-family="helvetica" font-size="11px" font-style="normal" font-weight="normal" text-decoration="normal" x="26.816667556762695" y="56.7833366394043" text-anchor="start" dominant-baseline="alphabetic" transform="matrix(1, 0, 0, 1, 0.5, 0.5)" fill-opacity="1">97.0%</text><text fill="rgb(68,68,68)" stroke="none" font-family="helvetica" font-size="13px" font-style="italic" font-weight="normal" text-decoration="normal" x="-4.649999618530273" y="187.62451171875" text-anchor="start" dominant-baseline="alphabetic" transform="matrix(6.123233995736766e-17, -1, 1, 6.123233995736766e-17, -171.1833324432373, 209.8166675567627)" fill-opacity="1">AUROC</text><path fill="none" stroke="none"/><text fill="rgb(68,68,68)" stroke="none" font-family="helvetica" font-size="12pt" font-style="normal" font-weight="bold" text-decoration="normal" x="0" y="0" text-anchor="middle" dominant-baseline="text-after-edge" transform="matrix(1, 0, 0, 1, 420, 26.5)" fill-opacity="1">Convergence Plot</text></svg>