<svg version="1.1" xmlns="http://www.w3.org/2000/svg" xmlns:xlink="http://www.w3.org/1999/xlink" width="800" height="400"><defs><clipPath id="ZzDRrTdJTTSw"><path fill="none" stroke="none" d="M 69.5 31.5 L 770.5 31.5 L 770.5 350.5 L 69.5 350.5 L 69.5 31.5"/></clipPath><clipPath id="HvQrpLnSZqFd"><path fill="none" stroke="none" d="M 69.5 31.5 L 770.5 31.5 L 770.5 350.5 L 69.5 350.5 L 69.5 31.5"/></clipPath><clipPath id="FbDeUldzUPhW"><path fill="none" stroke="none" d="M 69.5 31.5 L 770.5 31.5 L 770.5 350.5 L 69.5 350.5 L 69.5 31.5"/></clipPath><clipPath id="uCgVhLWCSRpG"><path fill="none" stroke="none" d="M 69.5 31.5 L 770.5 31.5 L 770.5 350.5 L 69.5 350.5 L 69.5 31.5"/></clipPath><clipPath id="mOhnDpgcibHd"><path fill="none" stroke="none" d="M 69.5 31.5 L 770.5 31.5 L 770.5 350.5 L 69.5 350.5 L 69.5 31.5"/></clipPath><clipPath id="xbBwliwhHcTA"><path fill="none" stroke="none" d="M 69.5 31.5 L 770.5 31.5 L 770.5 350.5 L 69.5 350.5 L 69.5 31.5"/></clipPath></defs><path fill="rgb(255,255,255)" stroke="none" paint-order="stroke" d="M 0.5 0.5 L 800.5 0.5 L 800.5 400.5 L 0.5 400.5 L 0.5 0.5" fill-opacity="1"/><rect fill="#FFFFFF" stroke="none" x="69" y="31" width="701" height="319" transform="matrix(1, 0, 0, 1, 0.5, 0.5)"/><path fill="rgb(255,255,255)" stroke="none" paint-order="stroke" d="M 69.5 31.5 L 770.5 31.5 L 770.5 350.5 L 69.5 350.5 L 69.5 31.5" fill-opacity="1"/><path fill="none" stroke="rgb(229,229,229)" paint-order="fill" d="M 69.5 31.5 L 770.5 31.5 L 770.5 350.5 L 69.5 350.5 L 69.5 31.5" stroke-opacity="1" stroke-linejoin="bevel" stroke-miterlimit="10" stroke-dasharray=""/><path fill="none" stroke="rgb(229,229,229)" paint-order="fill" d="M 69.5 290.5 L 770.5 290.5 M 69.5 221.5 L 770.5 221.5 M 69.5 151.5 L 770.5 151.5 M 69.5 82.5 L 770.5 82.5" stroke-opacity="1" stroke-linejoin="bevel" stroke-miterlimit="10" stroke-dasharray="" clip-path="url(#HvQrpLnSZqFd)"/><path fill="none" stroke="none"/><path fill="none" stroke="rgb(255,127,80)" paint-order="fill" d="M 738.6363525390625 50.29378128051758 L 727.919677734375 93.26566314697266 L 702.6806640625 118.5086669921875 L 688.6395874023438 50.88241195678711 L 661.9134521484375 55.69548034667969 L 648.4847412109375 207.4304656982422 L 620.97119140625 66.395263671875 L 605.0054931640625 157.04827880859375 L 597.7006225585938 46 L 573.1615600585938 136.06439208984375 L 571.8493041992188 159.74932861328125 L 545.7792358398438 118.88946533203125 L 385.81585693359375 47.03877258300781 L 252.09750366210938 58.08467483520508 L 251.79132080078125 50.6399040222168 L 235.0382537841797 130.48953247070312 L 218.41641235351562 59.46977233886719 L 195.10208129882812 51.50571823120117 L 176.24942016601562 61.686012268066406 L 176.20567321777344 66.04893493652344 L 148.12350463867188 146.9373321533203 L 146.33009338378906 186.34275817871094 L 136.44447326660156 69.54624938964844 L 135.17596435546875 308.54095458984375 L 126.03395080566406 86.89434051513672 L 126.42762756347656 336 L 111.81790161132812 81.28480529785156 L 101.58234405517578 96.5898208618164 L 101.36363983154297 289.1151123046875 L 101.45111846923828 120.2400894165039" stroke-opacity="1" stroke-linejoin="bevel" stroke-miterlimit="10" stroke-width="1.5" stroke-dasharray="" clip-path="url(#FbDeUldzUPhW)"/><path fill="none" stroke="none"/><path fill="rgb(255,255,255)" stroke="rgb(255,127,80)" paint-order="fill" d="M 740.6363525390625 50.29378128051758 A 2 2 0 1 1 740.6363515390626 50.29178128085091" fill-opacity="1" clip-path="url(#uCgVhLWCSRpG)" stroke-opacity="1" stroke-linejoin="bevel" stroke-miterlimit="10" stroke-width="1.5" stroke-dasharray=""/><path fill="rgb(255,255,255)" stroke="rgb(255,127,80)" paint-order="fill" d="M 729.919677734375 93.26566314697266 A 2 2 0 1 1 729.9196767343751 93.26366314730599" fill-opacity="1" clip-path="url(#uCgVhLWCSRpG)" stroke-opacity="1" stroke-linejoin="bevel" stroke-miterlimit="10" stroke-width="1.5" stroke-dasharray=""/><path fill="rgb(255,255,255)" stroke="rgb(255,127,80)" paint-order="fill" d="M 704.6806640625 118.5086669921875 A 2 2 0 1 1 704.6806630625001 118.50666699252083" fill-opacity="1" clip-path="url(#uCgVhLWCSRpG)" stroke-opacity="1" stroke-linejoin="bevel" stroke-miterlimit="10" stroke-width="1.5" stroke-dasharray=""/><path fill="rgb(255,255,255)" stroke="rgb(255,127,80)" paint-order="fill" d="M 690.6395874023438 50.88241195678711 A 2 2 0 1 1 690.6395864023439 50.880411957120444" fill-opacity="1" clip-path="url(#uCgVhLWCSRpG)" stroke-opacity="1" stroke-linejoin="bevel" stroke-miterlimit="10" stroke-width="1.5" stroke-dasharray=""/><path fill="rgb(255,255,255)" stroke="rgb(255,127,80)" paint-order="fill" d="M 663.9134521484375 55.69548034667969 A 2 2 0 1 1 663.9134511484376 55.69348034701302" fill-opacity="1" clip-path="url(#uCgVhLWCSRpG)" stroke-opacity="1" stroke-linejoin="bevel" stroke-miterlimit="10" stroke-width="1.5" stroke-dasharray=""/><path fill="rgb(255,255,255)" stroke="rgb(255,127,80)" paint-order="fill" d="M 650.4847412109375 207.4304656982422 A 2 2 0 1 1 650.4847402109376 207.4284656985755" fill-opacity="1" clip-path="url(#uCgVhLWCSRpG)" stroke-opacity="1" stroke-linejoin="bevel" stroke-miterlimit="10" stroke-width="1.5" stroke-dasharray=""/><path fill="rgb(255,255,255)" stroke="rgb(255,127,80)" paint-order="fill" d="M 622.97119140625 66.395263671875 A 2 2 0 1 1 622.9711904062501 66.39326367220833" fill-opacity="1" clip-path="url(#uCgVhLWCSRpG)" stroke-opacity="1" stroke-linejoin="bevel" stroke-miterlimit="10" stroke-width="1.5" stroke-dasharray=""/><path fill="rgb(255,255,255)" stroke="rgb(255,127,80)" paint-order="fill" d="M 607.0054931640625 157.04827880859375 A 2 2 0 1 1 607.0054921640626 157.04627880892707" fill-opacity="1" clip-path="url(#uCgVhLWCSRpG)" stroke-opacity="1" stroke-linejoin="bevel" stroke-miterlimit="10" stroke-width="1.5" stroke-dasharray=""/><path fill="rgb(255,255,255)" stroke="rgb(255,127,80)" paint-order="fill" d="M 599.7006225585938 46 A 2 2 0 1 1 599.7006215585939 45.998000000333334" fill-opacity="1" clip-path="url(#uCgVhLWCSRpG)" stroke-opacity="1" stroke-linejoin="bevel" stroke-miterlimit="10" stroke-width="1.5" stroke-dasharray=""/><path fill="rgb(255,255,255)" stroke="rgb(255,127,80)" paint-order="fill" d="M 575.1615600585938 136.06439208984375 A 2 2 0 1 1 575.1615590585939 136.06239209017707" fill-opacity="1" clip-path="url(#uCgVhLWCSRpG)" stroke-opacity="1" stroke-linejoin="bevel" stroke-miterlimit="10" stroke-width="1.5" stroke-dasharray=""/><path fill="rgb(255,255,255)" stroke="rgb(255,127,80)" paint-order="fill" d="M 573.8493041992188 159.74932861328125 A 2 2 0 1 1 573.8493031992189 159.74732861361457" fill-opacity="1" clip-path="url(#uCgVhLWCSRpG)" stroke-opacity="1" stroke-linejoin="bevel" stroke-miterlimit="10" stroke-width="1.5" stroke-dasharray=""/><path fill="rgb(255,255,255)" stroke="rgb(255,127,80)" paint-order="fill" d="M 547.7792358398438 118.88946533203125 A 2 2 0 1 1 547.7792348398439 118.88746533236458" fill-opacity="1" clip-path="url(#uCgVhLWCSRpG)" stroke-opacity="1" stroke-linejoin="bevel" stroke-miterlimit="10" stroke-width="1.5" stroke-dasharray=""/><path fill="rgb(255,255,255)" stroke="rgb(255,127,80)" paint-order="fill" d="M 387.81585693359375 47.03877258300781 A 2 2 0 1 1 387.8158559335938 47.03677258334115" fill-opacity="1" clip-path="url(#uCgVhLWCSRpG)" stroke-opacity="1" stroke-linejoin="bevel" stroke-miterlimit="10" stroke-width="1.5" stroke-dasharray=""/><path fill="rgb(255,255,255)" stroke="rgb(255,127,80)" paint-order="fill" d="M 254.09750366210938 58.08467483520508 A 2 2 0 1 1 254.09750266210946 58.08267483553841" fill-opacity="1" clip-path="url(#uCgVhLWCSRpG)" stroke-opacity="1" stroke-linejoin="bevel" stroke-miterlimit="10" stroke-width="1.5" stroke-dasharray=""/><path fill="rgb(255,255,255)" stroke="rgb(255,127,80)" paint-order="fill" d="M 253.79132080078125 50.6399040222168 A 2 2 0 1 1 253.79131980078134 50.63790402255013" fill-opacity="1" clip-path="url(#uCgVhLWCSRpG)" stroke-opacity="1" stroke-linejoin="bevel" stroke-miterlimit="10" stroke-width="1.5" stroke-dasharray=""/><path fill="rgb(255,255,255)" stroke="rgb(255,127,80)" paint-order="fill" d="M 237.0382537841797 130.48953247070312 A 2 2 0 1 1 237.03825278417978 130.48753247103645" fill-opacity="1" clip-path="url(#uCgVhLWCSRpG)" stroke-opacity="1" stroke-linejoin="bevel" stroke-miterlimit="10" stroke-width="1.5" stroke-dasharray=""/><path fill="rgb(255,255,255)" stroke="rgb(255,127,80)" paint-order="fill" d="M 220.41641235351562 59.46977233886719 A 2 2 0 1 1 220.4164113535157 59.46777233920052" fill-opacity="1" clip-path="url(#uCgVhLWCSRpG)" stroke-opacity="1" stroke-linejoin="bevel" stroke-miterlimit="10" stroke-width="1.5" stroke-dasharray=""/><path fill="rgb(255,255,255)" stroke="rgb(255,127,80)" paint-order="fill" d="M 197.10208129882812 51.50571823120117 A 2 2 0 1 1 197.1020802988282 51.503718231534506" fill-opacity="1" clip-path="url(#uCgVhLWCSRpG)" stroke-opacity="1" stroke-linejoin="bevel" stroke-miterlimit="10" stroke-width="1.5" stroke-dasharray=""/><path fill="rgb(255,255,255)" stroke="rgb(255,127,80)" paint-order="fill" d="M 178.24942016601562 61.686012268066406 A 2 2 0 1 1 178.2494191660157 61.68401226839974" fill-opacity="1" clip-path="url(#uCgVhLWCSRpG)" stroke-opacity="1" stroke-linejoin="bevel" stroke-miterlimit="10" stroke-width="1.5" stroke-dasharray=""/><path fill="rgb(255,255,255)" stroke="rgb(255,127,80)" paint-order="fill" d="M 178.20567321777344 66.04893493652344 A 2 2 0 1 1 178.20567221777353 66.04693493685677" fill-opacity="1" clip-path="url(#uCgVhLWCSRpG)" stroke-opacity="1" stroke-linejoin="bevel" stroke-miterlimit="10" stroke-width="1.5" stroke-dasharray=""/><path fill="rgb(255,255,255)" stroke="rgb(255,127,80)" paint-order="fill" d="M 150.12350463867188 146.9373321533203 A 2 2 0 1 1 150.12350363867196 146.93533215365363" fill-opacity="1" clip-path="url(#uCgVhLWCSRpG)" stroke-opacity="1" stroke-linejoin="bevel" stroke-miterlimit="10" stroke-width="1.5" stroke-dasharray=""/><path fill="rgb(255,255,255)" stroke="rgb(255,127,80)" paint-order="fill" d="M 148.33009338378906 186.34275817871094 A 2 2 0 1 1 148.33009238378915 186.34075817904426" fill-opacity="1" clip-path="url(#uCgVhLWCSRpG)" stroke-opacity="1" stroke-linejoin="bevel" stroke-miterlimit="10" stroke-width="1.5" stroke-dasharray=""/><path fill="rgb(255,255,255)" stroke="rgb(255,127,80)" paint-order="fill" d="M 138.44447326660156 69.54624938964844 A 2 2 0 1 1 138.44447226660165 69.54424938998177" fill-opacity="1" clip-path="url(#uCgVhLWCSRpG)" stroke-opacity="1" stroke-linejoin="bevel" stroke-miterlimit="10" stroke-width="1.5" stroke-dasharray=""/><path fill="rgb(255,255,255)" stroke="rgb(255,127,80)" paint-order="fill" d="M 137.17596435546875 308.54095458984375 A 2 2 0 1 1 137.17596335546884 308.53895459017707" fill-opacity="1" clip-path="url(#uCgVhLWCSRpG)" stroke-opacity="1" stroke-linejoin="bevel" stroke-miterlimit="10" stroke-width="1.5" stroke-dasharray=""/><path fill="rgb(255,255,255)" stroke="rgb(255,127,80)" paint-order="fill" d="M 128.03395080566406 86.89434051513672 A 2 2 0 1 1 128.03394980566415 86.89234051547005" fill-opacity="1" clip-path="url(#uCgVhLWCSRpG)" stroke-opacity="1" stroke-linejoin="bevel" stroke-miterlimit="10" stroke-width="1.5" stroke-dasharray=""/><path fill="rgb(255,255,255)" stroke="rgb(255,127,80)" paint-order="fill" d="M 128.42762756347656 336 A 2 2 0 1 1 128.42762656347665 335.9980000003333" fill-opacity="1" clip-path="url(#uCgVhLWCSRpG)" stroke-opacity="1" stroke-linejoin="bevel" stroke-miterlimit="10" stroke-width="1.5" stroke-dasharray=""/><path fill="rgb(255,255,255)" stroke="rgb(255,127,80)" paint-order="fill" d="M 113.81790161132812 81.28480529785156 A 2 2 0 1 1 113.81790061132821 81.2828052981849" fill-opacity="1" clip-path="url(#uCgVhLWCSRpG)" stroke-opacity="1" stroke-linejoin="bevel" stroke-miterlimit="10" stroke-width="1.5" stroke-dasharray=""/><path fill="rgb(255,255,255)" stroke="rgb(255,127,80)" paint-order="fill" d="M 103.58234405517578 96.5898208618164 A 2 2 0 1 1 103.58234305517587 96.58782086214974" fill-opacity="1" clip-path="url(#uCgVhLWCSRpG)" stroke-opacity="1" stroke-linejoin="bevel" stroke-miterlimit="10" stroke-width="1.5" stroke-dasharray=""/><path fill="rgb(255,255,255)" stroke="rgb(255,127,80)" paint-order="fill" d="M 103.36363983154297 289.1151123046875 A 2 2 0 1 1 103.36363883154306 289.1131123050208" fill-opacity="1" clip-path="url(#uCgVhLWCSRpG)" stroke-opacity="1" stroke-linejoin="bevel" stroke-miterlimit="10" stroke-width="1.5" stroke-dasharray=""/><path fill="rgb(255,255,255)" stroke="rgb(255,127,80)" paint-order="fill" d="M 103.45111846923828 120.2400894165039 A 2 2 0 1 1 103.45111746923837 120.23808941683724" fill-opacity="1" clip-path="url(#uCgVhLWCSRpG)" stroke-opacity="1" stroke-linejoin="bevel" stroke-miterlimit="10" stroke-width="1.5" stroke-dasharray=""/><path fill="none" stroke="rgb(0,0,0)" paint-order="fill" d="M 69.5 350.5 L 770.5 350.5" stroke-opacity="1" stroke-linejoin="bevel" stroke-miterlimit="10" stroke-dasharray=""/><path fill="none" stroke="rgb(0,0,0)" paint-order="fill" d="M 221.5 356.5 L 221.5 348.5 M 379.5 356.5 L 379.5 348.5 M 536.5 356.5 L 536.5 348.5 M 694.5 356.5 L 694.5 348.5" stroke-opacity="1" stroke-linejoin="bevel" stroke-miterlimit="10" stroke-dasharray=""/><path fill="none" stroke="rgb(0,0,0)" paint-order="fill" d="" stroke-opacity="1" stroke-linejoin="bevel" stroke-miterlimit="10" stroke-dasharray=""/><text fill="rgb(68,68,68)" stroke="none" font-family="helvetica" font-size="11px" font-style="normal" font-weight="normal" text-decoration="normal" x="215.21159553527832" y="371.4521484375" text-anchor="start" dominant-baseline="alphabetic" transform="matrix(1, 0, 0, 1, 0.5, 0.5)" fill-opacity="1">7h</text><text fill="rgb(68,68,68)" stroke="none" font-family="helvetica" font-size="11px" font-style="normal" font-weight="normal" text-decoration="normal" x="372.68167304992676" y="371.4521484375" text-anchor="start" dominant-baseline="alphabetic" transform="matrix(1, 0, 0, 1, 0.5, 0.5)" fill-opacity="1">8h</text><text fill="rgb(68,68,68)" stroke="none" font-family="helvetica" font-size="11px" font-style="normal" font-weight="normal" text-decoration="normal" x="530.1517658233643" y="371.4521484375" text-anchor="start" dominant-baseline="alphabetic" transform="matrix(1, 0, 0, 1, 0.5, 0.5)" fill-opacity="1">9h</text><text fill="rgb(68,68,68)" stroke="none" font-family="helvetica" font-size="11px" font-style="normal" font-weight="normal" text-decoration="normal" x="684.5635251998901" y="371.4521484375" text-anchor="start" dominant-baseline="alphabetic" transform="matrix(1, 0, 0, 1, 0.5, 0.5)" fill-opacity="1">10h</text><text fill="rgb(68,68,68)" stroke="none" font-family="helvetica" font-size="13px" font-style="italic" font-weight="normal" text-decoration="normal" x="364.70000076293945" y="394.35205078125" text-anchor="start" dominant-baseline="alphabetic" transform="matrix(1, 0, 0, 1, 0.5, 0.5)" fill-opacity="1">Training Start Time</text><path fill="none" stroke="rgb(0,0,0)" paint-order="fill" d="M 69.5 350.5 L 69.5 31.5" stroke-opacity="1" stroke-linejoin="bevel" stroke-miterlimit="10" stroke-dasharray=""/><path fill="none" stroke="rgb(0,0,0)" paint-order="fill" d="M 63.5 290.5 L 71.5 290.5 M 63.5 221.5 L 71.5 221.5 M 63.5 151.5 L 71.5 151.5 M 63.5 82.5 L 71.5 82.5" stroke-opacity="1" stroke-linejoin="bevel" stroke-miterlimit="10" stroke-dasharray=""/><path fill="none" stroke="rgb(0,0,0)" paint-order="fill" d="M 65.5 304.5 L 69.5 304.5 M 65.5 317.5 L 69.5 317.5 M 65.5 331.5 L 69.5 331.5 M 65.5 345.5 L 69.5 345.5 M 65.5 290.5 L 69.5 290.5 M 65.5 276.5 L 69.5 276.5 M 65.5 262.5 L 69.5 262.5 M 65.5 248.5 L 69.5 248.5 M 65.5 234.5 L 69.5 234.5 M 65.5 221.5 L 69.5 221.5 M 65.5 207.5 L 69.5 207.5 M 65.5 193.5 L 69.5 193.5 M 65.5 179.5 L 69.5 179.5 M 65.5 165.5 L 69.5 165.5 M 65.5 151.5 L 69.5 151.5 M 65.5 137.5 L 69.5 137.5 M 65.5 124.5 L 69.5 124.5 M 65.5 110.5 L 69.5 110.5 M 65.5 96.5 L 69.5 96.5 M 65.5 82.5 L 69.5 82.5 M 65.5 68.5 L 69.5 68.5 M 65.5 54.5 L 69.5 54.5 M 65.5 40.5 L 69.5 40.5" stroke-opacity="1" stroke-linejoin="bevel" stroke-miterlimit="10" stroke-dasharray=""/><text fill="rgb(68,68,68)" stroke="none" font-family="helvetica" font-size="11px" font-style="normal" font-weight="normal" text-decoration="normal" x="26.816667556762695" y="293.8020324707031" text-anchor="start" dominant-baseline="alphabetic" transform="matrix(1, 0, 0, 1, 0.5, 0.5)" fill-opacity="1">90.0%</text><text fill="rgb(68,68,68)" stroke="none" font-family="helvetica" font-size="11px" font-style="normal" font-weight="normal" text-decoration="normal" x="26.816667556762695" y="224.54830932617188" text-anchor="start" dominant-baseline="alphabetic" transform="matrix(1, 0, 0, 1, 0.5, 0.5)" fill-opacity="1">92.0%</text><text fill="rgb(68,68,68)" stroke="none" font-family="helvetica" font-size="11px" font-style="normal" font-weight="normal" text-decoration="normal" x="26.816667556762695" y="155.29458618164062" text-anchor="start" dominant-baseline="alphabetic" transform="matrix(1, 0, 0, 1, 0.5, 0.5)" fill-opacity="1">94.0%</text><text fill="rgb(68,68,68)" stroke="none" font-family="helvetica" font-size="11px" font-style="normal" font-weight="normal" text-decoration="normal" x="26.816667556762695" y="86.04086303710938" text-anchor="start" dominant-baseline="alphabetic" transform="matrix(1, 0, 0, 1, 0.5, 0.5)" fill-opacity="1">96.0%</text><text fill="rgb(68,68,68)" stroke="none" font-family="helvetica" font-size="13px" font-style="italic" font-weight="normal" text-decoration="normal" x="-4.649999618530273" y="187.62451171875" text-anchor="start" dominant-baseline="alphabetic" transform="matrix(6.123233995736766e-17, -1, 1, 6.123233995736766e-17, -171.1833324432373, 209.8166675567627)" fill-opacity="1">AUROC</text><path fill="none" stroke="none"/><text fill="rgb(68,68,68)" stroke="none" font-family="helvetica" font-size="12pt" font-style="normal" font-weight="bold" text-decoration="normal" x="0" y="0" text-anchor="middle" dominant-baseline="text-after-edge" transform="matrix(1, 0, 0, 1, 420, 26.5)" fill-opacity="1">Convergence Plot</text></svg>