<svg version="1.1" xmlns="http://www.w3.org/2000/svg" xmlns:xlink="http://www.w3.org/1999/xlink" width="800" height="400"><defs><clipPath id="eJsHqTueXRJs"><path fill="none" stroke="none" d="M 69.5 31.5 L 770.5 31.5 L 770.5 350.5 L 69.5 350.5 L 69.5 31.5"/></clipPath><clipPath id="VDFvyAkOmDWe"><path fill="none" stroke="none" d="M 69.5 31.5 L 770.5 31.5 L 770.5 350.5 L 69.5 350.5 L 69.5 31.5"/></clipPath><clipPath id="afFbarzhbnJr"><path fill="none" stroke="none" d="M 69.5 31.5 L 770.5 31.5 L 770.5 350.5 L 69.5 350.5 L 69.5 31.5"/></clipPath><clipPath id="khCiaTlmcmNd"><path fill="none" stroke="none" d="M 69.5 31.5 L 770.5 31.5 L 770.5 350.5 L 69.5 350.5 L 69.5 31.5"/></clipPath><clipPath id="QmXJXpdTrWXm"><path fill="none" stroke="none" d="M 69.5 31.5 L 770.5 31.5 L 770.5 350.5 L 69.5 350.5 L 69.5 31.5"/></clipPath><clipPath id="GeepizlanTvE"><path fill="none" stroke="none" d="M 69.5 31.5 L 770.5 31.5 L 770.5 350.5 L 69.5 350.5 L 69.5 31.5"/></clipPath></defs><path fill="rgb(255,255,255)" stroke="none" paint-order="stroke" d="M 0.5 0.5 L 800.5 0.5 L 800.5 400.5 L 0.5 400.5 L 0.5 0.5" fill-opacity="1"/><rect fill="#FFFFFF" stroke="none" x="69" y="31" width="701" height="319" transform="matrix(1, 0, 0, 1, 0.5, 0.5)"/><path fill="rgb(255,255,255)" stroke="none" paint-order="stroke" d="M 69.5 31.5 L 770.5 31.5 L 770.5 350.5 L 69.5 350.5 L 69.5 31.5" fill-opacity="1"/><path fill="none" stroke="rgb(229,229,229)" paint-order="fill" d="M 69.5 31.5 L 770.5 31.5 L 770.5 350.5 L 69.5 350.5 L 69.5 31.5" stroke-opacity="1" stroke-linejoin="bevel" stroke-miterlimit="10" stroke-dasharray=""/><path fill="none" stroke="rgb(229,229,229)" paint-order="fill" d="M 69.5 335.5 L 770.5 335.5 M 69.5 283.5 L 770.5 283.5 M 69.5 231.5 L 770.5 231.5 M 69.5 178.5 L 770.5 178.5 M 69.5 126.5 L 770.5 126.5 M 69.5 74.5 L 770.5 74.5" stroke-opacity="1" stroke-linejoin="bevel" stroke-miterlimit="10" stroke-dasharray="" clip-path="url(#VDFvyAkOmDWe)"/><path fill="none" stroke="none"/><path fill="none" stroke="rgb(255,127,80)" paint-order="fill" d="M 738.6363525390625 46 L 710.8152465820312 71.86817932128906 L 666.3013916015625 85.14126586914062 L 638.4802856445312 46.052223205566406 L 636.3726196289062 52.023681640625 L 607.792724609375 68.16522216796875 L 581.15185546875 67.72193908691406 L 533.5186767578125 48.68598175048828 L 470.1202087402344 48.24269485473633 L 463.1227722167969 48.268653869628906 L 441.793212890625 49.10315704345703 L 425.1848449707031 52.70182418823242 L 406.46881103515625 66.54859924316406 L 385.8980407714844 106.21133422851562 L 352.2597351074219 119.11930847167969 L 341.468505859375 135.9388427734375 L 339.4451599121094 56.61321258544922 L 267.4474182128906 56.61321258544922 L 263.2320861816406 62.5848274230957 L 264.0751647949219 59.2730827331543 L 240.30072021484375 224.0784149169922 L 220.06716918945312 70.7208023071289 L 187.4405517578125 124.80415344238281 L 171.42233276367188 96.35428619384766 L 149.5026397705078 157.26971435546875 L 126.318359375 336 L 101.36363983154297 58.30833053588867 L 102.88114929199219 217.063720703125 L 102.29100799560547 46.469398498535156" stroke-opacity="1" stroke-linejoin="bevel" stroke-miterlimit="10" stroke-width="1.5" stroke-dasharray="" clip-path="url(#afFbarzhbnJr)"/><path fill="none" stroke="none"/><path fill="rgb(255,255,255)" stroke="rgb(255,127,80)" paint-order="fill" d="M 740.6363525390625 46 A 2 2 0 1 1 740.6363515390626 45.998000000333334" fill-opacity="1" clip-path="url(#khCiaTlmcmNd)" stroke-opacity="1" stroke-linejoin="bevel" stroke-miterlimit="10" stroke-width="1.5" stroke-dasharray=""/><path fill="rgb(255,255,255)" stroke="rgb(255,127,80)" paint-order="fill" d="M 712.8152465820312 71.86817932128906 A 2 2 0 1 1 712.8152455820314 71.8661793216224" fill-opacity="1" clip-path="url(#khCiaTlmcmNd)" stroke-opacity="1" stroke-linejoin="bevel" stroke-miterlimit="10" stroke-width="1.5" stroke-dasharray=""/><path fill="rgb(255,255,255)" stroke="rgb(255,127,80)" paint-order="fill" d="M 668.3013916015625 85.14126586914062 A 2 2 0 1 1 668.3013906015626 85.13926586947396" fill-opacity="1" clip-path="url(#khCiaTlmcmNd)" stroke-opacity="1" stroke-linejoin="bevel" stroke-miterlimit="10" stroke-width="1.5" stroke-dasharray=""/><path fill="rgb(255,255,255)" stroke="rgb(255,127,80)" paint-order="fill" d="M 640.4802856445312 46.052223205566406 A 2 2 0 1 1 640.4802846445314 46.05022320589974" fill-opacity="1" clip-path="url(#khCiaTlmcmNd)" stroke-opacity="1" stroke-linejoin="bevel" stroke-miterlimit="10" stroke-width="1.5" stroke-dasharray=""/><path fill="rgb(255,255,255)" stroke="rgb(255,127,80)" paint-order="fill" d="M 638.3726196289062 52.023681640625 A 2 2 0 1 1 638.3726186289064 52.021681640958334" fill-opacity="1" clip-path="url(#khCiaTlmcmNd)" stroke-opacity="1" stroke-linejoin="bevel" stroke-miterlimit="10" stroke-width="1.5" stroke-dasharray=""/><path fill="rgb(255,255,255)" stroke="rgb(255,127,80)" paint-order="fill" d="M 609.792724609375 68.16522216796875 A 2 2 0 1 1 609.7927236093751 68.16322216830208" fill-opacity="1" clip-path="url(#khCiaTlmcmNd)" stroke-opacity="1" stroke-linejoin="bevel" stroke-miterlimit="10" stroke-width="1.5" stroke-dasharray=""/><path fill="rgb(255,255,255)" stroke="rgb(255,127,80)" paint-order="fill" d="M 583.15185546875 67.72193908691406 A 2 2 0 1 1 583.1518544687501 67.7199390872474" fill-opacity="1" clip-path="url(#khCiaTlmcmNd)" stroke-opacity="1" stroke-linejoin="bevel" stroke-miterlimit="10" stroke-width="1.5" stroke-dasharray=""/><path fill="rgb(255,255,255)" stroke="rgb(255,127,80)" paint-order="fill" d="M 535.5186767578125 48.68598175048828 A 2 2 0 1 1 535.5186757578126 48.683981750821616" fill-opacity="1" clip-path="url(#khCiaTlmcmNd)" stroke-opacity="1" stroke-linejoin="bevel" stroke-miterlimit="10" stroke-width="1.5" stroke-dasharray=""/><path fill="rgb(255,255,255)" stroke="rgb(255,127,80)" paint-order="fill" d="M 472.1202087402344 48.24269485473633 A 2 2 0 1 1 472.12020774023443 48.24069485506966" fill-opacity="1" clip-path="url(#khCiaTlmcmNd)" stroke-opacity="1" stroke-linejoin="bevel" stroke-miterlimit="10" stroke-width="1.5" stroke-dasharray=""/><path fill="rgb(255,255,255)" stroke="rgb(255,127,80)" paint-order="fill" d="M 465.1227722167969 48.268653869628906 A 2 2 0 1 1 465.12277121679693 48.26665386996224" fill-opacity="1" clip-path="url(#khCiaTlmcmNd)" stroke-opacity="1" stroke-linejoin="bevel" stroke-miterlimit="10" stroke-width="1.5" stroke-dasharray=""/><path fill="rgb(255,255,255)" stroke="rgb(255,127,80)" paint-order="fill" d="M 443.793212890625 49.10315704345703 A 2 2 0 1 1 443.79321189062506 49.101157043790366" fill-opacity="1" clip-path="url(#khCiaTlmcmNd)" stroke-opacity="1" stroke-linejoin="bevel" stroke-miterlimit="10" stroke-width="1.5" stroke-dasharray=""/><path fill="rgb(255,255,255)" stroke="rgb(255,127,80)" paint-order="fill" d="M 427.1848449707031 52.70182418823242 A 2 2 0 1 1 427.1848439707032 52.699824188565756" fill-opacity="1" clip-path="url(#khCiaTlmcmNd)" stroke-opacity="1" stroke-linejoin="bevel" stroke-miterlimit="10" stroke-width="1.5" stroke-dasharray=""/><path fill="rgb(255,255,255)" stroke="rgb(255,127,80)" paint-order="fill" d="M 408.46881103515625 66.54859924316406 A 2 2 0 1 1 408.4688100351563 66.5465992434974" fill-opacity="1" clip-path="url(#khCiaTlmcmNd)" stroke-opacity="1" stroke-linejoin="bevel" stroke-miterlimit="10" stroke-width="1.5" stroke-dasharray=""/><path fill="rgb(255,255,255)" stroke="rgb(255,127,80)" paint-order="fill" d="M 387.8980407714844 106.21133422851562 A 2 2 0 1 1 387.89803977148443 106.20933422884896" fill-opacity="1" clip-path="url(#khCiaTlmcmNd)" stroke-opacity="1" stroke-linejoin="bevel" stroke-miterlimit="10" stroke-width="1.5" stroke-dasharray=""/><path fill="rgb(255,255,255)" stroke="rgb(255,127,80)" paint-order="fill" d="M 354.2597351074219 119.11930847167969 A 2 2 0 1 1 354.25973410742193 119.11730847201302" fill-opacity="1" clip-path="url(#khCiaTlmcmNd)" stroke-opacity="1" stroke-linejoin="bevel" stroke-miterlimit="10" stroke-width="1.5" stroke-dasharray=""/><path fill="rgb(255,255,255)" stroke="rgb(255,127,80)" paint-order="fill" d="M 343.468505859375 135.9388427734375 A 2 2 0 1 1 343.46850485937506 135.93684277377082" fill-opacity="1" clip-path="url(#khCiaTlmcmNd)" stroke-opacity="1" stroke-linejoin="bevel" stroke-miterlimit="10" stroke-width="1.5" stroke-dasharray=""/><path fill="rgb(255,255,255)" stroke="rgb(255,127,80)" paint-order="fill" d="M 341.4451599121094 56.61321258544922 A 2 2 0 1 1 341.44515891210943 56.61121258578255" fill-opacity="1" clip-path="url(#khCiaTlmcmNd)" stroke-opacity="1" stroke-linejoin="bevel" stroke-miterlimit="10" stroke-width="1.5" stroke-dasharray=""/><path fill="rgb(255,255,255)" stroke="rgb(255,127,80)" paint-order="fill" d="M 269.4474182128906 56.61321258544922 A 2 2 0 1 1 269.4474172128907 56.61121258578255" fill-opacity="1" clip-path="url(#khCiaTlmcmNd)" stroke-opacity="1" stroke-linejoin="bevel" stroke-miterlimit="10" stroke-width="1.5" stroke-dasharray=""/><path fill="rgb(255,255,255)" stroke="rgb(255,127,80)" paint-order="fill" d="M 265.2320861816406 62.5848274230957 A 2 2 0 1 1 265.2320851816407 62.58282742342904" fill-opacity="1" clip-path="url(#khCiaTlmcmNd)" stroke-opacity="1" stroke-linejoin="bevel" stroke-miterlimit="10" stroke-width="1.5" stroke-dasharray=""/><path fill="rgb(255,255,255)" stroke="rgb(255,127,80)" paint-order="fill" d="M 266.0751647949219 59.2730827331543 A 2 2 0 1 1 266.07516379492193 59.27108273348763" fill-opacity="1" clip-path="url(#khCiaTlmcmNd)" stroke-opacity="1" stroke-linejoin="bevel" stroke-miterlimit="10" stroke-width="1.5" stroke-dasharray=""/><path fill="rgb(255,255,255)" stroke="rgb(255,127,80)" paint-order="fill" d="M 242.30072021484375 224.0784149169922 A 2 2 0 1 1 242.30071921484384 224.0764149173255" fill-opacity="1" clip-path="url(#khCiaTlmcmNd)" stroke-opacity="1" stroke-linejoin="bevel" stroke-miterlimit="10" stroke-width="1.5" stroke-dasharray=""/><path fill="rgb(255,255,255)" stroke="rgb(255,127,80)" paint-order="fill" d="M 222.06716918945312 70.7208023071289 A 2 2 0 1 1 222.0671681894532 70.71880230746224" fill-opacity="1" clip-path="url(#khCiaTlmcmNd)" stroke-opacity="1" stroke-linejoin="bevel" stroke-miterlimit="10" stroke-width="1.5" stroke-dasharray=""/><path fill="rgb(255,255,255)" stroke="rgb(255,127,80)" paint-order="fill" d="M 189.4405517578125 124.80415344238281 A 2 2 0 1 1 189.4405507578126 124.80215344271615" fill-opacity="1" clip-path="url(#khCiaTlmcmNd)" stroke-opacity="1" stroke-linejoin="bevel" stroke-miterlimit="10" stroke-width="1.5" stroke-dasharray=""/><path fill="rgb(255,255,255)" stroke="rgb(255,127,80)" paint-order="fill" d="M 173.42233276367188 96.35428619384766 A 2 2 0 1 1 173.42233176367196 96.35228619418099" fill-opacity="1" clip-path="url(#khCiaTlmcmNd)" stroke-opacity="1" stroke-linejoin="bevel" stroke-miterlimit="10" stroke-width="1.5" stroke-dasharray=""/><path fill="rgb(255,255,255)" stroke="rgb(255,127,80)" paint-order="fill" d="M 151.5026397705078 157.26971435546875 A 2 2 0 1 1 151.5026387705079 157.26771435580207" fill-opacity="1" clip-path="url(#khCiaTlmcmNd)" stroke-opacity="1" stroke-linejoin="bevel" stroke-miterlimit="10" stroke-width="1.5" stroke-dasharray=""/><path fill="rgb(255,255,255)" stroke="rgb(255,127,80)" paint-order="fill" d="M 128.318359375 336 A 2 2 0 1 1 128.3183583750001 335.9980000003333" fill-opacity="1" clip-path="url(#khCiaTlmcmNd)" stroke-opacity="1" stroke-linejoin="bevel" stroke-miterlimit="10" stroke-width="1.5" stroke-dasharray=""/><path fill="rgb(255,255,255)" stroke="rgb(255,127,80)" paint-order="fill" d="M 103.36363983154297 58.30833053588867 A 2 2 0 1 1 103.36363883154306 58.306330536222006" fill-opacity="1" clip-path="url(#khCiaTlmcmNd)" stroke-opacity="1" stroke-linejoin="bevel" stroke-miterlimit="10" stroke-width="1.5" stroke-dasharray=""/><path fill="rgb(255,255,255)" stroke="rgb(255,127,80)" paint-order="fill" d="M 104.88114929199219 217.063720703125 A 2 2 0 1 1 104.88114829199228 217.06172070345832" fill-opacity="1" clip-path="url(#khCiaTlmcmNd)" stroke-opacity="1" stroke-linejoin="bevel" stroke-miterlimit="10" stroke-width="1.5" stroke-dasharray=""/><path fill="rgb(255,255,255)" stroke="rgb(255,127,80)" paint-order="fill" d="M 104.29100799560547 46.469398498535156 A 2 2 0 1 1 104.29100699560556 46.46739849886849" fill-opacity="1" clip-path="url(#khCiaTlmcmNd)" stroke-opacity="1" stroke-linejoin="bevel" stroke-miterlimit="10" stroke-width="1.5" stroke-dasharray=""/><path fill="none" stroke="rgb(0,0,0)" paint-order="fill" d="M 69.5 350.5 L 770.5 350.5" stroke-opacity="1" stroke-linejoin="bevel" stroke-miterlimit="10" stroke-dasharray=""/><path fill="none" stroke="rgb(0,0,0)" paint-order="fill" d="M 100.5 356.5 L 100.5 348.5 M 201.5 356.5 L 201.5 348.5 M 303.5 356.5 L 303.5 348.5 M 404.5 356.5 L 404.5 348.5 M 505.5 356.5 L 505.5 348.5 M 606.5 356.5 L 606.5 348.5 M 707.5 356.5 L 707.5 348.5" stroke-opacity="1" stroke-linejoin="bevel" stroke-miterlimit="10" stroke-dasharray=""/><path fill="none" stroke="rgb(0,0,0)" paint-order="fill" d="" stroke-opacity="1" stroke-linejoin="bevel" stroke-miterlimit="10" stroke-dasharray=""/><text fill="rgb(68,68,68)" stroke="none" font-family="helvetica" font-size="11px" font-style="normal" font-weight="normal" text-decoration="normal" x="89.57349109649658" y="371.4521484375" text-anchor="start" dominant-baseline="alphabetic" transform="matrix(1, 0, 0, 1, 0.5, 0.5)" fill-opacity="1">4:40</text><text fill="rgb(68,68,68)" stroke="none" font-family="helvetica" font-size="11px" font-style="normal" font-weight="normal" text-decoration="normal" x="190.7412691116333" y="371.4521484375" text-anchor="start" dominant-baseline="alphabetic" transform="matrix(1, 0, 0, 1, 0.5, 0.5)" fill-opacity="1">5:00</text><text fill="rgb(68,68,68)" stroke="none" font-family="helvetica" font-size="11px" font-style="normal" font-weight="normal" text-decoration="normal" x="291.9090700149536" y="371.4521484375" text-anchor="start" dominant-baseline="alphabetic" transform="matrix(1, 0, 0, 1, 0.5, 0.5)" fill-opacity="1">5:20</text><text fill="rgb(68,68,68)" stroke="none" font-family="helvetica" font-size="11px" font-style="normal" font-weight="normal" text-decoration="normal" x="393.07685565948486" y="371.4521484375" text-anchor="start" dominant-baseline="alphabetic" transform="matrix(1, 0, 0, 1, 0.5, 0.5)" fill-opacity="1">5:40</text><text fill="rgb(68,68,68)" stroke="none" font-family="helvetica" font-size="11px" font-style="normal" font-weight="normal" text-decoration="normal" x="494.244610786438" y="371.4521484375" text-anchor="start" dominant-baseline="alphabetic" transform="matrix(1, 0, 0, 1, 0.5, 0.5)" fill-opacity="1">6:00</text><text fill="rgb(68,68,68)" stroke="none" font-family="helvetica" font-size="11px" font-style="normal" font-weight="normal" text-decoration="normal" x="595.4124269485474" y="371.4521484375" text-anchor="start" dominant-baseline="alphabetic" transform="matrix(1, 0, 0, 1, 0.5, 0.5)" fill-opacity="1">6:20</text><text fill="rgb(68,68,68)" stroke="none" font-family="helvetica" font-size="11px" font-style="normal" font-weight="normal" text-decoration="normal" x="696.5802125930786" y="371.4521484375" text-anchor="start" dominant-baseline="alphabetic" transform="matrix(1, 0, 0, 1, 0.5, 0.5)" fill-opacity="1">6:40</text><text fill="rgb(68,68,68)" stroke="none" font-family="helvetica" font-size="13px" font-style="italic" font-weight="normal" text-decoration="normal" x="364.70000076293945" y="394.35205078125" text-anchor="start" dominant-baseline="alphabetic" transform="matrix(1, 0, 0, 1, 0.5, 0.5)" fill-opacity="1">Training Start Time</text><path fill="none" stroke="rgb(0,0,0)" paint-order="fill" d="M 69.5 350.5 L 69.5 31.5" stroke-opacity="1" stroke-linejoin="bevel" stroke-miterlimit="10" stroke-dasharray=""/><path fill="none" stroke="rgb(0,0,0)" paint-order="fill" d="M 63.5 335.5 L 71.5 335.5 M 63.5 283.5 L 71.5 283.5 M 63.5 231.5 L 71.5 231.5 M 63.5 178.5 L 71.5 178.5 M 63.5 126.5 L 71.5 126.5 M 63.5 74.5 L 71.5 74.5" stroke-opacity="1" stroke-linejoin="bevel" stroke-miterlimit="10" stroke-dasharray=""/><path fill="none" stroke="rgb(0,0,0)" paint-order="fill" d="M 65.5 345.5 L 69.5 345.5 M 65.5 335.5 L 69.5 335.5 M 65.5 324.5 L 69.5 324.5 M 65.5 314.5 L 69.5 314.5 M 65.5 304.5 L 69.5 304.5 M 65.5 293.5 L 69.5 293.5 M 65.5 283.5 L 69.5 283.5 M 65.5 272.5 L 69.5 272.5 M 65.5 262.5 L 69.5 262.5 M 65.5 251.5 L 69.5 251.5 M 65.5 241.5 L 69.5 241.5 M 65.5 231.5 L 69.5 231.5 M 65.5 220.5 L 69.5 220.5 M 65.5 210.5 L 69.5 210.5 M 65.5 199.5 L 69.5 199.5 M 65.5 189.5 L 69.5 189.5 M 65.5 178.5 L 69.5 178.5 M 65.5 168.5 L 69.5 168.5 M 65.5 157.5 L 69.5 157.5 M 65.5 147.5 L 69.5 147.5 M 65.5 137.5 L 69.5 137.5 M 65.5 126.5 L 69.5 126.5 M 65.5 116.5 L 69.5 116.5 M 65.5 105.5 L 69.5 105.5 M 65.5 95.5 L 69.5 95.5 M 65.5 84.5 L 69.5 84.5 M 65.5 74.5 L 69.5 74.5 M 65.5 64.5 L 69.5 64.5 M 65.5 53.5 L 69.5 53.5 M 65.5 43.5 L 69.5 43.5 M 65.5 32.5 L 69.5 32.5" stroke-opacity="1" stroke-linejoin="bevel" stroke-miterlimit="10" stroke-dasharray=""/><text fill="rgb(68,68,68)" stroke="none" font-family="helvetica" font-size="11px" font-style="normal" font-weight="normal" text-decoration="normal" x="26.816667556762695" y="338.8315734863281" text-anchor="start" dominant-baseline="alphabetic" transform="matrix(1, 0, 0, 1, 0.5, 0.5)" fill-opacity="1">86.0%</text><text fill="rgb(68,68,68)" stroke="none" font-family="helvetica" font-size="11px" font-style="normal" font-weight="normal" text-decoration="normal" x="26.816667556762695" y="286.677978515625" text-anchor="start" dominant-baseline="alphabetic" transform="matrix(1, 0, 0, 1, 0.5, 0.5)" fill-opacity="1">88.0%</text><text fill="rgb(68,68,68)" stroke="none" font-family="helvetica" font-size="11px" font-style="normal" font-weight="normal" text-decoration="normal" x="26.816667556762695" y="234.52439880371094" text-anchor="start" dominant-baseline="alphabetic" transform="matrix(1, 0, 0, 1, 0.5, 0.5)" fill-opacity="1">90.0%</text><text fill="rgb(68,68,68)" stroke="none" font-family="helvetica" font-size="11px" font-style="normal" font-weight="normal" text-decoration="normal" x="26.816667556762695" y="182.3708038330078" text-anchor="start" dominant-baseline="alphabetic" transform="matrix(1, 0, 0, 1, 0.5, 0.5)" fill-opacity="1">92.0%</text><text fill="rgb(68,68,68)" stroke="none" font-family="helvetica" font-size="11px" font-style="normal" font-weight="normal" text-decoration="normal" x="26.816667556762695" y="130.21721649169922" text-anchor="start" dominant-baseline="alphabetic" transform="matrix(1, 0, 0, 1, 0.5, 0.5)" fill-opacity="1">94.0%</text><text fill="rgb(68,68,68)" stroke="none" font-family="helvetica" font-size="11px" font-style="normal" font-weight="normal" text-decoration="normal" x="26.816667556762695" y="78.06362915039062" text-anchor="start" dominant-baseline="alphabetic" transform="matrix(1, 0, 0, 1, 0.5, 0.5)" fill-opacity="1">96.0%</text><text fill="rgb(68,68,68)" stroke="none" font-family="helvetica" font-size="13px" font-style="italic" font-weight="normal" text-decoration="normal" x="-4.649999618530273" y="187.62451171875" text-anchor="start" dominant-baseline="alphabetic" transform="matrix(6.123233995736766e-17, -1, 1, 6.123233995736766e-17, -171.1833324432373, 209.8166675567627)" fill-opacity="1">AUROC</text><path fill="none" stroke="none"/><text fill="rgb(68,68,68)" stroke="none" font-family="helvetica" font-size="12pt" font-style="normal" font-weight="bold" text-decoration="normal" x="0" y="0" text-anchor="middle" dominant-baseline="text-after-edge" transform="matrix(1, 0, 0, 1, 420, 26.5)" fill-opacity="1">Convergence Plot</text></svg>