<svg version="1.1" xmlns="http://www.w3.org/2000/svg" xmlns:xlink="http://www.w3.org/1999/xlink" width="800" height="400"><defs><clipPath id="hPaJnTDuvdmO"><path fill="none" stroke="none" d="M 69.5 31.5 L 770.5 31.5 L 770.5 350.5 L 69.5 350.5 L 69.5 31.5"/></clipPath><clipPath id="vWgchvalaPXg"><path fill="none" stroke="none" d="M 69.5 31.5 L 770.5 31.5 L 770.5 350.5 L 69.5 350.5 L 69.5 31.5"/></clipPath><clipPath id="XsuZgTEXWBTt"><path fill="none" stroke="none" d="M 69.5 31.5 L 770.5 31.5 L 770.5 350.5 L 69.5 350.5 L 69.5 31.5"/></clipPath><clipPath id="EmGtoSZfTkrW"><path fill="none" stroke="none" d="M 69.5 31.5 L 770.5 31.5 L 770.5 350.5 L 69.5 350.5 L 69.5 31.5"/></clipPath><clipPath id="TSPpZuBGZsif"><path fill="none" stroke="none" d="M 69.5 31.5 L 770.5 31.5 L 770.5 350.5 L 69.5 350.5 L 69.5 31.5"/></clipPath><clipPath id="QxJOmNzCATmP"><path fill="none" stroke="none" d="M 69.5 31.5 L 770.5 31.5 L 770.5 350.5 L 69.5 350.5 L 69.5 31.5"/></clipPath></defs><path fill="rgb(255,255,255)" stroke="none" paint-order="stroke" d="M 0.5 0.5 L 800.5 0.5 L 800.5 400.5 L 0.5 400.5 L 0.5 0.5" fill-opacity="1"/><rect fill="#FFFFFF" stroke="none" x="69" y="31" width="701" height="319" transform="matrix(1, 0, 0, 1, 0.5, 0.5)"/><path fill="rgb(255,255,255)" stroke="none" paint-order="stroke" d="M 69.5 31.5 L 770.5 31.5 L 770.5 350.5 L 69.5 350.5 L 69.5 31.5" fill-opacity="1"/><path fill="none" stroke="rgb(229,229,229)" paint-order="fill" d="M 69.5 31.5 L 770.5 31.5 L 770.5 350.5 L 69.5 350.5 L 69.5 31.5" stroke-opacity="1" stroke-linejoin="bevel" stroke-miterlimit="10" stroke-dasharray=""/><path fill="none" stroke="rgb(229,229,229)" paint-order="fill" d="M 69.5 311.5 L 770.5 311.5 M 69.5 263.5 L 770.5 263.5 M 69.5 216.5 L 770.5 216.5 M 69.5 168.5 L 770.5 168.5 M 69.5 120.5 L 770.5 120.5 M 69.5 73.5 L 770.5 73.5" stroke-opacity="1" stroke-linejoin="bevel" stroke-miterlimit="10" stroke-dasharray="" clip-path="url(#vWgchvalaPXg)"/><path fill="none" stroke="none"/><path fill="none" stroke="rgb(255,127,80)" paint-order="fill" d="M 101.36363983154297 192.64694213867188 L 104.27569580078125 130.39833068847656 L 104.74370574951172 88.3661880493164 L 137.24435424804688 105.31266021728516 L 137.55636596679688 157.51272583007812 L 153.5206756591797 70.41716003417969 L 154.50869750976562 95.2164535522461 L 155.80873107910156 100.5390625 L 188.0493621826172 57.3851432800293 L 189.29739379882812 336 L 199.95761108398438 54.97444152832031 L 206.30172729492188 57.26578140258789 L 283.99127197265625 52.51593780517578 L 288.931396484375 75.69210815429688 L 316.43994140625 194.0550994873047 L 331.6762390136719 57.33734130859375 L 369.9490051269531 47.69453430175781 L 393.0894775390625 149.7794189453125 L 410.19781494140625 47.861698150634766 L 502.8116455078125 60.63123321533203 L 521.5320434570312 106.1242904663086 L 560.5847778320312 52.56373977661133 L 587.2613525390625 57.33734130859375 L 594.33349609375 46 L 633.1262817382812 56.57365798950195 L 643.3704833984375 221.83786010742188 L 659.2307739257812 72.3505630493164 L 687.6233520507812 51.27480697631836 L 698.8035888671875 54.25841522216797 L 738.6363525390625 50.51097869873047" stroke-opacity="1" stroke-linejoin="bevel" stroke-miterlimit="10" stroke-width="1.5" stroke-dasharray="" clip-path="url(#XsuZgTEXWBTt)"/><path fill="none" stroke="none"/><path fill="rgb(255,255,255)" stroke="rgb(255,127,80)" paint-order="fill" d="M 103.36363983154297 192.64694213867188 A 2 2 0 1 1 103.36363883154306 192.6449421390052" fill-opacity="1" clip-path="url(#EmGtoSZfTkrW)" stroke-opacity="1" stroke-linejoin="bevel" stroke-miterlimit="10" stroke-width="1.5" stroke-dasharray=""/><path fill="rgb(255,255,255)" stroke="rgb(255,127,80)" paint-order="fill" d="M 106.27569580078125 130.39833068847656 A 2 2 0 1 1 106.27569480078134 130.39633068880988" fill-opacity="1" clip-path="url(#EmGtoSZfTkrW)" stroke-opacity="1" stroke-linejoin="bevel" stroke-miterlimit="10" stroke-width="1.5" stroke-dasharray=""/><path fill="rgb(255,255,255)" stroke="rgb(255,127,80)" paint-order="fill" d="M 106.74370574951172 88.3661880493164 A 2 2 0 1 1 106.7437047495118 88.36418804964974" fill-opacity="1" clip-path="url(#EmGtoSZfTkrW)" stroke-opacity="1" stroke-linejoin="bevel" stroke-miterlimit="10" stroke-width="1.5" stroke-dasharray=""/><path fill="rgb(255,255,255)" stroke="rgb(255,127,80)" paint-order="fill" d="M 139.24435424804688 105.31266021728516 A 2 2 0 1 1 139.24435324804696 105.31066021761849" fill-opacity="1" clip-path="url(#EmGtoSZfTkrW)" stroke-opacity="1" stroke-linejoin="bevel" stroke-miterlimit="10" stroke-width="1.5" stroke-dasharray=""/><path fill="rgb(255,255,255)" stroke="rgb(255,127,80)" paint-order="fill" d="M 139.55636596679688 157.51272583007812 A 2 2 0 1 1 139.55636496679696 157.51072583041145" fill-opacity="1" clip-path="url(#EmGtoSZfTkrW)" stroke-opacity="1" stroke-linejoin="bevel" stroke-miterlimit="10" stroke-width="1.5" stroke-dasharray=""/><path fill="rgb(255,255,255)" stroke="rgb(255,127,80)" paint-order="fill" d="M 155.5206756591797 70.41716003417969 A 2 2 0 1 1 155.52067465917978 70.41516003451302" fill-opacity="1" clip-path="url(#EmGtoSZfTkrW)" stroke-opacity="1" stroke-linejoin="bevel" stroke-miterlimit="10" stroke-width="1.5" stroke-dasharray=""/><path fill="rgb(255,255,255)" stroke="rgb(255,127,80)" paint-order="fill" d="M 156.50869750976562 95.2164535522461 A 2 2 0 1 1 156.5086965097657 95.21445355257943" fill-opacity="1" clip-path="url(#EmGtoSZfTkrW)" stroke-opacity="1" stroke-linejoin="bevel" stroke-miterlimit="10" stroke-width="1.5" stroke-dasharray=""/><path fill="rgb(255,255,255)" stroke="rgb(255,127,80)" paint-order="fill" d="M 157.80873107910156 100.5390625 A 2 2 0 1 1 157.80873007910165 100.53706250033333" fill-opacity="1" clip-path="url(#EmGtoSZfTkrW)" stroke-opacity="1" stroke-linejoin="bevel" stroke-miterlimit="10" stroke-width="1.5" stroke-dasharray=""/><path fill="rgb(255,255,255)" stroke="rgb(255,127,80)" paint-order="fill" d="M 190.0493621826172 57.3851432800293 A 2 2 0 1 1 190.04936118261728 57.38314328036263" fill-opacity="1" clip-path="url(#EmGtoSZfTkrW)" stroke-opacity="1" stroke-linejoin="bevel" stroke-miterlimit="10" stroke-width="1.5" stroke-dasharray=""/><path fill="rgb(255,255,255)" stroke="rgb(255,127,80)" paint-order="fill" d="M 191.29739379882812 336 A 2 2 0 1 1 191.2973927988282 335.9980000003333" fill-opacity="1" clip-path="url(#EmGtoSZfTkrW)" stroke-opacity="1" stroke-linejoin="bevel" stroke-miterlimit="10" stroke-width="1.5" stroke-dasharray=""/><path fill="rgb(255,255,255)" stroke="rgb(255,127,80)" paint-order="fill" d="M 201.95761108398438 54.97444152832031 A 2 2 0 1 1 201.95761008398446 54.97244152865365" fill-opacity="1" clip-path="url(#EmGtoSZfTkrW)" stroke-opacity="1" stroke-linejoin="bevel" stroke-miterlimit="10" stroke-width="1.5" stroke-dasharray=""/><path fill="rgb(255,255,255)" stroke="rgb(255,127,80)" paint-order="fill" d="M 208.30172729492188 57.26578140258789 A 2 2 0 1 1 208.30172629492196 57.263781402921225" fill-opacity="1" clip-path="url(#EmGtoSZfTkrW)" stroke-opacity="1" stroke-linejoin="bevel" stroke-miterlimit="10" stroke-width="1.5" stroke-dasharray=""/><path fill="rgb(255,255,255)" stroke="rgb(255,127,80)" paint-order="fill" d="M 285.99127197265625 52.51593780517578 A 2 2 0 1 1 285.9912709726563 52.513937805509116" fill-opacity="1" clip-path="url(#EmGtoSZfTkrW)" stroke-opacity="1" stroke-linejoin="bevel" stroke-miterlimit="10" stroke-width="1.5" stroke-dasharray=""/><path fill="rgb(255,255,255)" stroke="rgb(255,127,80)" paint-order="fill" d="M 290.931396484375 75.69210815429688 A 2 2 0 1 1 290.93139548437506 75.69010815463021" fill-opacity="1" clip-path="url(#EmGtoSZfTkrW)" stroke-opacity="1" stroke-linejoin="bevel" stroke-miterlimit="10" stroke-width="1.5" stroke-dasharray=""/><path fill="rgb(255,255,255)" stroke="rgb(255,127,80)" paint-order="fill" d="M 318.43994140625 194.0550994873047 A 2 2 0 1 1 318.43994040625006 194.053099487638" fill-opacity="1" clip-path="url(#EmGtoSZfTkrW)" stroke-opacity="1" stroke-linejoin="bevel" stroke-miterlimit="10" stroke-width="1.5" stroke-dasharray=""/><path fill="rgb(255,255,255)" stroke="rgb(255,127,80)" paint-order="fill" d="M 333.6762390136719 57.33734130859375 A 2 2 0 1 1 333.67623801367193 57.335341308927084" fill-opacity="1" clip-path="url(#EmGtoSZfTkrW)" stroke-opacity="1" stroke-linejoin="bevel" stroke-miterlimit="10" stroke-width="1.5" stroke-dasharray=""/><path fill="rgb(255,255,255)" stroke="rgb(255,127,80)" paint-order="fill" d="M 371.9490051269531 47.69453430175781 A 2 2 0 1 1 371.9490041269532 47.69253430209115" fill-opacity="1" clip-path="url(#EmGtoSZfTkrW)" stroke-opacity="1" stroke-linejoin="bevel" stroke-miterlimit="10" stroke-width="1.5" stroke-dasharray=""/><path fill="rgb(255,255,255)" stroke="rgb(255,127,80)" paint-order="fill" d="M 395.0894775390625 149.7794189453125 A 2 2 0 1 1 395.08947653906256 149.77741894564582" fill-opacity="1" clip-path="url(#EmGtoSZfTkrW)" stroke-opacity="1" stroke-linejoin="bevel" stroke-miterlimit="10" stroke-width="1.5" stroke-dasharray=""/><path fill="rgb(255,255,255)" stroke="rgb(255,127,80)" paint-order="fill" d="M 412.19781494140625 47.861698150634766 A 2 2 0 1 1 412.1978139414063 47.8596981509681" fill-opacity="1" clip-path="url(#EmGtoSZfTkrW)" stroke-opacity="1" stroke-linejoin="bevel" stroke-miterlimit="10" stroke-width="1.5" stroke-dasharray=""/><path fill="rgb(255,255,255)" stroke="rgb(255,127,80)" paint-order="fill" d="M 504.8116455078125 60.63123321533203 A 2 2 0 1 1 504.81164450781256 60.629233215665366" fill-opacity="1" clip-path="url(#EmGtoSZfTkrW)" stroke-opacity="1" stroke-linejoin="bevel" stroke-miterlimit="10" stroke-width="1.5" stroke-dasharray=""/><path fill="rgb(255,255,255)" stroke="rgb(255,127,80)" paint-order="fill" d="M 523.5320434570312 106.1242904663086 A 2 2 0 1 1 523.5320424570314 106.12229046664193" fill-opacity="1" clip-path="url(#EmGtoSZfTkrW)" stroke-opacity="1" stroke-linejoin="bevel" stroke-miterlimit="10" stroke-width="1.5" stroke-dasharray=""/><path fill="rgb(255,255,255)" stroke="rgb(255,127,80)" paint-order="fill" d="M 562.5847778320312 52.56373977661133 A 2 2 0 1 1 562.5847768320314 52.56173977694466" fill-opacity="1" clip-path="url(#EmGtoSZfTkrW)" stroke-opacity="1" stroke-linejoin="bevel" stroke-miterlimit="10" stroke-width="1.5" stroke-dasharray=""/><path fill="rgb(255,255,255)" stroke="rgb(255,127,80)" paint-order="fill" d="M 589.2613525390625 57.33734130859375 A 2 2 0 1 1 589.2613515390626 57.335341308927084" fill-opacity="1" clip-path="url(#EmGtoSZfTkrW)" stroke-opacity="1" stroke-linejoin="bevel" stroke-miterlimit="10" stroke-width="1.5" stroke-dasharray=""/><path fill="rgb(255,255,255)" stroke="rgb(255,127,80)" paint-order="fill" d="M 596.33349609375 46 A 2 2 0 1 1 596.3334950937501 45.998000000333334" fill-opacity="1" clip-path="url(#EmGtoSZfTkrW)" stroke-opacity="1" stroke-linejoin="bevel" stroke-miterlimit="10" stroke-width="1.5" stroke-dasharray=""/><path fill="rgb(255,255,255)" stroke="rgb(255,127,80)" paint-order="fill" d="M 635.1262817382812 56.57365798950195 A 2 2 0 1 1 635.1262807382814 56.57165798983529" fill-opacity="1" clip-path="url(#EmGtoSZfTkrW)" stroke-opacity="1" stroke-linejoin="bevel" stroke-miterlimit="10" stroke-width="1.5" stroke-dasharray=""/><path fill="rgb(255,255,255)" stroke="rgb(255,127,80)" paint-order="fill" d="M 645.3704833984375 221.83786010742188 A 2 2 0 1 1 645.3704823984376 221.8358601077552" fill-opacity="1" clip-path="url(#EmGtoSZfTkrW)" stroke-opacity="1" stroke-linejoin="bevel" stroke-miterlimit="10" stroke-width="1.5" stroke-dasharray=""/><path fill="rgb(255,255,255)" stroke="rgb(255,127,80)" paint-order="fill" d="M 661.2307739257812 72.3505630493164 A 2 2 0 1 1 661.2307729257814 72.34856304964974" fill-opacity="1" clip-path="url(#EmGtoSZfTkrW)" stroke-opacity="1" stroke-linejoin="bevel" stroke-miterlimit="10" stroke-width="1.5" stroke-dasharray=""/><path fill="rgb(255,255,255)" stroke="rgb(255,127,80)" paint-order="fill" d="M 689.6233520507812 51.27480697631836 A 2 2 0 1 1 689.6233510507814 51.272806976651694" fill-opacity="1" clip-path="url(#EmGtoSZfTkrW)" stroke-opacity="1" stroke-linejoin="bevel" stroke-miterlimit="10" stroke-width="1.5" stroke-dasharray=""/><path fill="rgb(255,255,255)" stroke="rgb(255,127,80)" paint-order="fill" d="M 700.8035888671875 54.25841522216797 A 2 2 0 1 1 700.8035878671876 54.2564152225013" fill-opacity="1" clip-path="url(#EmGtoSZfTkrW)" stroke-opacity="1" stroke-linejoin="bevel" stroke-miterlimit="10" stroke-width="1.5" stroke-dasharray=""/><path fill="rgb(255,255,255)" stroke="rgb(255,127,80)" paint-order="fill" d="M 740.6363525390625 50.51097869873047 A 2 2 0 1 1 740.6363515390626 50.5089786990638" fill-opacity="1" clip-path="url(#EmGtoSZfTkrW)" stroke-opacity="1" stroke-linejoin="bevel" stroke-miterlimit="10" stroke-width="1.5" stroke-dasharray=""/><path fill="none" stroke="rgb(0,0,0)" paint-order="fill" d="M 69.5 350.5 L 770.5 350.5" stroke-opacity="1" stroke-linejoin="bevel" stroke-miterlimit="10" stroke-dasharray=""/><path fill="none" stroke="rgb(0,0,0)" paint-order="fill" d="M 122.5 356.5 L 122.5 348.5 M 309.5 356.5 L 309.5 348.5 M 497.5 356.5 L 497.5 348.5 M 684.5 356.5 L 684.5 348.5" stroke-opacity="1" stroke-linejoin="bevel" stroke-miterlimit="10" stroke-dasharray=""/><path fill="none" stroke="rgb(0,0,0)" paint-order="fill" d="" stroke-opacity="1" stroke-linejoin="bevel" stroke-miterlimit="10" stroke-dasharray=""/><text fill="rgb(68,68,68)" stroke="none" font-family="helvetica" font-size="11px" font-style="normal" font-weight="normal" text-decoration="normal" x="111.4320650100708" y="371.4521484375" text-anchor="start" dominant-baseline="alphabetic" transform="matrix(1, 0, 0, 1, 0.5, 0.5)" fill-opacity="1">2/01</text><text fill="rgb(68,68,68)" stroke="none" font-family="helvetica" font-size="11px" font-style="normal" font-weight="normal" text-decoration="normal" x="303.21911811828613" y="371.4521484375" text-anchor="start" dominant-baseline="alphabetic" transform="matrix(1, 0, 0, 1, 0.5, 0.5)" fill-opacity="1">1h</text><text fill="rgb(68,68,68)" stroke="none" font-family="helvetica" font-size="11px" font-style="normal" font-weight="normal" text-decoration="normal" x="490.42288398742676" y="371.4521484375" text-anchor="start" dominant-baseline="alphabetic" transform="matrix(1, 0, 0, 1, 0.5, 0.5)" fill-opacity="1">2h</text><text fill="rgb(68,68,68)" stroke="none" font-family="helvetica" font-size="11px" font-style="normal" font-weight="normal" text-decoration="normal" x="677.6266193389893" y="371.4521484375" text-anchor="start" dominant-baseline="alphabetic" transform="matrix(1, 0, 0, 1, 0.5, 0.5)" fill-opacity="1">3h</text><text fill="rgb(68,68,68)" stroke="none" font-family="helvetica" font-size="13px" font-style="italic" font-weight="normal" text-decoration="normal" x="364.70000076293945" y="394.35205078125" text-anchor="start" dominant-baseline="alphabetic" transform="matrix(1, 0, 0, 1, 0.5, 0.5)" fill-opacity="1">Training Start Time</text><path fill="none" stroke="rgb(0,0,0)" paint-order="fill" d="M 69.5 350.5 L 69.5 31.5" stroke-opacity="1" stroke-linejoin="bevel" stroke-miterlimit="10" stroke-dasharray=""/><path fill="none" stroke="rgb(0,0,0)" paint-order="fill" d="M 63.5 311.5 L 71.5 311.5 M 63.5 263.5 L 71.5 263.5 M 63.5 216.5 L 71.5 216.5 M 63.5 168.5 L 71.5 168.5 M 63.5 120.5 L 71.5 120.5 M 63.5 73.5 L 71.5 73.5" stroke-opacity="1" stroke-linejoin="bevel" stroke-miterlimit="10" stroke-dasharray=""/><path fill="none" stroke="rgb(0,0,0)" paint-order="fill" d="M 65.5 321.5 L 69.5 321.5 M 65.5 330.5 L 69.5 330.5 M 65.5 340.5 L 69.5 340.5 M 65.5 349.5 L 69.5 349.5 M 65.5 311.5 L 69.5 311.5 M 65.5 302.5 L 69.5 302.5 M 65.5 292.5 L 69.5 292.5 M 65.5 283.5 L 69.5 283.5 M 65.5 273.5 L 69.5 273.5 M 65.5 263.5 L 69.5 263.5 M 65.5 254.5 L 69.5 254.5 M 65.5 244.5 L 69.5 244.5 M 65.5 235.5 L 69.5 235.5 M 65.5 225.5 L 69.5 225.5 M 65.5 216.5 L 69.5 216.5 M 65.5 206.5 L 69.5 206.5 M 65.5 197.5 L 69.5 197.5 M 65.5 187.5 L 69.5 187.5 M 65.5 178.5 L 69.5 178.5 M 65.5 168.5 L 69.5 168.5 M 65.5 158.5 L 69.5 158.5 M 65.5 149.5 L 69.5 149.5 M 65.5 139.5 L 69.5 139.5 M 65.5 130.5 L 69.5 130.5 M 65.5 120.5 L 69.5 120.5 M 65.5 111.5 L 69.5 111.5 M 65.5 101.5 L 69.5 101.5 M 65.5 92.5 L 69.5 92.5 M 65.5 82.5 L 69.5 82.5 M 65.5 73.5 L 69.5 73.5 M 65.5 63.5 L 69.5 63.5 M 65.5 53.5 L 69.5 53.5 M 65.5 44.5 L 69.5 44.5 M 65.5 34.5 L 69.5 34.5" stroke-opacity="1" stroke-linejoin="bevel" stroke-miterlimit="10" stroke-dasharray=""/><text fill="rgb(68,68,68)" stroke="none" font-family="helvetica" font-size="11px" font-style="normal" font-weight="normal" text-decoration="normal" x="26.816667556762695" y="315.21160888671875" text-anchor="start" dominant-baseline="alphabetic" transform="matrix(1, 0, 0, 1, 0.5, 0.5)" fill-opacity="1">86.0%</text><text fill="rgb(68,68,68)" stroke="none" font-family="helvetica" font-size="11px" font-style="normal" font-weight="normal" text-decoration="normal" x="26.816667556762695" y="267.4749755859375" text-anchor="start" dominant-baseline="alphabetic" transform="matrix(1, 0, 0, 1, 0.5, 0.5)" fill-opacity="1">88.0%</text><text fill="rgb(68,68,68)" stroke="none" font-family="helvetica" font-size="11px" font-style="normal" font-weight="normal" text-decoration="normal" x="26.816667556762695" y="219.7383270263672" text-anchor="start" dominant-baseline="alphabetic" transform="matrix(1, 0, 0, 1, 0.5, 0.5)" fill-opacity="1">90.0%</text><text fill="rgb(68,68,68)" stroke="none" font-family="helvetica" font-size="11px" font-style="normal" font-weight="normal" text-decoration="normal" x="26.816667556762695" y="172.00167846679688" text-anchor="start" dominant-baseline="alphabetic" transform="matrix(1, 0, 0, 1, 0.5, 0.5)" fill-opacity="1">92.0%</text><text fill="rgb(68,68,68)" stroke="none" font-family="helvetica" font-size="11px" font-style="normal" font-weight="normal" text-decoration="normal" x="26.816667556762695" y="124.2650375366211" text-anchor="start" dominant-baseline="alphabetic" transform="matrix(1, 0, 0, 1, 0.5, 0.5)" fill-opacity="1">94.0%</text><text fill="rgb(68,68,68)" stroke="none" font-family="helvetica" font-size="11px" font-style="normal" font-weight="normal" text-decoration="normal" x="26.816667556762695" y="76.52839660644531" text-anchor="start" dominant-baseline="alphabetic" transform="matrix(1, 0, 0, 1, 0.5, 0.5)" fill-opacity="1">96.0%</text><text fill="rgb(68,68,68)" stroke="none" font-family="helvetica" font-size="13px" font-style="italic" font-weight="normal" text-decoration="normal" x="-4.649999618530273" y="187.62451171875" text-anchor="start" dominant-baseline="alphabetic" transform="matrix(6.123233995736766e-17, -1, 1, 6.123233995736766e-17, -171.1833324432373, 209.8166675567627)" fill-opacity="1">AUROC</text><path fill="none" stroke="none"/><text fill="rgb(68,68,68)" stroke="none" font-family="helvetica" font-size="12pt" font-style="normal" font-weight="bold" text-decoration="normal" x="0" y="0" text-anchor="middle" dominant-baseline="text-after-edge" transform="matrix(1, 0, 0, 1, 420, 26.5)" fill-opacity="1">Convergence Plot</text></svg>