<svg version="1.1" xmlns="http://www.w3.org/2000/svg" xmlns:xlink="http://www.w3.org/1999/xlink" width="500" height="550"><defs><clipPath id="WUBFmLTOLEyE"><path fill="none" stroke="none" d="M 51.5 29.5 L 470.5 29.5 L 470.5 523.5 L 51.5 523.5 L 51.5 29.5"/></clipPath><clipPath id="rqVRiifoiUhZ"><path fill="none" stroke="none" d="M 51.5 29.5 L 470.5 29.5 L 470.5 523.5 L 51.5 523.5 L 51.5 29.5"/></clipPath><clipPath id="pdMILvvKMyqB"><path fill="none" stroke="none" d="M 51.5 29.5 L 470.5 29.5 L 470.5 523.5 L 51.5 523.5 L 51.5 29.5"/></clipPath><clipPath id="kpmFkRLrWFtb"><path fill="none" stroke="none" d="M 51.5 29.5 L 470.5 29.5 L 470.5 523.5 L 51.5 523.5 L 51.5 29.5"/></clipPath></defs><path fill="rgb(255,255,255)" stroke="none" paint-order="stroke" d="M 0.5 0.5 L 500.5 0.5 L 500.5 550.5 L 0.5 550.5 L 0.5 0.5" fill-opacity="1"/><rect fill="#FFFFFF" stroke="none" x="51" y="29" width="419" height="494" transform="matrix(1, 0, 0, 1, 0.5, 0.5)"/><path fill="rgb(255,255,255)" stroke="none" paint-order="stroke" d="M 51.5 29.5 L 470.5 29.5 L 470.5 523.5 L 51.5 523.5 L 51.5 29.5" fill-opacity="1"/><path fill="none" stroke="rgb(229,229,229)" paint-order="fill" d="M 51.5 29.5 L 470.5 29.5 L 470.5 523.5 L 51.5 523.5 L 51.5 29.5" stroke-opacity="1" stroke-linejoin="bevel" stroke-miterlimit="10" stroke-dasharray=""/><path fill="none" stroke="rgb(229,229,229)" paint-order="fill" d="M 147.5 523.5 L 147.5 29.5 M 243.5 523.5 L 243.5 29.5 M 339.5 523.5 L 339.5 29.5 M 435.5 523.5 L 435.5 29.5" stroke-opacity="1" stroke-linejoin="bevel" stroke-miterlimit="10" stroke-dasharray="" clip-path="url(#WUBFmLTOLEyE)"/><path fill="none" stroke="none"/><path fill="rgb(31,119,180)" stroke="none" paint-order="stroke" d="M 51.5 505.71600341796875 L 164.1469268798828 505.71600341796875 L 164.1469268798828 521.5239868164062 L 51.5 521.5239868164062 L 51.5 505.71600341796875" fill-opacity="1" clip-path="url(#pdMILvvKMyqB)"/><path fill="none" stroke="rgb(31,119,180)" paint-order="fill" d="M 51.5 505.71600341796875 L 164.1469268798828 505.71600341796875 L 164.1469268798828 521.5239868164062 L 51.5 521.5239868164062 L 51.5 505.71600341796875" stroke-opacity="1" stroke-linejoin="bevel" stroke-miterlimit="10" stroke-dasharray="" clip-path="url(#pdMILvvKMyqB)"/><path fill="rgb(31,119,180)" stroke="none" paint-order="stroke" d="M 51.5 485.95599365234375 L 164.20172119140625 485.95599365234375 L 164.20172119140625 501.76397705078125 L 51.5 501.76397705078125 L 51.5 485.95599365234375" fill-opacity="1" clip-path="url(#pdMILvvKMyqB)"/><path fill="none" stroke="rgb(31,119,180)" paint-order="fill" d="M 51.5 485.95599365234375 L 164.20172119140625 485.95599365234375 L 164.20172119140625 501.76397705078125 L 51.5 501.76397705078125 L 51.5 485.95599365234375" stroke-opacity="1" stroke-linejoin="bevel" stroke-miterlimit="10" stroke-dasharray="" clip-path="url(#pdMILvvKMyqB)"/><path fill="rgb(31,119,180)" stroke="none" paint-order="stroke" d="M 51.5 466.1960144042969 L 164.34864807128906 466.1960144042969 L 164.34864807128906 482.0039978027344 L 51.5 482.0039978027344 L 51.5 466.1960144042969" fill-opacity="1" clip-path="url(#pdMILvvKMyqB)"/><path fill="none" stroke="rgb(31,119,180)" paint-order="fill" d="M 51.5 466.1960144042969 L 164.34864807128906 466.1960144042969 L 164.34864807128906 482.0039978027344 L 51.5 482.0039978027344 L 51.5 466.1960144042969" stroke-opacity="1" stroke-linejoin="bevel" stroke-miterlimit="10" stroke-dasharray="" clip-path="url(#pdMILvvKMyqB)"/><path fill="rgb(31,119,180)" stroke="none" paint-order="stroke" d="M 51.5 446.4360046386719 L 164.5382843017578 446.4360046386719 L 164.5382843017578 462.2439880371094 L 51.5 462.2439880371094 L 51.5 446.4360046386719" fill-opacity="1" clip-path="url(#pdMILvvKMyqB)"/><path fill="none" stroke="rgb(31,119,180)" paint-order="fill" d="M 51.5 446.4360046386719 L 164.5382843017578 446.4360046386719 L 164.5382843017578 462.2439880371094 L 51.5 462.2439880371094 L 51.5 446.4360046386719" stroke-opacity="1" stroke-linejoin="bevel" stroke-miterlimit="10" stroke-dasharray="" clip-path="url(#pdMILvvKMyqB)"/><path fill="rgb(31,119,180)" stroke="none" paint-order="stroke" d="M 51.5 426.6759948730469 L 165.34645080566406 426.6759948730469 L 165.34645080566406 442.4839782714844 L 51.5 442.4839782714844 L 51.5 426.6759948730469" fill-opacity="1" clip-path="url(#pdMILvvKMyqB)"/><path fill="none" stroke="rgb(31,119,180)" paint-order="fill" d="M 51.5 426.6759948730469 L 165.34645080566406 426.6759948730469 L 165.34645080566406 442.4839782714844 L 51.5 442.4839782714844 L 51.5 426.6759948730469" stroke-opacity="1" stroke-linejoin="bevel" stroke-miterlimit="10" stroke-dasharray="" clip-path="url(#pdMILvvKMyqB)"/><path fill="rgb(31,119,180)" stroke="none" paint-order="stroke" d="M 51.5 406.916015625 L 166.2405548095703 406.916015625 L 166.2405548095703 422.7239990234375 L 51.5 422.7239990234375 L 51.5 406.916015625" fill-opacity="1" clip-path="url(#pdMILvvKMyqB)"/><path fill="none" stroke="rgb(31,119,180)" paint-order="fill" d="M 51.5 406.916015625 L 166.2405548095703 406.916015625 L 166.2405548095703 422.7239990234375 L 51.5 422.7239990234375 L 51.5 406.916015625" stroke-opacity="1" stroke-linejoin="bevel" stroke-miterlimit="10" stroke-dasharray="" clip-path="url(#pdMILvvKMyqB)"/><path fill="rgb(31,119,180)" stroke="none" paint-order="stroke" d="M 51.5 387.156005859375 L 167.38693237304688 387.156005859375 L 167.38693237304688 402.9639892578125 L 51.5 402.9639892578125 L 51.5 387.156005859375" fill-opacity="1" clip-path="url(#pdMILvvKMyqB)"/><path fill="none" stroke="rgb(31,119,180)" paint-order="fill" d="M 51.5 387.156005859375 L 167.38693237304688 387.156005859375 L 167.38693237304688 402.9639892578125 L 51.5 402.9639892578125 L 51.5 387.156005859375" stroke-opacity="1" stroke-linejoin="bevel" stroke-miterlimit="10" stroke-dasharray="" clip-path="url(#pdMILvvKMyqB)"/><path fill="rgb(31,119,180)" stroke="none" paint-order="stroke" d="M 51.5 367.39599609375 L 167.38722229003906 367.39599609375 L 167.38722229003906 383.2039794921875 L 51.5 383.2039794921875 L 51.5 367.39599609375" fill-opacity="1" clip-path="url(#pdMILvvKMyqB)"/><path fill="none" stroke="rgb(31,119,180)" paint-order="fill" d="M 51.5 367.39599609375 L 167.38722229003906 367.39599609375 L 167.38722229003906 383.2039794921875 L 51.5 383.2039794921875 L 51.5 367.39599609375" stroke-opacity="1" stroke-linejoin="bevel" stroke-miterlimit="10" stroke-dasharray="" clip-path="url(#pdMILvvKMyqB)"/><path fill="rgb(31,119,180)" stroke="none" paint-order="stroke" d="M 51.5 347.6360168457031 L 167.75868225097656 347.6360168457031 L 167.75868225097656 363.4440002441406 L 51.5 363.4440002441406 L 51.5 347.6360168457031" fill-opacity="1" clip-path="url(#pdMILvvKMyqB)"/><path fill="none" stroke="rgb(31,119,180)" paint-order="fill" d="M 51.5 347.6360168457031 L 167.75868225097656 347.6360168457031 L 167.75868225097656 363.4440002441406 L 51.5 363.4440002441406 L 51.5 347.6360168457031" stroke-opacity="1" stroke-linejoin="bevel" stroke-miterlimit="10" stroke-dasharray="" clip-path="url(#pdMILvvKMyqB)"/><path fill="rgb(31,119,180)" stroke="none" paint-order="stroke" d="M 51.5 327.8760070800781 L 168.7365264892578 327.8760070800781 L 168.7365264892578 343.6839904785156 L 51.5 343.6839904785156 L 51.5 327.8760070800781" fill-opacity="1" clip-path="url(#pdMILvvKMyqB)"/><path fill="none" stroke="rgb(31,119,180)" paint-order="fill" d="M 51.5 327.8760070800781 L 168.7365264892578 327.8760070800781 L 168.7365264892578 343.6839904785156 L 51.5 343.6839904785156 L 51.5 327.8760070800781" stroke-opacity="1" stroke-linejoin="bevel" stroke-miterlimit="10" stroke-dasharray="" clip-path="url(#pdMILvvKMyqB)"/><path fill="rgb(31,119,180)" stroke="none" paint-order="stroke" d="M 51.5 308.1159973144531 L 169.5478515625 308.1159973144531 L 169.5478515625 323.9239807128906 L 51.5 323.9239807128906 L 51.5 308.1159973144531" fill-opacity="1" clip-path="url(#pdMILvvKMyqB)"/><path fill="none" stroke="rgb(31,119,180)" paint-order="fill" d="M 51.5 308.1159973144531 L 169.5478515625 308.1159973144531 L 169.5478515625 323.9239807128906 L 51.5 323.9239807128906 L 51.5 308.1159973144531" stroke-opacity="1" stroke-linejoin="bevel" stroke-miterlimit="10" stroke-dasharray="" clip-path="url(#pdMILvvKMyqB)"/><path fill="rgb(31,119,180)" stroke="none" paint-order="stroke" d="M 51.5 288.35601806640625 L 172.9955291748047 288.35601806640625 L 172.9955291748047 304.16400146484375 L 51.5 304.16400146484375 L 51.5 288.35601806640625" fill-opacity="1" clip-path="url(#pdMILvvKMyqB)"/><path fill="none" stroke="rgb(31,119,180)" paint-order="fill" d="M 51.5 288.35601806640625 L 172.9955291748047 288.35601806640625 L 172.9955291748047 304.16400146484375 L 51.5 304.16400146484375 L 51.5 288.35601806640625" stroke-opacity="1" stroke-linejoin="bevel" stroke-miterlimit="10" stroke-dasharray="" clip-path="url(#pdMILvvKMyqB)"/><path fill="rgb(31,119,180)" stroke="none" paint-order="stroke" d="M 51.5 268.59600830078125 L 174.54515075683594 268.59600830078125 L 174.54515075683594 284.40399169921875 L 51.5 284.40399169921875 L 51.5 268.59600830078125" fill-opacity="1" clip-path="url(#pdMILvvKMyqB)"/><path fill="none" stroke="rgb(31,119,180)" paint-order="fill" d="M 51.5 268.59600830078125 L 174.54515075683594 268.59600830078125 L 174.54515075683594 284.40399169921875 L 51.5 284.40399169921875 L 51.5 268.59600830078125" stroke-opacity="1" stroke-linejoin="bevel" stroke-miterlimit="10" stroke-dasharray="" clip-path="url(#pdMILvvKMyqB)"/><path fill="rgb(31,119,180)" stroke="none" paint-order="stroke" d="M 51.5 248.8359832763672 L 175.09268188476562 248.8359832763672 L 175.09268188476562 264.64398193359375 L 51.5 264.64398193359375 L 51.5 248.8359832763672" fill-opacity="1" clip-path="url(#pdMILvvKMyqB)"/><path fill="none" stroke="rgb(31,119,180)" paint-order="fill" d="M 51.5 248.8359832763672 L 175.09268188476562 248.8359832763672 L 175.09268188476562 264.64398193359375 L 51.5 264.64398193359375 L 51.5 248.8359832763672" stroke-opacity="1" stroke-linejoin="bevel" stroke-miterlimit="10" stroke-dasharray="" clip-path="url(#pdMILvvKMyqB)"/><path fill="rgb(31,119,180)" stroke="none" paint-order="stroke" d="M 51.5 229.07598876953125 L 175.2958984375 229.07598876953125 L 175.2958984375 244.88400268554688 L 51.5 244.88400268554688 L 51.5 229.07598876953125" fill-opacity="1" clip-path="url(#pdMILvvKMyqB)"/><path fill="none" stroke="rgb(31,119,180)" paint-order="fill" d="M 51.5 229.07598876953125 L 175.2958984375 229.07598876953125 L 175.2958984375 244.88400268554688 L 51.5 244.88400268554688 L 51.5 229.07598876953125" stroke-opacity="1" stroke-linejoin="bevel" stroke-miterlimit="10" stroke-dasharray="" clip-path="url(#pdMILvvKMyqB)"/><path fill="rgb(31,119,180)" stroke="none" paint-order="stroke" d="M 51.5 209.3159942626953 L 182.94618225097656 209.3159942626953 L 182.94618225097656 225.12400817871094 L 51.5 225.12400817871094 L 51.5 209.3159942626953" fill-opacity="1" clip-path="url(#pdMILvvKMyqB)"/><path fill="none" stroke="rgb(31,119,180)" paint-order="fill" d="M 51.5 209.3159942626953 L 182.94618225097656 209.3159942626953 L 182.94618225097656 225.12400817871094 L 51.5 225.12400817871094 L 51.5 209.3159942626953" stroke-opacity="1" stroke-linejoin="bevel" stroke-miterlimit="10" stroke-dasharray="" clip-path="url(#pdMILvvKMyqB)"/><path fill="rgb(31,119,180)" stroke="none" paint-order="stroke" d="M 51.5 189.55599975585938 L 183.6287841796875 189.55599975585938 L 183.6287841796875 205.364013671875 L 51.5 205.364013671875 L 51.5 189.55599975585938" fill-opacity="1" clip-path="url(#pdMILvvKMyqB)"/><path fill="none" stroke="rgb(31,119,180)" paint-order="fill" d="M 51.5 189.55599975585938 L 183.6287841796875 189.55599975585938 L 183.6287841796875 205.364013671875 L 51.5 205.364013671875 L 51.5 189.55599975585938" stroke-opacity="1" stroke-linejoin="bevel" stroke-miterlimit="10" stroke-dasharray="" clip-path="url(#pdMILvvKMyqB)"/><path fill="rgb(31,119,180)" stroke="none" paint-order="stroke" d="M 51.5 169.79598999023438 L 184.0441436767578 169.79598999023438 L 184.0441436767578 185.60400390625 L 51.5 185.60400390625 L 51.5 169.79598999023438" fill-opacity="1" clip-path="url(#pdMILvvKMyqB)"/><path fill="none" stroke="rgb(31,119,180)" paint-order="fill" d="M 51.5 169.79598999023438 L 184.0441436767578 169.79598999023438 L 184.0441436767578 185.60400390625 L 51.5 185.60400390625 L 51.5 169.79598999023438" stroke-opacity="1" stroke-linejoin="bevel" stroke-miterlimit="10" stroke-dasharray="" clip-path="url(#pdMILvvKMyqB)"/><path fill="rgb(31,119,180)" stroke="none" paint-order="stroke" d="M 51.5 150.03599548339844 L 184.7894287109375 150.03599548339844 L 184.7894287109375 165.84400939941406 L 51.5 165.84400939941406 L 51.5 150.03599548339844" fill-opacity="1" clip-path="url(#pdMILvvKMyqB)"/><path fill="none" stroke="rgb(31,119,180)" paint-order="fill" d="M 51.5 150.03599548339844 L 184.7894287109375 150.03599548339844 L 184.7894287109375 165.84400939941406 L 51.5 165.84400939941406 L 51.5 150.03599548339844" stroke-opacity="1" stroke-linejoin="bevel" stroke-miterlimit="10" stroke-dasharray="" clip-path="url(#pdMILvvKMyqB)"/><path fill="rgb(31,119,180)" stroke="none" paint-order="stroke" d="M 51.5 130.27598571777344 L 187.5620880126953 130.27598571777344 L 187.5620880126953 146.08399963378906 L 51.5 146.08399963378906 L 51.5 130.27598571777344" fill-opacity="1" clip-path="url(#pdMILvvKMyqB)"/><path fill="none" stroke="rgb(31,119,180)" paint-order="fill" d="M 51.5 130.27598571777344 L 187.5620880126953 130.27598571777344 L 187.5620880126953 146.08399963378906 L 51.5 146.08399963378906 L 51.5 130.27598571777344" stroke-opacity="1" stroke-linejoin="bevel" stroke-miterlimit="10" stroke-dasharray="" clip-path="url(#pdMILvvKMyqB)"/><path fill="rgb(31,119,180)" stroke="none" paint-order="stroke" d="M 51.5 110.51599884033203 L 212.4634246826172 110.51599884033203 L 212.4634246826172 126.3239974975586 L 51.5 126.3239974975586 L 51.5 110.51599884033203" fill-opacity="1" clip-path="url(#pdMILvvKMyqB)"/><path fill="none" stroke="rgb(31,119,180)" paint-order="fill" d="M 51.5 110.51599884033203 L 212.4634246826172 110.51599884033203 L 212.4634246826172 126.3239974975586 L 51.5 126.3239974975586 L 51.5 110.51599884033203" stroke-opacity="1" stroke-linejoin="bevel" stroke-miterlimit="10" stroke-dasharray="" clip-path="url(#pdMILvvKMyqB)"/><path fill="rgb(31,119,180)" stroke="none" paint-order="stroke" d="M 51.5 90.7560043334961 L 219.2923126220703 90.7560043334961 L 219.2923126220703 106.56400299072266 L 51.5 106.56400299072266 L 51.5 90.7560043334961" fill-opacity="1" clip-path="url(#pdMILvvKMyqB)"/><path fill="none" stroke="rgb(31,119,180)" paint-order="fill" d="M 51.5 90.7560043334961 L 219.2923126220703 90.7560043334961 L 219.2923126220703 106.56400299072266 L 51.5 106.56400299072266 L 51.5 90.7560043334961" stroke-opacity="1" stroke-linejoin="bevel" stroke-miterlimit="10" stroke-dasharray="" clip-path="url(#pdMILvvKMyqB)"/><path fill="rgb(31,119,180)" stroke="none" paint-order="stroke" d="M 51.5 70.99600219726562 L 229.69935607910156 70.99600219726562 L 229.69935607910156 86.80400085449219 L 51.5 86.80400085449219 L 51.5 70.99600219726562" fill-opacity="1" clip-path="url(#pdMILvvKMyqB)"/><path fill="none" stroke="rgb(31,119,180)" paint-order="fill" d="M 51.5 70.99600219726562 L 229.69935607910156 70.99600219726562 L 229.69935607910156 86.80400085449219 L 51.5 86.80400085449219 L 51.5 70.99600219726562" stroke-opacity="1" stroke-linejoin="bevel" stroke-miterlimit="10" stroke-dasharray="" clip-path="url(#pdMILvvKMyqB)"/><path fill="rgb(31,119,180)" stroke="none" paint-order="stroke" d="M 51.5 51.236000061035156 L 399.3785400390625 51.236000061035156 L 399.3785400390625 67.04399871826172 L 51.5 67.04399871826172 L 51.5 51.236000061035156" fill-opacity="1" clip-path="url(#pdMILvvKMyqB)"/><path fill="none" stroke="rgb(31,119,180)" paint-order="fill" d="M 51.5 51.236000061035156 L 399.3785400390625 51.236000061035156 L 399.3785400390625 67.04399871826172 L 51.5 67.04399871826172 L 51.5 51.236000061035156" stroke-opacity="1" stroke-linejoin="bevel" stroke-miterlimit="10" stroke-dasharray="" clip-path="url(#pdMILvvKMyqB)"/><path fill="rgb(31,119,180)" stroke="none" paint-order="stroke" d="M 51.5 31.476001739501953 L 450.547607421875 31.476001739501953 L 450.547607421875 47.284000396728516 L 51.5 47.284000396728516 L 51.5 31.476001739501953" fill-opacity="1" clip-path="url(#pdMILvvKMyqB)"/><path fill="none" stroke="rgb(31,119,180)" paint-order="fill" d="M 51.5 31.476001739501953 L 450.547607421875 31.476001739501953 L 450.547607421875 47.284000396728516 L 51.5 47.284000396728516 L 51.5 31.476001739501953" stroke-opacity="1" stroke-linejoin="bevel" stroke-miterlimit="10" stroke-dasharray="" clip-path="url(#pdMILvvKMyqB)"/><path fill="none" stroke="rgb(0,0,0)" paint-order="fill" d="M 51.5 523.5 L 470.5 523.5" stroke-opacity="1" stroke-linejoin="bevel" stroke-miterlimit="10" stroke-dasharray=""/><path fill="none" stroke="rgb(0,0,0)" paint-order="fill" d="M 51.5 529.5 L 51.5 521.5 M 147.5 529.5 L 147.5 521.5 M 243.5 529.5 L 243.5 521.5 M 339.5 529.5 L 339.5 521.5 M 435.5 529.5 L 435.5 521.5" stroke-opacity="1" stroke-linejoin="bevel" stroke-miterlimit="10" stroke-dasharray=""/><text fill="rgb(68,68,68)" stroke="none" font-family="helvetica" font-size="11px" font-style="normal" font-weight="normal" text-decoration="normal" x="33.88333320617676" y="544.4521484375" text-anchor="start" dominant-baseline="alphabetic" transform="matrix(1, 0, 0, 1, 0.5, 0.5)" fill-opacity="1">0.00 %</text><text fill="rgb(68,68,68)" stroke="none" font-family="helvetica" font-size="11px" font-style="normal" font-weight="normal" text-decoration="normal" x="129.92166328430176" y="544.4521484375" text-anchor="start" dominant-baseline="alphabetic" transform="matrix(1, 0, 0, 1, 0.5, 0.5)" fill-opacity="1">0.50 %</text><text fill="rgb(68,68,68)" stroke="none" font-family="helvetica" font-size="11px" font-style="normal" font-weight="normal" text-decoration="normal" x="225.96000862121582" y="544.4521484375" text-anchor="start" dominant-baseline="alphabetic" transform="matrix(1, 0, 0, 1, 0.5, 0.5)" fill-opacity="1">1.00 %</text><text fill="rgb(68,68,68)" stroke="none" font-family="helvetica" font-size="11px" font-style="normal" font-weight="normal" text-decoration="normal" x="321.9983539581299" y="544.4521484375" text-anchor="start" dominant-baseline="alphabetic" transform="matrix(1, 0, 0, 1, 0.5, 0.5)" fill-opacity="1">1.50 %</text><text fill="rgb(68,68,68)" stroke="none" font-family="helvetica" font-size="11px" font-style="normal" font-weight="normal" text-decoration="normal" x="418.0366840362549" y="544.4521484375" text-anchor="start" dominant-baseline="alphabetic" transform="matrix(1, 0, 0, 1, 0.5, 0.5)" fill-opacity="1">2.00 %</text><path fill="none" stroke="rgb(0,0,0)" paint-order="fill" d="M 51.5 523.5 L 51.5 29.5" stroke-opacity="1" stroke-linejoin="bevel" stroke-miterlimit="10" stroke-dasharray=""/><path fill="none" stroke="rgb(0,0,0)" paint-order="fill" d="M 45.5 513.5 L 53.5 513.5 M 45.5 493.5 L 53.5 493.5 M 45.5 474.5 L 53.5 474.5 M 45.5 454.5 L 53.5 454.5 M 45.5 434.5 L 53.5 434.5 M 45.5 414.5 L 53.5 414.5 M 45.5 395.5 L 53.5 395.5 M 45.5 375.5 L 53.5 375.5 M 45.5 355.5 L 53.5 355.5 M 45.5 335.5 L 53.5 335.5 M 45.5 316.5 L 53.5 316.5 M 45.5 296.5 L 53.5 296.5 M 45.5 276.5 L 53.5 276.5 M 45.5 256.5 L 53.5 256.5 M 45.5 236.5 L 53.5 236.5 M 45.5 217.5 L 53.5 217.5 M 45.5 197.5 L 53.5 197.5 M 45.5 177.5 L 53.5 177.5 M 45.5 157.5 L 53.5 157.5 M 45.5 138.5 L 53.5 138.5 M 45.5 118.5 L 53.5 118.5 M 45.5 98.5 L 53.5 98.5 M 45.5 78.5 L 53.5 78.5 M 45.5 59.5 L 53.5 59.5 M 45.5 39.5 L 53.5 39.5" stroke-opacity="1" stroke-linejoin="bevel" stroke-miterlimit="10" stroke-dasharray=""/><text fill="rgb(68,68,68)" stroke="none" font-family="helvetica" font-size="11px" font-style="normal" font-weight="normal" text-decoration="normal" x="19.816667556762695" y="517.1295166015625" text-anchor="start" dominant-baseline="alphabetic" transform="matrix(1, 0, 0, 1, 0.5, 0.5)" fill-opacity="1">C12</text><text fill="rgb(68,68,68)" stroke="none" font-family="helvetica" font-size="11px" font-style="normal" font-weight="normal" text-decoration="normal" x="25.93333339691162" y="497.3695068359375" text-anchor="start" dominant-baseline="alphabetic" transform="matrix(1, 0, 0, 1, 0.5, 0.5)" fill-opacity="1">C4</text><text fill="rgb(68,68,68)" stroke="none" font-family="helvetica" font-size="11px" font-style="normal" font-weight="normal" text-decoration="normal" x="14.316667556762695" y="477.6095275878906" text-anchor="start" dominant-baseline="alphabetic" transform="matrix(1, 0, 0, 1, 0.5, 0.5)" fill-opacity="1">V124</text><text fill="rgb(68,68,68)" stroke="none" font-family="helvetica" font-size="11px" font-style="normal" font-weight="normal" text-decoration="normal" x="14.316667556762695" y="457.8495178222656" text-anchor="start" dominant-baseline="alphabetic" transform="matrix(1, 0, 0, 1, 0.5, 0.5)" fill-opacity="1">V198</text><text fill="rgb(68,68,68)" stroke="none" font-family="helvetica" font-size="11px" font-style="normal" font-weight="normal" text-decoration="normal" x="14.316667556762695" y="438.0895080566406" text-anchor="start" dominant-baseline="alphabetic" transform="matrix(1, 0, 0, 1, 0.5, 0.5)" fill-opacity="1">V190</text><text fill="rgb(68,68,68)" stroke="none" font-family="helvetica" font-size="11px" font-style="normal" font-weight="normal" text-decoration="normal" x="15.933332443237305" y="418.32952880859375" text-anchor="start" dominant-baseline="alphabetic" transform="matrix(1, 0, 0, 1, 0.5, 0.5)" fill-opacity="1">V111</text><text fill="rgb(68,68,68)" stroke="none" font-family="helvetica" font-size="11px" font-style="normal" font-weight="normal" text-decoration="normal" x="15.116666793823242" y="398.56951904296875" text-anchor="start" dominant-baseline="alphabetic" transform="matrix(1, 0, 0, 1, 0.5, 0.5)" fill-opacity="1">V114</text><text fill="rgb(68,68,68)" stroke="none" font-family="helvetica" font-size="11px" font-style="normal" font-weight="normal" text-decoration="normal" x="14.316667556762695" y="378.80950927734375" text-anchor="start" dominant-baseline="alphabetic" transform="matrix(1, 0, 0, 1, 0.5, 0.5)" fill-opacity="1">V308</text><text fill="rgb(68,68,68)" stroke="none" font-family="helvetica" font-size="11px" font-style="normal" font-weight="normal" text-decoration="normal" x="14.316667556762695" y="359.0495300292969" text-anchor="start" dominant-baseline="alphabetic" transform="matrix(1, 0, 0, 1, 0.5, 0.5)" fill-opacity="1">V325</text><text fill="rgb(68,68,68)" stroke="none" font-family="helvetica" font-size="11px" font-style="normal" font-weight="normal" text-decoration="normal" x="25.93333339691162" y="339.2895202636719" text-anchor="start" dominant-baseline="alphabetic" transform="matrix(1, 0, 0, 1, 0.5, 0.5)" fill-opacity="1">C7</text><text fill="rgb(68,68,68)" stroke="none" font-family="helvetica" font-size="11px" font-style="normal" font-weight="normal" text-decoration="normal" x="2.700000762939453" y="319.5295104980469" text-anchor="start" dominant-baseline="alphabetic" transform="matrix(1, 0, 0, 1, 0.5, 0.5)" fill-opacity="1">CARD2</text><text fill="rgb(68,68,68)" stroke="none" font-family="helvetica" font-size="11px" font-style="normal" font-weight="normal" text-decoration="normal" x="10.649999618530273" y="299.76953125" text-anchor="start" dominant-baseline="alphabetic" transform="matrix(1, 0, 0, 1, 0.5, 0.5)" fill-opacity="1">ID_26</text><text fill="rgb(68,68,68)" stroke="none" font-family="helvetica" font-size="11px" font-style="normal" font-weight="normal" text-decoration="normal" x="25.93333339691162" y="280.009521484375" text-anchor="start" dominant-baseline="alphabetic" transform="matrix(1, 0, 0, 1, 0.5, 0.5)" fill-opacity="1">C8</text><text fill="rgb(68,68,68)" stroke="none" font-family="helvetica" font-size="11px" font-style="normal" font-weight="normal" text-decoration="normal" x="19.816667556762695" y="260.24951171875" text-anchor="start" dominant-baseline="alphabetic" transform="matrix(1, 0, 0, 1, 0.5, 0.5)" fill-opacity="1">C10</text><text fill="rgb(68,68,68)" stroke="none" font-family="helvetica" font-size="11px" font-style="normal" font-weight="normal" text-decoration="normal" x="14.316667556762695" y="240.48951721191406" text-anchor="start" dominant-baseline="alphabetic" transform="matrix(1, 0, 0, 1, 0.5, 0.5)" fill-opacity="1">V104</text><text fill="rgb(68,68,68)" stroke="none" font-family="helvetica" font-size="11px" font-style="normal" font-weight="normal" text-decoration="normal" x="20.433332443237305" y="220.72952270507812" text-anchor="start" dominant-baseline="alphabetic" transform="matrix(1, 0, 0, 1, 0.5, 0.5)" fill-opacity="1">V13</text><text fill="rgb(68,68,68)" stroke="none" font-family="helvetica" font-size="11px" font-style="normal" font-weight="normal" text-decoration="normal" x="25.93333339691162" y="200.9695281982422" text-anchor="start" dominant-baseline="alphabetic" transform="matrix(1, 0, 0, 1, 0.5, 0.5)" fill-opacity="1">C3</text><text fill="rgb(68,68,68)" stroke="none" font-family="helvetica" font-size="11px" font-style="normal" font-weight="normal" text-decoration="normal" x="20.433332443237305" y="181.2095184326172" text-anchor="start" dominant-baseline="alphabetic" transform="matrix(1, 0, 0, 1, 0.5, 0.5)" fill-opacity="1">V29</text><text fill="rgb(68,68,68)" stroke="none" font-family="helvetica" font-size="11px" font-style="normal" font-weight="normal" text-decoration="normal" x="14.316667556762695" y="161.44952392578125" text-anchor="start" dominant-baseline="alphabetic" transform="matrix(1, 0, 0, 1, 0.5, 0.5)" fill-opacity="1">V109</text><text fill="rgb(68,68,68)" stroke="none" font-family="helvetica" font-size="11px" font-style="normal" font-weight="normal" text-decoration="normal" x="14.316667556762695" y="141.68951416015625" text-anchor="start" dominant-baseline="alphabetic" transform="matrix(1, 0, 0, 1, 0.5, 0.5)" fill-opacity="1">V298</text><text fill="rgb(68,68,68)" stroke="none" font-family="helvetica" font-size="11px" font-style="normal" font-weight="normal" text-decoration="normal" x="14.316667556762695" y="121.92951965332031" text-anchor="start" dominant-baseline="alphabetic" transform="matrix(1, 0, 0, 1, 0.5, 0.5)" fill-opacity="1">V105</text><text fill="rgb(68,68,68)" stroke="none" font-family="helvetica" font-size="11px" font-style="normal" font-weight="normal" text-decoration="normal" x="15.116666793823242" y="102.16952514648438" text-anchor="start" dominant-baseline="alphabetic" transform="matrix(1, 0, 0, 1, 0.5, 0.5)" fill-opacity="1">V116</text><text fill="rgb(68,68,68)" stroke="none" font-family="helvetica" font-size="11px" font-style="normal" font-weight="normal" text-decoration="normal" x="14.316667556762695" y="82.4095230102539" text-anchor="start" dominant-baseline="alphabetic" transform="matrix(1, 0, 0, 1, 0.5, 0.5)" fill-opacity="1">V108</text><text fill="rgb(68,68,68)" stroke="none" font-family="helvetica" font-size="11px" font-style="normal" font-weight="normal" text-decoration="normal" x="14.316667556762695" y="62.64952087402344" text-anchor="start" dominant-baseline="alphabetic" transform="matrix(1, 0, 0, 1, 0.5, 0.5)" fill-opacity="1">V103</text><text fill="rgb(68,68,68)" stroke="none" font-family="helvetica" font-size="11px" font-style="normal" font-weight="normal" text-decoration="normal" x="14.316667556762695" y="42.889522552490234" text-anchor="start" dominant-baseline="alphabetic" transform="matrix(1, 0, 0, 1, 0.5, 0.5)" fill-opacity="1">V107</text><path fill="none" stroke="none"/><text fill="rgb(68,68,68)" stroke="none" font-family="helvetica" font-size="11pt" font-style="normal" font-weight="bold" text-decoration="normal" x="0" y="0" text-anchor="middle" dominant-baseline="text-after-edge" transform="matrix(1, 0, 0, 1, 261, 24.5)" fill-opacity="1">Global Shapley Value by Feature (Top 25)</text></svg>